<svg width="24" height="24" viewBox="0 0 24 24" fill="none" xmlns="http://www.w3.org/2000/svg">
<g clip-path="url(#clip0_0_45)">
<path d="M20.95 21.375L18 18.425V20.65H16V15H21.65V17H19.4L22.35 19.95L20.95 21.375ZM12 21C10.6167 21 9.31667 20.7375 8.1 20.2125C6.88333 19.6875 5.825 18.975 4.925 18.075C4.025 17.175 3.3125 16.1167 2.7875 14.9C2.2625 13.6833 2 12.3833 2 11C2 9.61667 2.2625 8.31667 2.7875 7.1C3.3125 5.88333 4.025 4.825 4.925 3.925C5.825 3.025 6.88333 2.3125 8.1 1.7875C9.31667 1.2625 10.6167 1 12 1C13.3833 1 14.6833 1.2625 15.9 1.7875C17.1167 2.3125 18.175 3.025 19.075 3.925C19.975 4.825 20.6875 5.88333 21.2125 7.1C21.7375 8.31667 22 9.61667 22 11C22 11.3333 21.9833 11.6667 21.95 12C21.9167 12.3333 21.8667 12.6667 21.8 13H19.75C19.8333 12.6667 19.8958 12.3333 19.9375 12C19.9792 11.6667 20 11.3333 20 11C20 10.6667 19.9792 10.3333 19.9375 10C19.8958 9.66667 19.8333 9.33333 19.75 9H16.35C16.4 9.33333 16.4375 9.66667 16.4625 10C16.4875 10.3333 16.5 10.6667 16.5 11C16.5 11.3333 16.4875 11.6667 16.4625 12C16.4375 12.3333 16.4 12.6667 16.35 13H14.35C14.4 12.6667 14.4375 12.3333 14.4625 12C14.4875 11.6667 14.5 11.3333 14.5 11C14.5 10.6667 14.4875 10.3333 14.4625 10C14.4375 9.66667 14.4 9.33333 14.35 9H9.65C9.6 9.33333 9.5625 9.66667 9.5375 10C9.5125 10.3333 9.5 10.6667 9.5 11C9.5 11.3333 9.5125 11.6667 9.5375 12C9.5625 12.3333 9.6 12.6667 9.65 13H13V15H10.1C10.3 15.7167 10.5583 16.4042 10.875 17.0625C11.1917 17.7208 11.5667 18.35 12 18.95C12.3333 18.95 12.6667 18.9292 13 18.8875C13.3333 18.8458 13.6667 18.8083 14 18.775V20.825C13.6667 20.8583 13.3333 20.8958 13 20.9375C12.6667 20.9792 12.3333 21 12 21ZM4.25 13H7.65C7.6 12.6667 7.5625 12.3333 7.5375 12C7.5125 11.6667 7.5 11.3333 7.5 11C7.5 10.6667 7.5125 10.3333 7.5375 10C7.5625 9.66667 7.6 9.33333 7.65 9H4.25C4.16667 9.33333 4.10417 9.66667 4.0625 10C4.02083 10.3333 4 10.6667 4 11C4 11.3333 4.02083 11.6667 4.0625 12C4.10417 12.3333 4.16667 12.6667 4.25 13ZM5.1 7H8.05C8.2 6.38333 8.3875 5.77917 8.6125 5.1875C8.8375 4.59583 9.1 4.01667 9.4 3.45C8.48333 3.75 7.65833 4.20417 6.925 4.8125C6.19167 5.42083 5.58333 6.15 5.1 7ZM9.4 18.55C9.1 17.9833 8.8375 17.4042 8.6125 16.8125C8.3875 16.2208 8.2 15.6167 8.05 15H5.1C5.58333 15.85 6.19167 16.5792 6.925 17.1875C7.65833 17.7958 8.48333 18.25 9.4 18.55ZM10.1 7H13.9C13.7 6.28333 13.4417 5.59583 13.125 4.9375C12.8083 4.27917 12.4333 3.65 12 3.05C11.5667 3.65 11.1917 4.27917 10.875 4.9375C10.5583 5.59583 10.3 6.28333 10.1 7ZM15.95 7H18.9C18.4167 6.15 17.8083 5.42083 17.075 4.8125C16.3417 4.20417 15.5167 3.75 14.6 3.45C14.9 4.01667 15.1625 4.59583 15.3875 5.1875C15.6125 5.77917 15.8 6.38333 15.95 7Z" fill="#E3E3E3"/>
</g>
<defs>
<clipPath id="clip0_0_45">
<rect width="24" height="24" fill="white"/>
</clipPath>
</defs>
</svg>
