<svg width="568" height="51" viewBox="0 0 568 51" fill="none" xmlns="http://www.w3.org/2000/svg">
<path d="M-3.39796e-06 17.0225V0.230053H2.25433V17.0225H-3.39796e-06ZM1.79426 17.0225V14.9982H9.93746V17.0225H1.79426ZM1.79426 9.50042V7.47612H9.22436V9.50042H1.79426ZM1.79426 2.25435V0.230053H9.70743V2.25435H1.79426ZM11.9988 17.0225L16.3924 10.5586L16.3234 11.0186L12.2058 4.73872H14.6442L17.6116 9.3624H17.9337L20.7401 4.73872H23.0174L19.1298 10.8576L19.1988 10.4436L23.7995 17.0225H21.3612L17.9106 12.0308H17.5886L14.2761 17.0225H11.9988ZM26.343 21.6232V4.73872H28.0913V10.0525L27.6772 10.0065C27.7539 8.68763 28.0299 7.61414 28.5053 6.78602C28.9961 5.94256 29.6325 5.32147 30.4146 4.92274C31.1967 4.52402 32.0478 4.32466 32.968 4.32466C33.8574 4.32466 34.6626 4.49335 35.3833 4.83073C36.1194 5.16811 36.7482 5.62818 37.2696 6.21093C37.791 6.79369 38.1898 7.46845 38.4658 8.23523C38.7418 9.00201 38.8799 9.8148 38.8799 10.6736V11.0877C38.8799 11.9464 38.7342 12.7592 38.4428 13.526C38.1514 14.2928 37.7374 14.9676 37.2006 15.5503C36.6792 16.1331 36.0504 16.5931 35.3143 16.9305C34.5936 17.2679 33.7961 17.4366 32.922 17.4366C32.0478 17.4366 31.2121 17.2449 30.4146 16.8615C29.6172 16.4781 28.9577 15.857 28.4363 14.9982C27.9149 14.1394 27.6159 13.0123 27.5392 11.6167L28.5513 13.457V21.6232H26.343ZM32.5769 15.5043C33.405 15.5043 34.1258 15.3126 34.7392 14.9292C35.3527 14.5305 35.8281 13.9861 36.1655 13.296C36.5028 12.5905 36.6715 11.7854 36.6715 10.8806C36.6715 9.96049 36.5028 9.15537 36.1655 8.46527C35.8281 7.77516 35.3527 7.23842 34.7392 6.85503C34.1258 6.4563 33.405 6.25694 32.5769 6.25694C31.8408 6.25694 31.1584 6.42563 30.5296 6.76301C29.9009 7.08506 29.3948 7.56047 29.0114 8.18923C28.6433 8.80265 28.4593 9.54642 28.4593 10.4206V11.4787C28.4593 12.3222 28.651 13.0429 29.0344 13.641C29.4178 14.2391 29.9239 14.6992 30.5526 15.0212C31.1814 15.3433 31.8562 15.5043 32.5769 15.5043ZM42.3408 17.0225V0.230053H44.5491V17.0225H42.3408ZM40.6385 1.97831V0.230053H44.5491V1.97831H40.6385ZM54.4436 17.4366C53.3701 17.4366 52.427 17.2526 51.6142 16.8845C50.8014 16.5165 50.1113 16.0334 49.5439 15.4353C48.9918 14.8219 48.5701 14.1394 48.2787 13.388C48.0027 12.6365 47.8647 11.8698 47.8647 11.0877V10.6736C47.8647 9.89148 48.0103 9.1247 48.3017 8.37325C48.5931 7.60647 49.0225 6.92404 49.5899 6.32595C50.1573 5.71253 50.8474 5.22946 51.6602 4.87674C52.473 4.50868 53.4008 4.32466 54.4436 4.32466C55.4864 4.32466 56.4142 4.50868 57.227 4.87674C58.0398 5.22946 58.7299 5.71253 59.2973 6.32595C59.8648 6.92404 60.2941 7.60647 60.5855 8.37325C60.8769 9.1247 61.0226 9.89148 61.0226 10.6736V11.0877C61.0226 11.8698 60.8769 12.6365 60.5855 13.388C60.3095 14.1394 59.8878 14.8219 59.3203 15.4353C58.7683 16.0334 58.0858 16.5165 57.273 16.8845C56.4603 17.2526 55.5171 17.4366 54.4436 17.4366ZM54.4436 15.4583C55.3638 15.4583 56.1459 15.2589 56.79 14.8602C57.4494 14.4461 57.9478 13.8941 58.2852 13.204C58.6379 12.5139 58.8143 11.7394 58.8143 10.8806C58.8143 10.0065 58.6379 9.22438 58.2852 8.53428C57.9325 7.84417 57.4264 7.29976 56.767 6.90103C56.1229 6.50231 55.3484 6.30295 54.4436 6.30295C53.5542 6.30295 52.7797 6.50231 52.1203 6.90103C51.4608 7.29976 50.9548 7.84417 50.6021 8.53428C50.2493 9.22438 50.073 10.0065 50.073 10.8806C50.073 11.7394 50.2417 12.5139 50.5791 13.204C50.9318 13.8941 51.4302 14.4461 52.0743 14.8602C52.7337 15.2589 53.5235 15.4583 54.4436 15.4583ZM64.33 17.0225V4.73872H66.0783V9.79946H65.9863C65.9863 8.0052 66.3773 6.694 67.1595 5.86588C67.9569 5.02243 69.1454 4.6007 70.725 4.6007H71.139V6.57899H70.3569C69.1301 6.57899 68.1869 6.9087 67.5275 7.56813C66.8681 8.21223 66.5384 9.1477 66.5384 10.3745V17.0225H64.33ZM78.852 17.4366C77.7785 17.4366 76.8507 17.2526 76.0686 16.8845C75.2865 16.5165 74.6501 16.0334 74.1593 15.4353C73.6686 14.8219 73.3005 14.1394 73.0552 13.388C72.8251 12.6365 72.7101 11.8698 72.7101 11.0877V10.6736C72.7101 9.87614 72.8251 9.10169 73.0552 8.35025C73.3005 7.5988 73.6686 6.92404 74.1593 6.32595C74.6501 5.71253 75.2712 5.22946 76.0226 4.87674C76.7894 4.50868 77.6865 4.32466 78.714 4.32466C80.0482 4.32466 81.1447 4.61603 82.0035 5.19878C82.8776 5.7662 83.5217 6.50231 83.9358 7.40711C84.3652 8.31191 84.5799 9.27805 84.5799 10.3055V11.2947H73.6762V9.63844H82.9696L82.4635 10.5356C82.4635 9.66144 82.3255 8.91 82.0495 8.28124C81.7734 7.63714 81.3594 7.13874 80.8073 6.78602C80.2552 6.4333 79.5574 6.25694 78.714 6.25694C77.8399 6.25694 77.1114 6.4563 76.5287 6.85503C75.9613 7.25375 75.5319 7.79817 75.2405 8.48827C74.9644 9.17837 74.8264 9.97582 74.8264 10.8806C74.8264 11.7547 74.9644 12.5445 75.2405 13.25C75.5319 13.9401 75.9766 14.4922 76.5747 14.9062C77.1728 15.3049 77.9319 15.5043 78.852 15.5043C79.8182 15.5043 80.6003 15.2896 81.1984 14.8602C81.8118 14.4308 82.1798 13.9324 82.3025 13.365H84.3728C84.2041 14.2084 83.8668 14.9369 83.3607 15.5503C82.8546 16.1637 82.2182 16.6315 81.4514 16.9535C80.6846 17.2756 79.8182 17.4366 78.852 17.4366ZM98.2173 17.4366C97.1591 17.4366 96.239 17.2526 95.4569 16.8845C94.6901 16.5165 94.0537 16.0257 93.5476 15.4123C93.0415 14.7835 92.6581 14.0934 92.3974 13.342C92.152 12.5905 92.0294 11.8391 92.0294 11.0877V10.6736C92.0294 9.89148 92.152 9.1247 92.3974 8.37325C92.6581 7.62181 93.0415 6.94704 93.5476 6.34895C94.069 5.73553 94.7131 5.24479 95.4799 4.87674C96.2466 4.50868 97.1438 4.32466 98.1713 4.32466C99.1987 4.32466 100.119 4.51635 100.932 4.89974C101.76 5.28313 102.419 5.82754 102.91 6.53298C103.416 7.22308 103.7 8.04354 103.761 8.99434H101.645C101.537 8.22756 101.185 7.59114 100.587 7.08506C99.9885 6.56365 99.1834 6.30295 98.1713 6.30295C97.2971 6.30295 96.5687 6.50231 95.9859 6.90103C95.4032 7.29976 94.9661 7.84417 94.6747 8.53428C94.3834 9.22438 94.2377 10.0065 94.2377 10.8806C94.2377 11.7241 94.3834 12.4985 94.6747 13.204C94.9661 13.8941 95.4032 14.4461 95.9859 14.8602C96.584 15.2589 97.3278 15.4583 98.2173 15.4583C98.9074 15.4583 99.5055 15.3356 100.012 15.0902C100.518 14.8449 100.924 14.5152 101.231 14.1011C101.537 13.687 101.721 13.2193 101.783 12.6979H103.899C103.853 13.664 103.569 14.4998 103.048 15.2053C102.542 15.9107 101.867 16.4628 101.024 16.8615C100.196 17.2449 99.2601 17.4366 98.2173 17.4366ZM112.559 17.4366C111.485 17.4366 110.542 17.2526 109.729 16.8845C108.916 16.5165 108.226 16.0334 107.659 15.4353C107.107 14.8219 106.685 14.1394 106.394 13.388C106.118 12.6365 105.98 11.8698 105.98 11.0877V10.6736C105.98 9.89148 106.125 9.1247 106.417 8.37325C106.708 7.60647 107.137 6.92404 107.705 6.32595C108.272 5.71253 108.962 5.22946 109.775 4.87674C110.588 4.50868 111.516 4.32466 112.559 4.32466C113.601 4.32466 114.529 4.50868 115.342 4.87674C116.155 5.22946 116.845 5.71253 117.412 6.32595C117.98 6.92404 118.409 7.60647 118.701 8.37325C118.992 9.1247 119.138 9.89148 119.138 10.6736V11.0877C119.138 11.8698 118.992 12.6365 118.701 13.388C118.424 14.1394 118.003 14.8219 117.435 15.4353C116.883 16.0334 116.201 16.5165 115.388 16.8845C114.575 17.2526 113.632 17.4366 112.559 17.4366ZM112.559 15.4583C113.479 15.4583 114.261 15.2589 114.905 14.8602C115.564 14.4461 116.063 13.8941 116.4 13.204C116.753 12.5139 116.929 11.7394 116.929 10.8806C116.929 10.0065 116.753 9.22438 116.4 8.53428C116.047 7.84417 115.541 7.29976 114.882 6.90103C114.238 6.50231 113.463 6.30295 112.559 6.30295C111.669 6.30295 110.895 6.50231 110.235 6.90103C109.576 7.29976 109.07 7.84417 108.717 8.53428C108.364 9.22438 108.188 10.0065 108.188 10.8806C108.188 11.7394 108.357 12.5139 108.694 13.204C109.047 13.8941 109.545 14.4461 110.189 14.8602C110.849 15.2589 111.638 15.4583 112.559 15.4583ZM122.445 17.0225V4.73872H124.193V10.0065H123.917C123.917 8.81032 124.071 7.79817 124.377 6.97005C124.699 6.12659 125.175 5.48249 125.804 5.03776C126.432 4.59303 127.23 4.37066 128.196 4.37066H128.288C129.254 4.37066 130.051 4.59303 130.68 5.03776C131.324 5.48249 131.8 6.12659 132.106 6.97005C132.413 7.79817 132.567 8.81032 132.567 10.0065H131.922C131.922 8.81032 132.083 7.79817 132.406 6.97005C132.728 6.12659 133.203 5.48249 133.832 5.03776C134.476 4.59303 135.281 4.37066 136.247 4.37066H136.339C137.305 4.37066 138.11 4.59303 138.754 5.03776C139.399 5.48249 139.874 6.12659 140.181 6.97005C140.503 7.79817 140.664 8.81032 140.664 10.0065V17.0225H138.455V9.52342C138.455 8.52661 138.21 7.75983 137.719 7.22308C137.229 6.671 136.546 6.39496 135.672 6.39496C134.767 6.39496 134.039 6.68634 133.487 7.26909C132.935 7.83651 132.659 8.63396 132.659 9.66144V17.0225H130.45V9.52342C130.45 8.52661 130.205 7.75983 129.714 7.22308C129.223 6.671 128.541 6.39496 127.667 6.39496C126.762 6.39496 126.034 6.68634 125.481 7.26909C124.929 7.83651 124.653 8.63396 124.653 9.66144V17.0225H122.445ZM144.707 21.6232V4.73872H146.455V10.0525L146.041 10.0065C146.118 8.68763 146.394 7.61414 146.869 6.78602C147.36 5.94256 147.997 5.32147 148.779 4.92274C149.561 4.52402 150.412 4.32466 151.332 4.32466C152.222 4.32466 153.027 4.49335 153.747 4.83073C154.484 5.16811 155.112 5.62818 155.634 6.21093C156.155 6.79369 156.554 7.46845 156.83 8.23523C157.106 9.00201 157.244 9.8148 157.244 10.6736V11.0877C157.244 11.9464 157.098 12.7592 156.807 13.526C156.516 14.2928 156.101 14.9676 155.565 15.5503C155.043 16.1331 154.415 16.5931 153.678 16.9305C152.958 17.2679 152.16 17.4366 151.286 17.4366C150.412 17.4366 149.576 17.2449 148.779 16.8615C147.981 16.4781 147.322 15.857 146.8 14.9982C146.279 14.1394 145.98 13.0123 145.903 11.6167L146.915 13.457V21.6232H144.707ZM150.941 15.5043C151.769 15.5043 152.49 15.3126 153.103 14.9292C153.717 14.5305 154.192 13.9861 154.53 13.296C154.867 12.5905 155.036 11.7854 155.036 10.8806C155.036 9.96049 154.867 9.15537 154.53 8.46527C154.192 7.77516 153.717 7.23842 153.103 6.85503C152.49 6.4563 151.769 6.25694 150.941 6.25694C150.205 6.25694 149.522 6.42563 148.894 6.76301C148.265 7.08506 147.759 7.56047 147.376 8.18923C147.007 8.80265 146.823 9.54642 146.823 10.4206V11.4787C146.823 12.3222 147.015 13.0429 147.399 13.641C147.782 14.2391 148.288 14.6992 148.917 15.0212C149.545 15.3433 150.22 15.5043 150.941 15.5043ZM167.997 17.0225V13.342H167.629V9.08636C167.629 8.2429 167.407 7.60647 166.962 7.17708C166.532 6.74768 165.896 6.53298 165.053 6.53298C164.577 6.53298 164.086 6.54065 163.58 6.55598C163.074 6.57132 162.591 6.58666 162.131 6.60199C161.671 6.61733 161.272 6.64033 160.935 6.671V4.73872C161.272 4.70805 161.625 4.68504 161.993 4.66971C162.376 4.63904 162.768 4.6237 163.166 4.6237C163.565 4.60836 163.948 4.6007 164.316 4.6007C165.574 4.6007 166.601 4.75405 167.399 5.06076C168.196 5.35214 168.787 5.83521 169.17 6.50998C169.554 7.18474 169.745 8.09721 169.745 9.24738V17.0225H167.997ZM163.971 17.3446C163.051 17.3446 162.254 17.1912 161.579 16.8845C160.92 16.5625 160.406 16.1024 160.038 15.5043C159.685 14.9062 159.509 14.1854 159.509 13.342C159.509 12.4679 159.7 11.7394 160.084 11.1567C160.483 10.5739 161.058 10.1368 161.809 9.84547C162.56 9.53876 163.465 9.3854 164.523 9.3854H167.859V11.0416H164.431C163.542 11.0416 162.86 11.2563 162.384 11.6857C161.909 12.1151 161.671 12.6672 161.671 13.342C161.671 14.0167 161.909 14.5612 162.384 14.9752C162.86 15.3893 163.542 15.5963 164.431 15.5963C164.953 15.5963 165.451 15.5043 165.927 15.3203C166.402 15.1209 166.793 14.7989 167.1 14.3541C167.422 13.8941 167.598 13.2653 167.629 12.4679L168.227 13.342C168.15 14.2161 167.936 14.9522 167.583 15.5503C167.246 16.1331 166.77 16.5778 166.157 16.8845C165.559 17.1912 164.83 17.3446 163.971 17.3446ZM173.798 17.0225V4.73872H175.547V10.0065H175.271C175.271 8.79498 175.432 7.77516 175.754 6.94704C176.091 6.10358 176.597 5.46716 177.272 5.03776C177.947 4.59303 178.798 4.37066 179.825 4.37066H179.917C181.466 4.37066 182.609 4.85373 183.345 5.81988C184.096 6.78602 184.472 8.18156 184.472 10.0065V17.0225H182.264V9.54642C182.264 8.59562 181.995 7.83651 181.458 7.26909C180.922 6.68634 180.186 6.39496 179.25 6.39496C178.284 6.39496 177.502 6.694 176.904 7.29209C176.306 7.89018 176.007 8.68763 176.007 9.68445V17.0225H173.798ZM189.11 17.0225V4.73872H191.319V17.0225H189.11ZM187.224 6.48697V4.73872H191.319V6.48697H187.224ZM189.732 2.76043C189.241 2.76043 188.873 2.63007 188.627 2.36937C188.397 2.10866 188.282 1.77895 188.282 1.38022C188.282 0.981497 188.397 0.651781 188.627 0.391076C188.873 0.130372 189.241 1.93147e-05 189.732 1.93147e-05C190.222 1.93147e-05 190.583 0.130372 190.813 0.391076C191.058 0.651781 191.181 0.981497 191.181 1.38022C191.181 1.77895 191.058 2.10866 190.813 2.36937C190.583 2.63007 190.222 2.76043 189.732 2.76043ZM200.81 17.4366C199.737 17.4366 198.809 17.2526 198.027 16.8845C197.245 16.5165 196.608 16.0334 196.118 15.4353C195.627 14.8219 195.259 14.1394 195.014 13.388C194.784 12.6365 194.668 11.8698 194.668 11.0877V10.6736C194.668 9.87614 194.784 9.10169 195.014 8.35025C195.259 7.5988 195.627 6.92404 196.118 6.32595C196.608 5.71253 197.23 5.22946 197.981 4.87674C198.748 4.50868 199.645 4.32466 200.672 4.32466C202.007 4.32466 203.103 4.61603 203.962 5.19878C204.836 5.7662 205.48 6.50231 205.894 7.40711C206.324 8.31191 206.538 9.27805 206.538 10.3055V11.2947H195.635V9.63844H204.928L204.422 10.5356C204.422 9.66144 204.284 8.91 204.008 8.28124C203.732 7.63714 203.318 7.13874 202.766 6.78602C202.214 6.4333 201.516 6.25694 200.672 6.25694C199.798 6.25694 199.07 6.4563 198.487 6.85503C197.92 7.25375 197.49 7.79817 197.199 8.48827C196.923 9.17837 196.785 9.97582 196.785 10.8806C196.785 11.7547 196.923 12.5445 197.199 13.25C197.49 13.9401 197.935 14.4922 198.533 14.9062C199.131 15.3049 199.89 15.5043 200.81 15.5043C201.777 15.5043 202.559 15.2896 203.157 14.8602C203.77 14.4308 204.138 13.9324 204.261 13.365H206.331C206.163 14.2084 205.825 14.9369 205.319 15.5503C204.813 16.1637 204.177 16.6315 203.41 16.9535C202.643 17.2756 201.777 17.4366 200.81 17.4366ZM213.699 17.3906C212.089 17.3906 210.839 17.0455 209.95 16.3554C209.076 15.6653 208.623 14.7222 208.593 13.526H210.663C210.694 14.0014 210.931 14.4538 211.376 14.8832C211.836 15.2973 212.61 15.5043 213.699 15.5043C214.681 15.5043 215.432 15.3126 215.954 14.9292C216.475 14.5305 216.736 14.0474 216.736 13.48C216.736 12.9739 216.544 12.5829 216.161 12.3068C215.777 12.0155 215.156 11.8238 214.297 11.7317L212.963 11.5937C211.798 11.471 210.847 11.126 210.111 10.5586C209.375 9.97582 209.007 9.16303 209.007 8.12021C209.007 7.3381 209.206 6.671 209.605 6.11892C210.003 5.5515 210.556 5.12211 211.261 4.83073C211.966 4.52402 212.779 4.37066 213.699 4.37066C215.08 4.37066 216.199 4.67737 217.058 5.2908C217.917 5.90422 218.361 6.81669 218.392 8.0282H216.322C216.306 7.53746 216.076 7.1234 215.632 6.78602C215.202 6.4333 214.558 6.25694 213.699 6.25694C212.841 6.25694 212.189 6.4333 211.744 6.78602C211.299 7.13874 211.077 7.58347 211.077 8.12021C211.077 8.58028 211.23 8.94834 211.537 9.22438C211.859 9.50042 212.38 9.67678 213.101 9.75346L214.435 9.89148C215.754 10.0295 216.812 10.3975 217.61 10.9956C218.407 11.5784 218.806 12.4065 218.806 13.48C218.806 14.2468 218.584 14.9292 218.139 15.5273C217.71 16.1101 217.111 16.5701 216.345 16.9075C215.578 17.2296 214.696 17.3906 213.699 17.3906ZM222.035 20.6341L220.264 19.967L222.403 14.0321L224.22 14.7222L222.035 20.6341ZM240.467 17.0225V13.342H240.099V9.08636C240.099 8.2429 239.876 7.60647 239.431 7.17708C239.002 6.74768 238.366 6.53298 237.522 6.53298C237.047 6.53298 236.556 6.54065 236.05 6.55598C235.544 6.57132 235.061 6.58666 234.601 6.60199C234.141 6.61733 233.742 6.64033 233.405 6.671V4.73872C233.742 4.70805 234.095 4.68504 234.463 4.66971C234.846 4.63904 235.237 4.6237 235.636 4.6237C236.035 4.60836 236.418 4.6007 236.786 4.6007C238.044 4.6007 239.071 4.75405 239.869 5.06076C240.666 5.35214 241.256 5.83521 241.64 6.50998C242.023 7.18474 242.215 8.09721 242.215 9.24738V17.0225H240.467ZM236.441 17.3446C235.521 17.3446 234.723 17.1912 234.049 16.8845C233.389 16.5625 232.875 16.1024 232.507 15.5043C232.155 14.9062 231.978 14.1854 231.978 13.342C231.978 12.4679 232.17 11.7394 232.553 11.1567C232.952 10.5739 233.527 10.1368 234.279 9.84547C235.03 9.53876 235.935 9.3854 236.993 9.3854H240.329V11.0416H236.901C236.012 11.0416 235.329 11.2563 234.854 11.6857C234.378 12.1151 234.141 12.6672 234.141 13.342C234.141 14.0167 234.378 14.5612 234.854 14.9752C235.329 15.3893 236.012 15.5963 236.901 15.5963C237.423 15.5963 237.921 15.5043 238.396 15.3203C238.872 15.1209 239.263 14.7989 239.569 14.3541C239.892 13.8941 240.068 13.2653 240.099 12.4679L240.697 13.342C240.62 14.2161 240.405 14.9522 240.053 15.5503C239.715 16.1331 239.24 16.5778 238.626 16.8845C238.028 17.1912 237.3 17.3446 236.441 17.3446ZM246.268 21.6232V4.73872H248.016V10.0525L247.602 10.0065C247.679 8.68763 247.955 7.61414 248.43 6.78602C248.921 5.94256 249.557 5.32147 250.34 4.92274C251.122 4.52402 251.973 4.32466 252.893 4.32466C253.782 4.32466 254.588 4.49335 255.308 4.83073C256.044 5.16811 256.673 5.62818 257.195 6.21093C257.716 6.79369 258.115 7.46845 258.391 8.23523C258.667 9.00201 258.805 9.8148 258.805 10.6736V11.0877C258.805 11.9464 258.659 12.7592 258.368 13.526C258.076 14.2928 257.662 14.9676 257.126 15.5503C256.604 16.1331 255.975 16.5931 255.239 16.9305C254.519 17.2679 253.721 17.4366 252.847 17.4366C251.973 17.4366 251.137 17.2449 250.34 16.8615C249.542 16.4781 248.883 15.857 248.361 14.9982C247.84 14.1394 247.541 13.0123 247.464 11.6167L248.476 13.457V21.6232H246.268ZM252.502 15.5043C253.33 15.5043 254.051 15.3126 254.664 14.9292C255.278 14.5305 255.753 13.9861 256.09 13.296C256.428 12.5905 256.596 11.7854 256.596 10.8806C256.596 9.96049 256.428 9.15537 256.09 8.46527C255.753 7.77516 255.278 7.23842 254.664 6.85503C254.051 6.4563 253.33 6.25694 252.502 6.25694C251.766 6.25694 251.083 6.42563 250.455 6.76301C249.826 7.08506 249.32 7.56047 248.936 8.18923C248.568 8.80265 248.384 9.54642 248.384 10.4206V11.4787C248.384 12.3222 248.576 13.0429 248.959 13.641C249.343 14.2391 249.849 14.6992 250.478 15.0212C251.106 15.3433 251.781 15.5043 252.502 15.5043ZM262.128 21.6232V4.73872H263.876V10.0525L263.462 10.0065C263.539 8.68763 263.815 7.61414 264.29 6.78602C264.781 5.94256 265.417 5.32147 266.199 4.92274C266.981 4.52402 267.833 4.32466 268.753 4.32466C269.642 4.32466 270.447 4.49335 271.168 4.83073C271.904 5.16811 272.533 5.62818 273.054 6.21093C273.576 6.79369 273.974 7.46845 274.251 8.23523C274.527 9.00201 274.665 9.8148 274.665 10.6736V11.0877C274.665 11.9464 274.519 12.7592 274.228 13.526C273.936 14.2928 273.522 14.9676 272.985 15.5503C272.464 16.1331 271.835 16.5931 271.099 16.9305C270.378 17.2679 269.581 17.4366 268.707 17.4366C267.833 17.4366 266.997 17.2449 266.199 16.8615C265.402 16.4781 264.742 15.857 264.221 14.9982C263.7 14.1394 263.401 13.0123 263.324 11.6167L264.336 13.457V21.6232H262.128ZM268.362 15.5043C269.19 15.5043 269.911 15.3126 270.524 14.9292C271.137 14.5305 271.613 13.9861 271.95 13.296C272.288 12.5905 272.456 11.7854 272.456 10.8806C272.456 9.96049 272.288 9.15537 271.95 8.46527C271.613 7.77516 271.137 7.23842 270.524 6.85503C269.911 6.4563 269.19 6.25694 268.362 6.25694C267.626 6.25694 266.943 6.42563 266.314 6.76301C265.686 7.08506 265.18 7.56047 264.796 8.18923C264.428 8.80265 264.244 9.54642 264.244 10.4206V11.4787C264.244 12.3222 264.436 13.0429 264.819 13.641C265.203 14.2391 265.709 14.6992 266.337 15.0212C266.966 15.3433 267.641 15.5043 268.362 15.5043ZM278.125 17.0225V0.230053H280.334V17.0225H278.125ZM276.423 1.97831V0.230053H280.334V1.97831H276.423ZM283.741 21.8072V19.8289H285.513C286.034 19.8289 286.471 19.7599 286.824 19.6219C287.192 19.4992 287.491 19.2845 287.721 18.9778C287.966 18.6711 288.166 18.2647 288.319 17.7586L292.184 4.73872H294.346L290.251 18.3337C290.006 19.1465 289.661 19.8059 289.216 20.312C288.771 20.8334 288.227 21.2091 287.583 21.4392C286.954 21.6845 286.218 21.8072 285.375 21.8072H283.741ZM287.491 16.7465V14.9062H290.159V16.7465H287.491ZM287.261 16.7465L282.867 4.73872H285.122L289.331 16.7465H287.261ZM307.168 17.1605C306.248 17.1605 305.451 17.0302 304.776 16.7695C304.117 16.5088 303.603 16.0641 303.235 15.4353C302.882 14.7912 302.706 13.9247 302.706 12.8359V1.01217H304.822V13.1119C304.822 13.7714 304.998 14.2851 305.351 14.6532C305.719 15.0059 306.233 15.1823 306.892 15.1823H309.055V17.1605H307.168ZM300.589 6.39496V4.73872H309.055V6.39496H300.589ZM317.747 17.4366C316.674 17.4366 315.73 17.2526 314.918 16.8845C314.105 16.5165 313.415 16.0334 312.847 15.4353C312.295 14.8219 311.874 14.1394 311.582 13.388C311.306 12.6365 311.168 11.8698 311.168 11.0877V10.6736C311.168 9.89148 311.314 9.1247 311.605 8.37325C311.897 7.60647 312.326 6.92404 312.893 6.32595C313.461 5.71253 314.151 5.22946 314.964 4.87674C315.776 4.50868 316.704 4.32466 317.747 4.32466C318.79 4.32466 319.718 4.50868 320.53 4.87674C321.343 5.22946 322.033 5.71253 322.601 6.32595C323.168 6.92404 323.598 7.60647 323.889 8.37325C324.18 9.1247 324.326 9.89148 324.326 10.6736V11.0877C324.326 11.8698 324.18 12.6365 323.889 13.388C323.613 14.1394 323.191 14.8219 322.624 15.4353C322.072 16.0334 321.389 16.5165 320.576 16.8845C319.764 17.2526 318.821 17.4366 317.747 17.4366ZM317.747 15.4583C318.667 15.4583 319.449 15.2589 320.093 14.8602C320.753 14.4461 321.251 13.8941 321.589 13.204C321.941 12.5139 322.118 11.7394 322.118 10.8806C322.118 10.0065 321.941 9.22438 321.589 8.53428C321.236 7.84417 320.73 7.29976 320.07 6.90103C319.426 6.50231 318.652 6.30295 317.747 6.30295C316.858 6.30295 316.083 6.50231 315.424 6.90103C314.764 7.29976 314.258 7.84417 313.905 8.53428C313.553 9.22438 313.376 10.0065 313.376 10.8806C313.376 11.7394 313.545 12.5139 313.882 13.204C314.235 13.8941 314.734 14.4461 315.378 14.8602C316.037 15.2589 316.827 15.4583 317.747 15.4583ZM332.868 17.0225V4.73872H334.616V9.79946H334.524C334.524 8.0052 334.915 6.694 335.697 5.86588C336.494 5.02243 337.683 4.6007 339.263 4.6007H339.677V6.57899H338.895C337.668 6.57899 336.725 6.9087 336.065 7.56813C335.406 8.21223 335.076 9.1477 335.076 10.3745V17.0225H332.868ZM347.39 17.4366C346.316 17.4366 345.388 17.2526 344.606 16.8845C343.824 16.5165 343.188 16.0334 342.697 15.4353C342.206 14.8219 341.838 14.1394 341.593 13.388C341.363 12.6365 341.248 11.8698 341.248 11.0877V10.6736C341.248 9.87614 341.363 9.10169 341.593 8.35025C341.838 7.5988 342.206 6.92404 342.697 6.32595C343.188 5.71253 343.809 5.22946 344.56 4.87674C345.327 4.50868 346.224 4.32466 347.252 4.32466C348.586 4.32466 349.682 4.61603 350.541 5.19878C351.415 5.7662 352.059 6.50231 352.473 7.40711C352.903 8.31191 353.117 9.27805 353.117 10.3055V11.2947H342.214V9.63844H351.507L351.001 10.5356C351.001 9.66144 350.863 8.91 350.587 8.28124C350.311 7.63714 349.897 7.13874 349.345 6.78602C348.793 6.4333 348.095 6.25694 347.252 6.25694C346.377 6.25694 345.649 6.4563 345.066 6.85503C344.499 7.25375 344.069 7.79817 343.778 8.48827C343.502 9.17837 343.364 9.97582 343.364 10.8806C343.364 11.7547 343.502 12.5445 343.778 13.25C344.069 13.9401 344.514 14.4922 345.112 14.9062C345.71 15.3049 346.469 15.5043 347.39 15.5043C348.356 15.5043 349.138 15.2896 349.736 14.8602C350.349 14.4308 350.717 13.9324 350.84 13.365H352.91C352.742 14.2084 352.404 14.9369 351.898 15.5503C351.392 16.1637 350.756 16.6315 349.989 16.9535C349.222 17.2756 348.356 17.4366 347.39 17.4366ZM363.683 17.0225V13.342H363.315V9.08636C363.315 8.2429 363.093 7.60647 362.648 7.17708C362.218 6.74768 361.582 6.53298 360.739 6.53298C360.263 6.53298 359.772 6.54065 359.266 6.55598C358.76 6.57132 358.277 6.58666 357.817 6.60199C357.357 6.61733 356.958 6.64033 356.621 6.671V4.73872C356.958 4.70805 357.311 4.68504 357.679 4.66971C358.063 4.63904 358.454 4.6237 358.852 4.6237C359.251 4.60836 359.634 4.6007 360.002 4.6007C361.26 4.6007 362.287 4.75405 363.085 5.06076C363.882 5.35214 364.473 5.83521 364.856 6.50998C365.24 7.18474 365.431 8.09721 365.431 9.24738V17.0225H363.683ZM359.657 17.3446C358.737 17.3446 357.94 17.1912 357.265 16.8845C356.606 16.5625 356.092 16.1024 355.724 15.5043C355.371 14.9062 355.195 14.1854 355.195 13.342C355.195 12.4679 355.386 11.7394 355.77 11.1567C356.169 10.5739 356.744 10.1368 357.495 9.84547C358.247 9.53876 359.151 9.3854 360.209 9.3854H363.545V11.0416H360.117C359.228 11.0416 358.546 11.2563 358.07 11.6857C357.595 12.1151 357.357 12.6672 357.357 13.342C357.357 14.0167 357.595 14.5612 358.07 14.9752C358.546 15.3893 359.228 15.5963 360.117 15.5963C360.639 15.5963 361.137 15.5043 361.613 15.3203C362.088 15.1209 362.479 14.7989 362.786 14.3541C363.108 13.8941 363.284 13.2653 363.315 12.4679L363.913 13.342C363.836 14.2161 363.622 14.9522 363.269 15.5503C362.932 16.1331 362.456 16.5778 361.843 16.8845C361.245 17.1912 360.516 17.3446 359.657 17.3446ZM369.622 17.0225V0.230053H371.831V17.0225H369.622ZM367.92 1.97831V0.230053H371.831V1.97831H367.92ZM381.301 17.0225V4.73872H383.049V9.79946H382.957C382.957 8.0052 383.348 6.694 384.13 5.86588C384.927 5.02243 386.116 4.6007 387.695 4.6007H388.11V6.57899H387.327C386.101 6.57899 385.157 6.9087 384.498 7.56813C383.839 8.21223 383.509 9.1477 383.509 10.3745V17.0225H381.301ZM396.26 17.4366C395.186 17.4366 394.243 17.2526 393.43 16.8845C392.617 16.5165 391.927 16.0334 391.36 15.4353C390.808 14.8219 390.386 14.1394 390.095 13.388C389.819 12.6365 389.681 11.8698 389.681 11.0877V10.6736C389.681 9.89148 389.826 9.1247 390.118 8.37325C390.409 7.60647 390.838 6.92404 391.406 6.32595C391.973 5.71253 392.663 5.22946 393.476 4.87674C394.289 4.50868 395.217 4.32466 396.26 4.32466C397.302 4.32466 398.23 4.50868 399.043 4.87674C399.856 5.22946 400.546 5.71253 401.113 6.32595C401.681 6.92404 402.11 7.60647 402.401 8.37325C402.693 9.1247 402.839 9.89148 402.839 10.6736V11.0877C402.839 11.8698 402.693 12.6365 402.401 13.388C402.125 14.1394 401.704 14.8219 401.136 15.4353C400.584 16.0334 399.902 16.5165 399.089 16.8845C398.276 17.2526 397.333 17.4366 396.26 17.4366ZM396.26 15.4583C397.18 15.4583 397.962 15.2589 398.606 14.8602C399.265 14.4461 399.764 13.8941 400.101 13.204C400.454 12.5139 400.63 11.7394 400.63 10.8806C400.63 10.0065 400.454 9.22438 400.101 8.53428C399.748 7.84417 399.242 7.29976 398.583 6.90103C397.939 6.50231 397.164 6.30295 396.26 6.30295C395.37 6.30295 394.596 6.50231 393.936 6.90103C393.277 7.29976 392.771 7.84417 392.418 8.53428C392.065 9.22438 391.889 10.0065 391.889 10.8806C391.889 11.7394 392.058 12.5139 392.395 13.204C392.748 13.8941 393.246 14.4461 393.89 14.8602C394.55 15.2589 395.339 15.4583 396.26 15.4583ZM406.284 17.0225V0.230053H408.492V17.0225H406.284ZM404.582 1.97831V0.230053H408.492V1.97831H404.582ZM417.95 17.4366C416.876 17.4366 415.948 17.2526 415.166 16.8845C414.384 16.5165 413.748 16.0334 413.257 15.4353C412.766 14.8219 412.398 14.1394 412.153 13.388C411.923 12.6365 411.808 11.8698 411.808 11.0877V10.6736C411.808 9.87614 411.923 9.10169 412.153 8.35025C412.398 7.5988 412.766 6.92404 413.257 6.32595C413.748 5.71253 414.369 5.22946 415.12 4.87674C415.887 4.50868 416.784 4.32466 417.812 4.32466C419.146 4.32466 420.242 4.61603 421.101 5.19878C421.975 5.7662 422.619 6.50231 423.034 7.40711C423.463 8.31191 423.678 9.27805 423.678 10.3055V11.2947H412.774V9.63844H422.067L421.561 10.5356C421.561 9.66144 421.423 8.91 421.147 8.28124C420.871 7.63714 420.457 7.13874 419.905 6.78602C419.353 6.4333 418.655 6.25694 417.812 6.25694C416.938 6.25694 416.209 6.4563 415.626 6.85503C415.059 7.25375 414.63 7.79817 414.338 8.48827C414.062 9.17837 413.924 9.97582 413.924 10.8806C413.924 11.7547 414.062 12.5445 414.338 13.25C414.63 13.9401 415.074 14.4922 415.672 14.9062C416.271 15.3049 417.03 15.5043 417.95 15.5043C418.916 15.5043 419.698 15.2896 420.296 14.8602C420.91 14.4308 421.278 13.9324 421.4 13.365H423.471C423.302 14.2084 422.965 14.9369 422.458 15.5503C421.952 16.1637 421.316 16.6315 420.549 16.9535C419.782 17.2756 418.916 17.4366 417.95 17.4366ZM430.839 17.3906C429.228 17.3906 427.979 17.0455 427.089 16.3554C426.215 15.6653 425.763 14.7222 425.732 13.526H427.802C427.833 14.0014 428.071 14.4538 428.515 14.8832C428.975 15.2973 429.75 15.5043 430.839 15.5043C431.82 15.5043 432.572 15.3126 433.093 14.9292C433.614 14.5305 433.875 14.0474 433.875 13.48C433.875 12.9739 433.683 12.5829 433.3 12.3068C432.917 12.0155 432.296 11.8238 431.437 11.7317L430.103 11.5937C428.937 11.471 427.986 11.126 427.25 10.5586C426.514 9.97582 426.146 9.16303 426.146 8.12021C426.146 7.3381 426.345 6.671 426.744 6.11892C427.143 5.5515 427.695 5.12211 428.4 4.83073C429.106 4.52402 429.919 4.37066 430.839 4.37066C432.219 4.37066 433.338 4.67737 434.197 5.2908C435.056 5.90422 435.501 6.81669 435.531 8.0282H433.461C433.446 7.53746 433.216 7.1234 432.771 6.78602C432.342 6.4333 431.697 6.25694 430.839 6.25694C429.98 6.25694 429.328 6.4333 428.883 6.78602C428.439 7.13874 428.216 7.58347 428.216 8.12021C428.216 8.58028 428.37 8.94834 428.676 9.22438C428.998 9.50042 429.52 9.67678 430.241 9.75346L431.575 9.89148C432.894 10.0295 433.952 10.3975 434.749 10.9956C435.547 11.5784 435.945 12.4065 435.945 13.48C435.945 14.2468 435.723 14.9292 435.278 15.5273C434.849 16.1101 434.251 16.5701 433.484 16.9075C432.717 17.2296 431.836 17.3906 430.839 17.3906ZM439.174 20.6341L437.403 19.967L439.542 14.0321L441.36 14.7222L439.174 20.6341ZM454.823 21.8072C454.255 21.8072 453.68 21.7842 453.097 21.7382C452.53 21.6922 451.986 21.6309 451.464 21.5542V19.6909C452.016 19.7676 452.591 19.8289 453.189 19.8749C453.803 19.9363 454.378 19.967 454.915 19.967C456.034 19.967 456.924 19.8136 457.583 19.5069C458.258 19.2155 458.741 18.7478 459.032 18.1037C459.339 17.4749 459.492 16.6621 459.492 15.6653V13.319L460.228 11.5707C460.182 12.8129 459.922 13.8481 459.446 14.6762C458.971 15.489 458.35 16.1024 457.583 16.5165C456.832 16.9152 455.996 17.1145 455.076 17.1145C454.217 17.1145 453.427 16.9535 452.706 16.6315C452.001 16.2941 451.387 15.834 450.866 15.2513C450.36 14.6685 449.961 14.0014 449.67 13.25C449.394 12.4832 449.256 11.6781 449.256 10.8346V10.4206C449.256 9.56176 449.401 8.76431 449.693 8.0282C449.984 7.27676 450.391 6.62499 450.912 6.07291C451.433 5.52083 452.055 5.09144 452.775 4.78472C453.511 4.47801 454.317 4.32466 455.191 4.32466C456.218 4.32466 457.123 4.54702 457.905 4.99175C458.687 5.42115 459.301 6.05758 459.745 6.90103C460.205 7.72916 460.458 8.74897 460.504 9.96049L459.86 9.98349V4.73872H461.609V15.5733C461.609 17.0455 461.379 18.234 460.918 19.1388C460.474 20.059 459.753 20.7337 458.756 21.1631C457.775 21.5925 456.464 21.8072 454.823 21.8072ZM455.49 15.0902C456.226 15.0902 456.893 14.9292 457.491 14.6072C458.104 14.2851 458.587 13.8251 458.94 13.227C459.308 12.6135 459.492 11.8851 459.492 11.0416V9.98349C459.492 9.15537 459.301 8.4576 458.917 7.89018C458.549 7.32276 458.066 6.89337 457.468 6.60199C456.87 6.31061 456.218 6.16493 455.513 6.16493C454.715 6.16493 454.01 6.34895 453.396 6.71701C452.783 7.08506 452.308 7.60647 451.97 8.28124C451.633 8.94067 451.464 9.72278 451.464 10.6276C451.464 11.5324 451.633 12.3222 451.97 12.9969C452.323 13.6717 452.798 14.1931 453.396 14.5612C454.01 14.9139 454.708 15.0902 455.49 15.0902ZM470.92 17.4366C469.847 17.4366 468.919 17.2526 468.137 16.8845C467.355 16.5165 466.719 16.0334 466.228 15.4353C465.737 14.8219 465.369 14.1394 465.124 13.388C464.894 12.6365 464.779 11.8698 464.779 11.0877V10.6736C464.779 9.87614 464.894 9.10169 465.124 8.35025C465.369 7.5988 465.737 6.92404 466.228 6.32595C466.719 5.71253 467.34 5.22946 468.091 4.87674C468.858 4.50868 469.755 4.32466 470.782 4.32466C472.117 4.32466 473.213 4.61603 474.072 5.19878C474.946 5.7662 475.59 6.50231 476.004 7.40711C476.434 8.31191 476.648 9.27805 476.648 10.3055V11.2947H465.745V9.63844H475.038L474.532 10.5356C474.532 9.66144 474.394 8.91 474.118 8.28124C473.842 7.63714 473.428 7.13874 472.876 6.78602C472.324 6.4333 471.626 6.25694 470.782 6.25694C469.908 6.25694 469.18 6.4563 468.597 6.85503C468.03 7.25375 467.6 7.79817 467.309 8.48827C467.033 9.17837 466.895 9.97582 466.895 10.8806C466.895 11.7547 467.033 12.5445 467.309 13.25C467.6 13.9401 468.045 14.4922 468.643 14.9062C469.241 15.3049 470 15.5043 470.92 15.5043C471.887 15.5043 472.669 15.2896 473.267 14.8602C473.88 14.4308 474.248 13.9324 474.371 13.365H476.441C476.273 14.2084 475.935 14.9369 475.429 15.5503C474.923 16.1637 474.287 16.6315 473.52 16.9535C472.753 17.2756 471.887 17.4366 470.92 17.4366ZM484.568 17.1605C483.648 17.1605 482.851 17.0302 482.176 16.7695C481.517 16.5088 481.003 16.0641 480.635 15.4353C480.282 14.7912 480.106 13.9247 480.106 12.8359V1.01217H482.222V13.1119C482.222 13.7714 482.399 14.2851 482.751 14.6532C483.119 15.0059 483.633 15.1823 484.292 15.1823H486.455V17.1605H484.568ZM477.99 6.39496V4.73872H486.455V6.39496H477.99ZM500.034 17.4366C498.961 17.4366 498.033 17.2526 497.251 16.8845C496.469 16.5165 495.832 16.0334 495.341 15.4353C494.851 14.8219 494.483 14.1394 494.237 13.388C494.007 12.6365 493.892 11.8698 493.892 11.0877V10.6736C493.892 9.87614 494.007 9.10169 494.237 8.35025C494.483 7.5988 494.851 6.92404 495.341 6.32595C495.832 5.71253 496.453 5.22946 497.205 4.87674C497.971 4.50868 498.869 4.32466 499.896 4.32466C501.23 4.32466 502.327 4.61603 503.186 5.19878C504.06 5.7662 504.704 6.50231 505.118 7.40711C505.547 8.31191 505.762 9.27805 505.762 10.3055V11.2947H494.858V9.63844H504.152L503.646 10.5356C503.646 9.66144 503.508 8.91 503.232 8.28124C502.956 7.63714 502.542 7.13874 501.989 6.78602C501.437 6.4333 500.74 6.25694 499.896 6.25694C499.022 6.25694 498.294 6.4563 497.711 6.85503C497.143 7.25375 496.714 7.79817 496.423 8.48827C496.147 9.17837 496.009 9.97582 496.009 10.8806C496.009 11.7547 496.147 12.5445 496.423 13.25C496.714 13.9401 497.159 14.4922 497.757 14.9062C498.355 15.3049 499.114 15.5043 500.034 15.5043C501 15.5043 501.782 15.2896 502.38 14.8602C502.994 14.4308 503.362 13.9324 503.485 13.365H505.555C505.386 14.2084 505.049 14.9369 504.543 15.5503C504.037 16.1637 503.4 16.6315 502.634 16.9535C501.867 17.2756 501 17.4366 500.034 17.4366ZM507.38 17.0225L511.774 10.5586L511.705 11.0186L507.587 4.73872H510.026L512.993 9.3624H513.315L516.122 4.73872H518.399L514.511 10.8576L514.58 10.4436L519.181 17.0225H516.743L513.292 12.0308H512.97L509.658 17.0225H507.38ZM521.725 21.6232V4.73872H523.473V10.0525L523.059 10.0065C523.135 8.68763 523.411 7.61414 523.887 6.78602C524.378 5.94256 525.014 5.32147 525.796 4.92274C526.578 4.52402 527.429 4.32466 528.35 4.32466C529.239 4.32466 530.044 4.49335 530.765 4.83073C531.501 5.16811 532.13 5.62818 532.651 6.21093C533.173 6.79369 533.571 7.46845 533.847 8.23523C534.123 9.00201 534.261 9.8148 534.261 10.6736V11.0877C534.261 11.9464 534.116 12.7592 533.824 13.526C533.533 14.2928 533.119 14.9676 532.582 15.5503C532.061 16.1331 531.432 16.5931 530.696 16.9305C529.975 17.2679 529.178 17.4366 528.303 17.4366C527.429 17.4366 526.594 17.2449 525.796 16.8615C524.999 16.4781 524.339 15.857 523.818 14.9982C523.296 14.1394 522.997 13.0123 522.921 11.6167L523.933 13.457V21.6232H521.725ZM527.958 15.5043C528.787 15.5043 529.507 15.3126 530.121 14.9292C530.734 14.5305 531.21 13.9861 531.547 13.296C531.884 12.5905 532.053 11.7854 532.053 10.8806C532.053 9.96049 531.884 9.15537 531.547 8.46527C531.21 7.77516 530.734 7.23842 530.121 6.85503C529.507 6.4563 528.787 6.25694 527.958 6.25694C527.222 6.25694 526.54 6.42563 525.911 6.76301C525.282 7.08506 524.776 7.56047 524.393 8.18923C524.025 8.80265 523.841 9.54642 523.841 10.4206V11.4787C523.841 12.3222 524.033 13.0429 524.416 13.641C524.799 14.2391 525.305 14.6992 525.934 15.0212C526.563 15.3433 527.238 15.5043 527.958 15.5043ZM542.806 17.4366C541.733 17.4366 540.805 17.2526 540.023 16.8845C539.241 16.5165 538.604 16.0334 538.113 15.4353C537.623 14.8219 537.255 14.1394 537.009 13.388C536.779 12.6365 536.664 11.8698 536.664 11.0877V10.6736C536.664 9.87614 536.779 9.10169 537.009 8.35025C537.255 7.5988 537.623 6.92404 538.113 6.32595C538.604 5.71253 539.225 5.22946 539.977 4.87674C540.743 4.50868 541.641 4.32466 542.668 4.32466C544.002 4.32466 545.099 4.61603 545.958 5.19878C546.832 5.7662 547.476 6.50231 547.89 7.40711C548.319 8.31191 548.534 9.27805 548.534 10.3055V11.2947H537.63V9.63844H546.924L546.418 10.5356C546.418 9.66144 546.28 8.91 546.004 8.28124C545.727 7.63714 545.313 7.13874 544.761 6.78602C544.209 6.4333 543.511 6.25694 542.668 6.25694C541.794 6.25694 541.065 6.4563 540.483 6.85503C539.915 7.25375 539.486 7.79817 539.195 8.48827C538.918 9.17837 538.78 9.97582 538.78 10.8806C538.78 11.7547 538.918 12.5445 539.195 13.25C539.486 13.9401 539.931 14.4922 540.529 14.9062C541.127 15.3049 541.886 15.5043 542.806 15.5043C543.772 15.5043 544.554 15.2896 545.152 14.8602C545.766 14.4308 546.134 13.9324 546.257 13.365H548.327C548.158 14.2084 547.821 14.9369 547.315 15.5503C546.809 16.1637 546.172 16.6315 545.405 16.9535C544.639 17.2756 543.772 17.4366 542.806 17.4366ZM551.669 17.0225V4.73872H553.418V9.79946H553.326C553.326 8.0052 553.717 6.694 554.499 5.86588C555.296 5.02243 556.485 4.6007 558.064 4.6007H558.478V6.57899H557.696C556.469 6.57899 555.526 6.9087 554.867 7.56813C554.207 8.21223 553.878 9.1477 553.878 10.3745V17.0225H551.669ZM566.114 17.1605C565.194 17.1605 564.396 17.0302 563.721 16.7695C563.062 16.5088 562.548 16.0641 562.18 15.4353C561.827 14.7912 561.651 13.9247 561.651 12.8359V1.01217H563.767V13.1119C563.767 13.7714 563.944 14.2851 564.296 14.6532C564.664 15.0059 565.178 15.1823 565.838 15.1823H568V17.1605H566.114ZM559.535 6.39496V4.73872H568V6.39496H559.535ZM152.373 46.0268V42.3463H152.005V38.0906C152.005 37.2472 151.783 36.6107 151.338 36.1813C150.909 35.7519 150.272 35.5373 149.429 35.5373C148.953 35.5373 148.463 35.5449 147.956 35.5603C147.45 35.5756 146.967 35.5909 146.507 35.6063C146.047 35.6216 145.648 35.6446 145.311 35.6753V33.743C145.648 33.7123 146.001 33.6893 146.369 33.674C146.753 33.6433 147.144 33.628 147.542 33.628C147.941 33.6126 148.324 33.605 148.693 33.605C149.95 33.605 150.978 33.7583 151.775 34.065C152.572 34.3564 153.163 34.8395 153.546 35.5142C153.93 36.189 154.121 37.1015 154.121 38.2517V46.0268H152.373ZM148.347 46.3488C147.427 46.3488 146.63 46.1955 145.955 45.8888C145.296 45.5667 144.782 45.1067 144.414 44.5086C144.061 43.9105 143.885 43.1897 143.885 42.3463C143.885 41.4721 144.077 40.7437 144.46 40.1609C144.859 39.5782 145.434 39.1411 146.185 38.8497C146.937 38.543 147.841 38.3897 148.9 38.3897H152.235V40.0459H148.808C147.918 40.0459 147.236 40.2606 146.76 40.69C146.285 41.1194 146.047 41.6715 146.047 42.3463C146.047 43.021 146.285 43.5654 146.76 43.9795C147.236 44.3936 147.918 44.6006 148.808 44.6006C149.329 44.6006 149.827 44.5086 150.303 44.3245C150.778 44.1252 151.169 43.8031 151.476 43.3584C151.798 42.8983 151.974 42.2696 152.005 41.4721L152.603 42.3463C152.526 43.2204 152.312 43.9565 151.959 44.5546C151.622 45.1373 151.146 45.5821 150.533 45.8888C149.935 46.1955 149.206 46.3488 148.347 46.3488ZM163.304 46.4409C162.43 46.4409 161.625 46.2798 160.889 45.9578C160.153 45.6357 159.509 45.1833 158.957 44.6006C158.42 44.0178 157.998 43.3431 157.691 42.5763C157.4 41.8095 157.254 40.9814 157.254 40.0919V39.6779C157.254 38.8037 157.4 37.9833 157.691 37.2165C157.983 36.4497 158.389 35.775 158.911 35.1922C159.447 34.6094 160.076 34.157 160.797 33.835C161.533 33.4976 162.346 33.3289 163.235 33.3289C164.171 33.3289 165.022 33.5283 165.789 33.927C166.555 34.3104 167.184 34.9162 167.675 35.7443C168.166 36.5724 168.442 37.6459 168.503 38.9648L167.583 37.4925V29.2343H169.791V46.0268H168.043V40.575H168.687C168.626 41.9705 168.334 43.1054 167.813 43.9795C167.291 44.8383 166.632 45.467 165.835 45.8658C165.052 46.2492 164.209 46.4409 163.304 46.4409ZM163.603 44.5086C164.355 44.5086 165.037 44.3399 165.651 44.0025C166.264 43.6651 166.755 43.182 167.123 42.5533C167.491 41.9092 167.675 41.1577 167.675 40.299V39.2408C167.675 38.3973 167.483 37.6842 167.1 37.1015C166.732 36.5034 166.233 36.051 165.605 35.7443C164.991 35.4222 164.316 35.2612 163.58 35.2612C162.767 35.2612 162.047 35.4529 161.418 35.8363C160.804 36.2197 160.321 36.7564 159.969 37.4465C159.631 38.1366 159.463 38.9494 159.463 39.8849C159.463 40.8204 159.639 41.6408 159.992 42.3463C160.344 43.0364 160.835 43.5731 161.464 43.9565C162.093 44.3245 162.806 44.5086 163.603 44.5086ZM176.657 46.0268L172.47 33.743H174.77L178.865 46.0268H176.657ZM177.209 46.0268V44.2785H179.877V46.0268H177.209ZM178.267 46.0268L181.832 33.743H183.995L180.36 46.0268H178.267ZM187.482 46.0268V33.743H189.69V46.0268H187.482ZM185.596 35.4912V33.743H189.69V35.4912H185.596ZM188.103 31.7647C187.612 31.7647 187.244 31.6343 186.999 31.3736C186.769 31.1129 186.654 30.7832 186.654 30.3845C186.654 29.9858 186.769 29.6561 186.999 29.3953C187.244 29.1346 187.612 29.0043 188.103 29.0043C188.594 29.0043 188.954 29.1346 189.184 29.3953C189.429 29.6561 189.552 29.9858 189.552 30.3845C189.552 30.7832 189.429 31.1129 189.184 31.3736C188.954 31.6343 188.594 31.7647 188.103 31.7647ZM199.228 46.4409C198.17 46.4409 197.249 46.2568 196.467 45.8888C195.701 45.5207 195.064 45.03 194.558 44.4166C194.052 43.7878 193.669 43.0977 193.408 42.3463C193.163 41.5948 193.04 40.8434 193.04 40.0919V39.6779C193.04 38.8957 193.163 38.129 193.408 37.3775C193.669 36.6261 194.052 35.9513 194.558 35.3532C195.079 34.7398 195.724 34.2491 196.49 33.881C197.257 33.513 198.154 33.3289 199.182 33.3289C200.209 33.3289 201.129 33.5206 201.942 33.904C202.77 34.2874 203.43 34.8318 203.92 35.5373C204.427 36.2274 204.71 37.0478 204.772 37.9986H202.655C202.548 37.2318 202.195 36.5954 201.597 36.0893C200.999 35.5679 200.194 35.3072 199.182 35.3072C198.308 35.3072 197.579 35.5066 196.996 35.9053C196.414 36.304 195.977 36.8484 195.685 37.5385C195.394 38.2286 195.248 39.0108 195.248 39.8849C195.248 40.7283 195.394 41.5028 195.685 42.2082C195.977 42.8983 196.414 43.4504 196.996 43.8645C197.595 44.2632 198.338 44.4626 199.228 44.4626C199.918 44.4626 200.516 44.3399 201.022 44.0945C201.528 43.8491 201.934 43.5194 202.241 43.1054C202.548 42.6913 202.732 42.2236 202.793 41.7022H204.91C204.864 42.6683 204.58 43.5041 204.058 44.2095C203.552 44.915 202.878 45.467 202.034 45.8658C201.206 46.2492 200.271 46.4409 199.228 46.4409ZM213.132 46.4409C212.059 46.4409 211.131 46.2568 210.349 45.8888C209.567 45.5207 208.93 45.0376 208.439 44.4396C207.949 43.8261 207.581 43.1437 207.335 42.3923C207.105 41.6408 206.99 40.874 206.99 40.0919V39.6779C206.99 38.8804 207.105 38.106 207.335 37.3545C207.581 36.6031 207.949 35.9283 208.439 35.3302C208.93 34.7168 209.551 34.2337 210.303 33.881C211.069 33.513 211.967 33.3289 212.994 33.3289C214.328 33.3289 215.425 33.6203 216.283 34.2031C217.158 34.7705 217.802 35.5066 218.216 36.4114C218.645 37.3162 218.86 38.2823 218.86 39.3098V40.299H207.956V38.6427H217.25L216.744 39.5398C216.744 38.6657 216.606 37.9143 216.33 37.2855C216.053 36.6414 215.639 36.143 215.087 35.7903C214.535 35.4376 213.837 35.2612 212.994 35.2612C212.12 35.2612 211.391 35.4606 210.809 35.8593C210.241 36.258 209.812 36.8024 209.521 37.4925C209.244 38.1826 209.106 38.9801 209.106 39.8849C209.106 40.759 209.244 41.5488 209.521 42.2542C209.812 42.9443 210.257 43.4964 210.855 43.9105C211.453 44.3092 212.212 44.5086 213.132 44.5086C214.098 44.5086 214.88 44.2939 215.478 43.8645C216.092 43.4351 216.46 42.9367 216.583 42.3693H218.653C218.484 43.2127 218.147 43.9412 217.641 44.5546C217.135 45.168 216.498 45.6357 215.731 45.9578C214.965 46.2798 214.098 46.4409 213.132 46.4409ZM226.631 40.575V38.6887H235.189V40.575H226.631ZM419.401 46.0268V43.2204H422.069V46.0268H419.401Z" fill="black"/>
<path d="M242.583 46.0268L248.633 29.2343H252.451L258.685 46.0268H256.362L250.726 30.7065L251.83 31.2586H249.116L250.289 30.7065L244.837 46.0268H242.583ZM246.195 41.0121L246.954 38.9878H254.2L254.959 41.0121H246.195ZM261.446 46.0268V29.2343H263.654V46.0268H261.446ZM259.744 30.9826V29.2343H263.654V30.9826H259.744ZM268.028 46.0268V29.2343H270.236V46.0268H268.028ZM266.326 30.9826V29.2343H270.236V30.9826H266.326ZM280.304 46.0268V33.743H282.512V46.0268H280.304ZM278.418 35.4912V33.743H282.512V35.4912H278.418ZM280.925 31.7647C280.434 31.7647 280.066 31.6343 279.821 31.3736C279.591 31.1129 279.476 30.7832 279.476 30.3845C279.476 29.9858 279.591 29.6561 279.821 29.3953C280.066 29.1346 280.434 29.0043 280.925 29.0043C281.416 29.0043 281.776 29.1346 282.006 29.3953C282.252 29.6561 282.374 29.9858 282.374 30.3845C282.374 30.7832 282.252 31.1129 282.006 31.3736C281.776 31.6343 281.416 31.7647 280.925 31.7647ZM286.782 46.0268V33.743H288.53V39.0108H288.254C288.254 37.7993 288.415 36.7794 288.738 35.9513C289.075 35.1079 289.581 34.4714 290.256 34.042C290.931 33.5973 291.782 33.3749 292.809 33.3749H292.901C294.45 33.3749 295.593 33.858 296.329 34.8241C297.08 35.7903 297.456 37.1858 297.456 39.0108V46.0268H295.247V38.5507C295.247 37.5999 294.979 36.8408 294.442 36.2734C293.906 35.6906 293.17 35.3992 292.234 35.3992C291.268 35.3992 290.486 35.6983 289.888 36.2964C289.29 36.8945 288.991 37.6919 288.991 38.6887V46.0268H286.782ZM312.389 46.4409C311.316 46.4409 310.373 46.2568 309.56 45.8888C308.747 45.5207 308.057 45.0376 307.49 44.4396C306.938 43.8261 306.516 43.1437 306.224 42.3923C305.948 41.6408 305.81 40.874 305.81 40.0919V39.6779C305.81 38.8957 305.956 38.129 306.247 37.3775C306.539 36.6107 306.968 35.9283 307.536 35.3302C308.103 34.7168 308.793 34.2337 309.606 33.881C310.419 33.513 311.346 33.3289 312.389 33.3289C313.432 33.3289 314.36 33.513 315.173 33.881C315.986 34.2337 316.676 34.7168 317.243 35.3302C317.81 35.9283 318.24 36.6107 318.531 37.3775C318.823 38.129 318.968 38.8957 318.968 39.6779V40.0919C318.968 40.874 318.823 41.6408 318.531 42.3923C318.255 43.1437 317.833 43.8261 317.266 44.4396C316.714 45.0376 316.032 45.5207 315.219 45.8888C314.406 46.2568 313.463 46.4409 312.389 46.4409ZM312.389 44.4626C313.309 44.4626 314.092 44.2632 314.736 43.8645C315.395 43.4504 315.893 42.8983 316.231 42.2082C316.584 41.5181 316.76 40.7437 316.76 39.8849C316.76 39.0108 316.584 38.2286 316.231 37.5385C315.878 36.8484 315.372 36.304 314.713 35.9053C314.069 35.5066 313.294 35.3072 312.389 35.3072C311.5 35.3072 310.725 35.5066 310.066 35.9053C309.407 36.304 308.9 36.8484 308.548 37.5385C308.195 38.2286 308.019 39.0108 308.019 39.8849C308.019 40.7437 308.187 41.5181 308.525 42.2082C308.877 42.8983 309.376 43.4504 310.02 43.8645C310.679 44.2632 311.469 44.4626 312.389 44.4626ZM322.276 46.0268V33.743H324.024V39.0108H323.748C323.748 37.7993 323.909 36.7794 324.231 35.9513C324.568 35.1079 325.074 34.4714 325.749 34.042C326.424 33.5973 327.275 33.3749 328.303 33.3749H328.395C329.944 33.3749 331.086 33.858 331.822 34.8241C332.574 35.7903 332.949 37.1858 332.949 39.0108V46.0268H330.741V38.5507C330.741 37.5999 330.473 36.8408 329.936 36.2734C329.399 35.6906 328.663 35.3992 327.728 35.3992C326.761 35.3992 325.979 35.6983 325.381 36.2964C324.783 36.8945 324.484 37.6919 324.484 38.6887V46.0268H322.276ZM342.212 46.4409C341.138 46.4409 340.21 46.2568 339.428 45.8888C338.646 45.5207 338.01 45.0376 337.519 44.4396C337.028 43.8261 336.66 43.1437 336.415 42.3923C336.185 41.6408 336.07 40.874 336.07 40.0919V39.6779C336.07 38.8804 336.185 38.106 336.415 37.3545C336.66 36.6031 337.028 35.9283 337.519 35.3302C338.01 34.7168 338.631 34.2337 339.382 33.881C340.149 33.513 341.046 33.3289 342.074 33.3289C343.408 33.3289 344.504 33.6203 345.363 34.2031C346.237 34.7705 346.881 35.5066 347.295 36.4114C347.725 37.3162 347.939 38.2823 347.939 39.3098V40.299H337.036V38.6427H346.329L345.823 39.5398C345.823 38.6657 345.685 37.9143 345.409 37.2855C345.133 36.6414 344.719 36.143 344.167 35.7903C343.615 35.4376 342.917 35.2612 342.074 35.2612C341.199 35.2612 340.471 35.4606 339.888 35.8593C339.321 36.258 338.891 36.8024 338.6 37.4925C338.324 38.1826 338.186 38.9801 338.186 39.8849C338.186 40.759 338.324 41.5488 338.6 42.2542C338.891 42.9443 339.336 43.4964 339.934 43.9105C340.532 44.3092 341.291 44.5086 342.212 44.5086C343.178 44.5086 343.96 44.2939 344.558 43.8645C345.171 43.4351 345.539 42.9367 345.662 42.3693H347.732C347.564 43.2127 347.226 43.9412 346.72 44.5546C346.214 45.168 345.578 45.6357 344.811 45.9578C344.044 46.2798 343.178 46.4409 342.212 46.4409ZM356.309 50.6275V33.743H358.057V39.0568L357.643 39.0108C357.72 37.6919 357.996 36.6184 358.471 35.7903C358.962 34.9468 359.599 34.3257 360.381 33.927C361.163 33.5283 362.014 33.3289 362.934 33.3289C363.824 33.3289 364.629 33.4976 365.349 33.835C366.086 34.1724 366.714 34.6325 367.236 35.2152C367.757 35.798 368.156 36.4727 368.432 37.2395C368.708 38.0063 368.846 38.8191 368.846 39.6779V40.0919C368.846 40.9507 368.7 41.7635 368.409 42.5303C368.117 43.2971 367.703 43.9718 367.167 44.5546C366.645 45.1373 366.016 45.5974 365.28 45.9348C364.56 46.2722 363.762 46.4409 362.888 46.4409C362.014 46.4409 361.178 46.2492 360.381 45.8658C359.583 45.4824 358.924 44.8613 358.402 44.0025C357.881 43.1437 357.582 42.0165 357.505 40.621L358.517 42.4613V50.6275H356.309ZM362.543 44.5086C363.371 44.5086 364.092 44.3169 364.705 43.9335C365.319 43.5348 365.794 42.9903 366.132 42.3002C366.469 41.5948 366.638 40.7897 366.638 39.8849C366.638 38.9648 366.469 38.1596 366.132 37.4695C365.794 36.7794 365.319 36.2427 364.705 35.8593C364.092 35.4606 363.371 35.2612 362.543 35.2612C361.807 35.2612 361.124 35.4299 360.496 35.7673C359.867 36.0893 359.361 36.5647 358.977 37.1935C358.609 37.8069 358.425 38.5507 358.425 39.4248V40.483C358.425 41.3264 358.617 42.0472 359 42.6453C359.384 43.2434 359.89 43.7035 360.519 44.0255C361.147 44.3475 361.822 44.5086 362.543 44.5086ZM372.307 46.0268V29.2343H374.515V46.0268H372.307ZM370.605 30.9826V29.2343H374.515V30.9826H370.605ZM386.181 46.0268V42.3463H385.813V38.0906C385.813 37.2472 385.591 36.6107 385.146 36.1813C384.716 35.7519 384.08 35.5373 383.237 35.5373C382.761 35.5373 382.27 35.5449 381.764 35.5603C381.258 35.5756 380.775 35.5909 380.315 35.6063C379.855 35.6216 379.456 35.6446 379.119 35.6753V33.743C379.456 33.7123 379.809 33.6893 380.177 33.674C380.56 33.6433 380.952 33.628 381.35 33.628C381.749 33.6126 382.132 33.605 382.5 33.605C383.758 33.605 384.785 33.7583 385.583 34.065C386.38 34.3564 386.971 34.8395 387.354 35.5142C387.738 36.189 387.929 37.1015 387.929 38.2517V46.0268H386.181ZM382.155 46.3488C381.235 46.3488 380.438 46.1955 379.763 45.8888C379.104 45.5667 378.59 45.1067 378.222 44.5086C377.869 43.9105 377.693 43.1897 377.693 42.3463C377.693 41.4721 377.884 40.7437 378.268 40.1609C378.666 39.5782 379.242 39.1411 379.993 38.8497C380.744 38.543 381.649 38.3897 382.707 38.3897H386.043V40.0459H382.615C381.726 40.0459 381.044 40.2606 380.568 40.69C380.093 41.1194 379.855 41.6715 379.855 42.3463C379.855 43.021 380.093 43.5654 380.568 43.9795C381.044 44.3936 381.726 44.6006 382.615 44.6006C383.137 44.6006 383.635 44.5086 384.111 44.3245C384.586 44.1252 384.977 43.8031 385.284 43.3584C385.606 42.8983 385.782 42.2696 385.813 41.4721L386.411 42.3463C386.334 43.2204 386.12 43.9565 385.767 44.5546C385.429 45.1373 384.954 45.5821 384.341 45.8888C383.743 46.1955 383.014 46.3488 382.155 46.3488ZM397.25 46.4409C396.192 46.4409 395.272 46.2568 394.49 45.8888C393.723 45.5207 393.086 45.03 392.58 44.4166C392.074 43.7878 391.691 43.0977 391.43 42.3463C391.185 41.5948 391.062 40.8434 391.062 40.0919V39.6779C391.062 38.8957 391.185 38.129 391.43 37.3775C391.691 36.6261 392.074 35.9513 392.58 35.3532C393.102 34.7398 393.746 34.2491 394.513 33.881C395.279 33.513 396.177 33.3289 397.204 33.3289C398.232 33.3289 399.152 33.5206 399.964 33.904C400.793 34.2874 401.452 34.8318 401.943 35.5373C402.449 36.2274 402.733 37.0478 402.794 37.9986H400.678C400.57 37.2318 400.217 36.5954 399.619 36.0893C399.021 35.5679 398.216 35.3072 397.204 35.3072C396.33 35.3072 395.601 35.5066 395.019 35.9053C394.436 36.304 393.999 36.8484 393.708 37.5385C393.416 38.2286 393.27 39.0108 393.27 39.8849C393.27 40.7283 393.416 41.5028 393.708 42.2082C393.999 42.8983 394.436 43.4504 395.019 43.8645C395.617 44.2632 396.361 44.4626 397.25 44.4626C397.94 44.4626 398.538 44.3399 399.044 44.0945C399.55 43.8491 399.957 43.5194 400.264 43.1054C400.57 42.6913 400.754 42.2236 400.816 41.7022H402.932C402.886 42.6683 402.602 43.5041 402.081 44.2095C401.575 44.915 400.9 45.467 400.056 45.8658C399.228 46.2492 398.293 46.4409 397.25 46.4409ZM411.154 46.4409C410.081 46.4409 409.153 46.2568 408.371 45.8888C407.589 45.5207 406.952 45.0376 406.462 44.4396C405.971 43.8261 405.603 43.1437 405.357 42.3923C405.127 41.6408 405.012 40.874 405.012 40.0919V39.6779C405.012 38.8804 405.127 38.106 405.357 37.3545C405.603 36.6031 405.971 35.9283 406.462 35.3302C406.952 34.7168 407.573 34.2337 408.325 33.881C409.092 33.513 409.989 33.3289 411.016 33.3289C412.351 33.3289 413.447 33.6203 414.306 34.2031C415.18 34.7705 415.824 35.5066 416.238 36.4114C416.667 37.3162 416.882 38.2823 416.882 39.3098V40.299H405.979V38.6427H415.272L414.766 39.5398C414.766 38.6657 414.628 37.9143 414.352 37.2855C414.076 36.6414 413.662 36.143 413.11 35.7903C412.558 35.4376 411.86 35.2612 411.016 35.2612C410.142 35.2612 409.414 35.4606 408.831 35.8593C408.264 36.258 407.834 36.8024 407.543 37.4925C407.267 38.1826 407.129 38.9801 407.129 39.8849C407.129 40.759 407.267 41.5488 407.543 42.2542C407.834 42.9443 408.279 43.4964 408.877 43.9105C409.475 44.3092 410.234 44.5086 411.154 44.5086C412.12 44.5086 412.903 44.2939 413.501 43.8645C414.114 43.4351 414.482 42.9367 414.605 42.3693H416.675C416.506 43.2127 416.169 43.9412 415.663 44.5546C415.157 45.168 414.521 45.6357 413.754 45.9578C412.987 46.2798 412.12 46.4409 411.154 46.4409Z" fill="url(#paint0_linear_2_6336)"/>
<defs>
<linearGradient id="paint0_linear_2_6336" x1="503.817" y1="28.0842" x2="68.2127" y2="-262.178" gradientUnits="userSpaceOnUse">
<stop stop-color="#673AB7"/>
<stop offset="1" stop-color="#00BFA6"/>
</linearGradient>
</defs>
</svg>
