<svg width="97" height="190" viewBox="0 0 97 190" fill="none" xmlns="http://www.w3.org/2000/svg">
<g clip-path="url(#clip0_2_6276)">
<path d="M33.5604 13.4142C34.8203 12.1543 33.928 10 32.1462 10L20.8284 10C19.0466 10 18.1543 12.1543 19.4142 13.4142L25.0731 19.0731C25.8541 19.8541 27.1205 19.8541 27.9015 19.0731L33.5604 13.4142Z" fill="#FACD49"/>
<path d="M33.5604 48.9528C34.8203 47.6929 33.928 45.5386 32.1462 45.5386H20.8284C19.0466 45.5386 18.1543 47.6929 19.4142 48.9528L25.0731 54.6117C25.8541 55.3927 27.1205 55.3927 27.9015 54.6117L33.5604 48.9528Z" fill="#FACD49"/>
<path d="M33.5603 84.5065C34.8203 83.2466 33.9279 81.0923 32.1461 81.0923H20.8284C19.0466 81.0923 18.1543 83.2466 19.4142 84.5065L25.073 90.1654C25.8541 90.9464 27.1204 90.9464 27.9015 90.1654L33.5603 84.5065Z" fill="#FACD49"/>
<path d="M33.5603 120.045C34.8203 118.785 33.9279 116.631 32.1461 116.631H20.8284C19.0466 116.631 18.1543 118.785 19.4142 120.045L25.0731 125.704C25.8541 126.485 27.1204 126.485 27.9015 125.704L33.5603 120.045Z" fill="#FACD49"/>
<path d="M33.5663 155.583C34.8248 154.322 33.9322 152.169 32.1511 152.169H20.8235C19.0424 152.169 18.1497 154.322 19.4082 155.583L25.072 161.255C25.8533 162.037 27.1212 162.037 27.9025 161.255L33.5663 155.583Z" fill="#FACD49"/>
<path d="M77.5855 30.6911C78.8455 29.4311 77.9531 27.2769 76.1713 27.2769H64.8536C63.0718 27.2769 62.1794 29.4311 63.4394 30.6911L69.0982 36.3499C69.8793 37.131 71.1456 37.131 71.9267 36.3499L77.5855 30.6911Z" fill="#FACD49"/>
<path d="M77.5857 66.2448C78.8456 64.9849 77.9533 62.8306 76.1715 62.8306H64.8538C63.0719 62.8306 62.1796 64.9849 63.4395 66.2448L69.0984 71.9036C69.8795 72.6847 71.1458 72.6847 71.9268 71.9036L77.5857 66.2448Z" fill="#FACD49"/>
<path d="M77.5857 101.783C78.8456 100.523 77.9533 98.3691 76.1715 98.3691H64.8538C63.0719 98.3691 62.1796 100.523 63.4395 101.783L69.0984 107.442C69.8795 108.223 71.1458 108.223 71.9268 107.442L77.5857 101.783Z" fill="#FACD49"/>
<path d="M77.5857 137.322C78.8456 136.062 77.9533 133.908 76.1715 133.908H64.8538C63.0719 133.908 62.1796 136.062 63.4395 137.322L69.0984 142.981C69.8795 143.762 71.1458 143.762 71.9268 142.981L77.5857 137.322Z" fill="#FACD49"/>
<path d="M77.5857 172.876C78.8456 171.616 77.9533 169.461 76.1715 169.461H64.8538C63.0719 169.461 62.1796 171.616 63.4395 172.876L69.0984 178.535C69.8795 179.316 71.1458 179.316 71.9268 178.535L77.5857 172.876Z" fill="#FACD49"/>
</g>
<defs>
<clipPath id="clip0_2_6276">
<rect width="65" height="169.949" fill="white" transform="translate(16 10)"/>
</clipPath>
</defs>
</svg>
