<svg width="177" height="184" viewBox="0 0 177 184" fill="none" xmlns="http://www.w3.org/2000/svg">
<g clip-path="url(#clip0_2_7133)">
<path d="M128.418 179.156C128.418 180.597 129.599 181.768 131.05 181.768C132.501 181.768 133.682 180.597 133.682 179.156C133.682 177.715 132.501 176.544 131.05 176.544C129.599 176.544 128.418 177.715 128.418 179.156Z" fill="#FF5722"/>
<path d="M133.682 134.462C133.682 133.02 132.503 131.85 131.05 131.85C129.596 131.85 128.418 133.02 128.418 134.462C128.418 135.905 129.596 137.074 131.05 137.074C132.503 137.074 133.682 135.905 133.682 134.462Z" fill="#FF5722"/>
<path d="M128.418 156.809C128.418 158.25 129.599 159.421 131.05 159.421C132.501 159.421 133.682 158.25 133.682 156.809C133.682 155.368 132.501 154.197 131.05 154.197C129.599 154.197 128.418 155.368 128.418 156.809Z" fill="#FF5722"/>
<path d="M107.022 157.18C107.022 158.621 108.202 159.792 109.654 159.792C111.105 159.792 112.286 158.621 112.286 157.18C112.286 155.739 111.105 154.568 109.654 154.568C108.202 154.568 107.022 155.739 107.022 157.18Z" fill="#FF5722"/>
<path d="M107.022 179.527C107.022 180.968 108.202 182.139 109.654 182.139C111.105 182.139 112.286 180.968 112.286 179.527C112.286 178.086 111.105 176.915 109.654 176.915C108.202 176.915 107.022 178.086 107.022 179.527Z" fill="#FF5722"/>
<path d="M107.022 112.485C107.022 113.927 108.202 115.097 109.654 115.097C111.105 115.097 112.286 113.927 112.286 112.485C112.286 111.044 111.105 109.873 109.654 109.873C108.202 109.873 107.022 111.044 107.022 112.485Z" fill="#FF5722"/>
<path d="M107.022 134.833C107.022 136.274 108.202 137.445 109.654 137.445C111.105 137.445 112.286 136.274 112.286 134.833C112.286 133.391 111.105 132.221 109.654 132.221C108.202 132.221 107.022 133.391 107.022 134.833Z" fill="#FF5722"/>
<path d="M171.23 179.156C171.23 180.597 172.411 181.768 173.862 181.768C175.314 181.768 176.494 180.597 176.494 179.156C176.494 177.715 175.314 176.544 173.862 176.544C172.411 176.544 171.23 177.715 171.23 179.156Z" fill="#FF5722"/>
<path d="M149.824 157.18C149.824 158.621 151.005 159.792 152.456 159.792C153.907 159.792 155.088 158.621 155.088 157.18C155.088 155.739 153.907 154.568 152.456 154.568C151.005 154.568 149.824 155.739 149.824 157.18Z" fill="#FF5722"/>
<path d="M149.824 179.527C149.824 180.968 151.005 182.139 152.456 182.139C153.907 182.139 155.088 180.968 155.088 179.527C155.088 178.086 153.907 176.915 152.456 176.915C151.005 176.915 149.824 178.086 149.824 179.527Z" fill="#FF5722"/>
<path d="M85.6152 90.5087C85.6152 91.9498 86.7961 93.1207 88.2472 93.1207C89.6983 93.1207 90.8792 91.9498 90.8792 90.5087C90.8792 89.0676 89.6983 87.8967 88.2472 87.8967C86.7961 87.8967 85.6152 89.0676 85.6152 90.5087Z" fill="#FF5722"/>
<path d="M85.6152 135.203C85.6152 136.644 86.7961 137.815 88.2472 137.815C89.6983 137.815 90.8792 136.644 90.8792 135.203C90.8792 133.762 89.6983 132.591 88.2472 132.591C86.7961 132.591 85.6152 133.762 85.6152 135.203Z" fill="#FF5722"/>
<path d="M90.8792 112.856C90.8792 111.413 89.7008 110.244 88.2472 110.244C86.7936 110.244 85.6152 111.413 85.6152 112.856C85.6152 114.298 86.7936 115.468 88.2472 115.468C89.7008 115.468 90.8792 114.298 90.8792 112.856Z" fill="#FF5722"/>
<path d="M85.6152 157.56C85.6152 159.001 86.7961 160.172 88.2472 160.172C89.6983 160.172 90.8792 159.001 90.8792 157.56C90.8792 156.119 89.6983 154.948 88.2472 154.948C86.7961 154.948 85.6152 156.109 85.6152 157.56Z" fill="#FF5722"/>
<path d="M85.6152 179.907C85.6152 181.348 86.7961 182.519 88.2472 182.519C89.6983 182.519 90.8792 181.348 90.8792 179.907C90.8792 178.466 89.6983 177.295 88.2472 177.295C86.7961 177.295 85.6152 178.466 85.6152 179.907Z" fill="#FF5722"/>
<path d="M64.2089 90.8889C64.2089 92.33 65.3898 93.5009 66.8409 93.5009C68.292 93.5009 69.4729 92.33 69.4729 90.8889C69.4729 89.4478 68.292 88.2769 66.8409 88.2769C65.3898 88.2769 64.2089 89.4478 64.2089 90.8889Z" fill="#FF5722"/>
<path d="M64.2089 113.236C64.2089 114.677 65.3898 115.848 66.8409 115.848C68.292 115.848 69.4729 114.677 69.4729 113.236C69.4729 111.795 68.292 110.624 66.8409 110.624C65.3898 110.624 64.2089 111.795 64.2089 113.236Z" fill="#FF5722"/>
<path d="M64.2089 135.583C64.2089 137.024 65.3898 138.195 66.8409 138.195C68.292 138.195 69.4729 137.024 69.4729 135.583C69.4729 134.142 68.292 132.971 66.8409 132.971C65.3898 132.971 64.2089 134.142 64.2089 135.583Z" fill="#FF5722"/>
<path d="M64.2089 68.532C64.2089 69.9731 65.3898 71.144 66.8409 71.144C68.292 71.144 69.4729 69.9731 69.4729 68.532C69.4729 67.0909 68.292 65.92 66.8409 65.92C65.3898 65.92 64.2089 67.0909 64.2089 68.532Z" fill="#FF5722"/>
<path d="M64.2089 180.277C64.2089 181.718 65.3898 182.889 66.8409 182.889C68.292 182.889 69.4729 181.718 69.4729 180.277C69.4729 178.836 68.292 177.665 66.8409 177.665C65.3898 177.665 64.2089 178.836 64.2089 180.277Z" fill="#FF5722"/>
<path d="M64.2089 157.93C64.2089 159.371 65.3898 160.542 66.8409 160.542C68.292 160.542 69.4729 159.371 69.4729 157.93C69.4729 156.489 68.292 155.318 66.8409 155.318C65.3898 155.318 64.2089 156.489 64.2089 157.93Z" fill="#FF5722"/>
<path d="M42.8026 180.647C42.8026 182.088 43.9835 183.259 45.4346 183.259C46.8857 183.259 48.0666 182.088 48.0666 180.647C48.0666 179.206 46.8857 178.035 45.4346 178.035C43.9835 178.035 42.8026 179.206 42.8026 180.647Z" fill="#FF5722"/>
<path d="M48.0666 91.2593C48.0666 89.8167 46.8882 88.6473 45.4346 88.6473C43.981 88.6473 42.8026 89.8167 42.8026 91.2593C42.8026 92.7019 43.981 93.8713 45.4346 93.8713C46.8882 93.8713 48.0666 92.7019 48.0666 91.2593Z" fill="#FF5722"/>
<path d="M48.0666 46.5651C48.0666 45.1226 46.8882 43.9531 45.4346 43.9531C43.981 43.9531 42.8026 45.1226 42.8026 46.5651C42.8026 48.0077 43.981 49.1771 45.4346 49.1771C46.8882 49.1771 48.0666 48.0077 48.0666 46.5651Z" fill="#FF5722"/>
<path d="M42.8026 113.606C42.8026 115.048 43.9835 116.218 45.4346 116.218C46.8857 116.218 48.0666 115.048 48.0666 113.606C48.0666 112.165 46.8857 110.994 45.4346 110.994C43.9835 110.994 42.8026 112.165 42.8026 113.606Z" fill="#FF5722"/>
<path d="M42.8026 135.954C42.8026 137.395 43.9835 138.565 45.4346 138.565C46.8857 138.565 48.0666 137.395 48.0666 135.954C48.0666 134.512 46.8857 133.342 45.4346 133.342C43.9835 133.342 42.8026 134.512 42.8026 135.954Z" fill="#FF5722"/>
<path d="M42.8026 158.301C42.8026 159.742 43.9835 160.913 45.4346 160.913C46.8857 160.913 48.0666 159.742 48.0666 158.301C48.0666 156.86 46.8857 155.689 45.4346 155.689C43.9835 155.689 42.8026 156.86 42.8026 158.301Z" fill="#FF5722"/>
<path d="M42.8026 68.9122C42.8026 70.3533 43.9835 71.5242 45.4346 71.5242C46.8857 71.5242 48.0666 70.3533 48.0666 68.9122C48.0666 67.4711 46.8857 66.3002 45.4346 66.3002C43.9835 66.3002 42.8026 67.4711 42.8026 68.9122Z" fill="#FF5722"/>
<path d="M26.6603 181.018C26.6603 179.575 25.4819 178.406 24.0283 178.406C22.5747 178.406 21.3963 179.575 21.3963 181.018C21.3963 182.46 22.5747 183.63 24.0283 183.63C25.4819 183.63 26.6603 182.46 26.6603 181.018Z" fill="#FF5722"/>
<path d="M21.4063 69.2826C21.4063 70.7237 22.5872 71.8946 24.0383 71.8946C25.4894 71.8946 26.6703 70.7237 26.6703 69.2826C26.6703 67.8415 25.4894 66.6706 24.0383 66.6706C22.5872 66.6706 21.4063 67.8415 21.4063 69.2826Z" fill="#FF5722"/>
<path d="M21.4063 158.671C21.4063 160.112 22.5872 161.283 24.0383 161.283C25.4894 161.283 26.6703 160.112 26.6703 158.671C26.6703 157.229 25.4894 156.059 24.0383 156.059C22.5872 156.059 21.4063 157.229 21.4063 158.671Z" fill="#FF5722"/>
<path d="M21.4063 113.977C21.4063 115.418 22.5872 116.589 24.0383 116.589C25.4894 116.589 26.6703 115.418 26.6703 113.977C26.6703 112.536 25.4894 111.365 24.0383 111.365C22.5872 111.365 21.4063 112.536 21.4063 113.977Z" fill="#FF5722"/>
<path d="M21.4063 136.324C21.4063 137.765 22.5872 138.936 24.0383 138.936C25.4894 138.936 26.6703 137.765 26.6703 136.324C26.6703 134.883 25.4894 133.712 24.0383 133.712C22.5872 133.712 21.4063 134.883 21.4063 136.324Z" fill="#FF5722"/>
<path d="M21.4063 91.6297C21.4063 93.0708 22.5872 94.2417 24.0383 94.2417C25.4894 94.2417 26.6703 93.0708 26.6703 91.6297C26.6703 90.1886 25.4894 89.0177 24.0383 89.0177C22.5872 89.0177 21.4063 90.1886 21.4063 91.6297Z" fill="#FF5722"/>
<path d="M21.4063 24.5884C21.4063 26.0295 22.5872 27.2004 24.0383 27.2004C25.4894 27.2004 26.6703 26.0295 26.6703 24.5884C26.6703 23.1473 25.4894 21.9764 24.0383 21.9764C22.5872 21.9764 21.4063 23.1373 21.4063 24.5884Z" fill="#FF5722"/>
<path d="M21.4063 46.9355C21.4063 48.3766 22.5872 49.5475 24.0383 49.5475C25.4894 49.5475 26.6703 48.3766 26.6703 46.9355C26.6703 45.4944 25.4894 44.3235 24.0383 44.3235C22.5872 44.3235 21.4063 45.4844 21.4063 46.9355Z" fill="#FF5722"/>
<path d="M5.254 159.041C5.254 157.6 4.0731 156.429 2.62199 156.429C1.17089 156.429 -0.0100098 157.6 -0.0100098 159.041C-0.0100098 160.482 1.17089 161.653 2.62199 161.653C4.0731 161.653 5.254 160.482 5.254 159.041Z" fill="#FF5722"/>
<path d="M5.254 181.388C5.254 179.947 4.0731 178.776 2.622 178.776C1.17089 178.776 0 179.957 0 181.388C0 182.819 1.1809 184 2.632 184C4.08311 184 5.26401 182.829 5.26401 181.388H5.254Z" fill="#FF5722"/>
<path d="M5.26401 24.9588C5.26401 23.5163 4.08562 22.3468 2.632 22.3468C1.17839 22.3468 0 23.5163 0 24.9588C0 26.4014 1.17839 27.5708 2.632 27.5708C4.08562 27.5708 5.26401 26.4014 5.26401 24.9588Z" fill="#FF5722"/>
<path d="M5.254 92.0001C5.254 90.559 4.0731 89.3881 2.62199 89.3881C1.17089 89.3881 -0.0100098 90.559 -0.0100098 92.0001C-0.0100098 93.4412 1.17089 94.6121 2.62199 94.6121C4.0731 94.6121 5.254 93.4412 5.254 92.0001Z" fill="#FF5722"/>
<path d="M5.254 69.653C5.254 68.2119 4.0731 67.041 2.62199 67.041C1.17089 67.041 -0.0100098 68.2119 -0.0100098 69.653C-0.0100098 71.0941 1.17089 72.265 2.62199 72.265C4.0731 72.265 5.254 71.0941 5.254 69.653Z" fill="#FF5722"/>
<path d="M5.254 47.3059C5.254 45.8648 4.0731 44.6939 2.62199 44.6939C1.17089 44.6939 -0.0100098 45.8648 -0.0100098 47.3059C-0.0100098 48.747 1.17089 49.9179 2.62199 49.9179C4.0731 49.9179 5.254 48.747 5.254 47.3059Z" fill="#FF5722"/>
<path d="M5.254 136.694C5.254 135.253 4.0731 134.082 2.62199 134.082C1.17089 134.082 -0.0100098 135.253 -0.0100098 136.694C-0.0100098 138.135 1.17089 139.306 2.62199 139.306C4.0731 139.306 5.254 138.135 5.254 136.694Z" fill="#FF5722"/>
<path d="M5.254 2.61172C5.254 1.17062 4.0731 -0.000274868 2.62199 -0.000274868C1.17089 -0.000274868 -0.0100098 1.16061 -0.0100098 2.61172C-0.0100098 4.06282 1.17089 5.22371 2.62199 5.22371C4.0731 5.22371 5.254 4.05281 5.254 2.61172Z" fill="#FF5722"/>
<path d="M5.254 114.347C5.254 112.906 4.0731 111.735 2.62199 111.735C1.17089 111.735 -0.0100098 112.906 -0.0100098 114.347C-0.0100098 115.788 1.17089 116.959 2.62199 116.959C4.0731 116.959 5.254 115.788 5.254 114.347Z" fill="#FF5722"/>
</g>
<defs>
<clipPath id="clip0_2_7133">
<rect width="183.86" height="176.35" fill="white" transform="matrix(0 -1.00076 1.00076 0 0 184)"/>
</clipPath>
</defs>
</svg>
