<svg width="541" height="47" viewBox="0 0 541 47" fill="none" xmlns="http://www.w3.org/2000/svg">
<path d="M5.84828 17.637C4.75844 17.637 3.76838 17.4068 2.87809 16.9463C1.98781 16.4858 1.28171 15.8027 0.759822 14.8971C0.253279 13.9914 7.14532e-06 12.8632 7.14532e-06 11.5124V10.9368H2.25643V11.9269C2.25643 13.0781 2.59412 13.9761 3.26951 14.6208C3.9449 15.2501 4.80449 15.5648 5.84828 15.5648C6.89206 15.5648 7.75165 15.2501 8.42704 14.6208C9.10243 13.9761 9.44013 13.0781 9.44013 11.9269V1.98022H11.6965V11.5124C11.6965 12.8632 11.4356 13.9914 10.9137 14.8971C10.4072 15.8027 9.70875 16.4858 8.81846 16.9463C7.94352 17.4068 6.95346 17.637 5.84828 17.637ZM2.21038 2.44072V0.414546H11.6965V2.44072H2.21038ZM21.6351 17.637C20.5606 17.637 19.6166 17.4528 18.8031 17.0844C17.9895 16.716 17.2988 16.2325 16.7309 15.6339C16.1783 15.0199 15.7561 14.3368 15.4645 13.5847C15.1882 12.8325 15.0501 12.065 15.0501 11.2822V10.8678C15.0501 10.0849 15.1959 9.31742 15.4875 8.56529C15.7792 7.7978 16.209 7.11473 16.7769 6.51609C17.3449 5.9021 18.0356 5.41858 18.8491 5.06553C19.6627 4.69714 20.5913 4.51294 21.6351 4.51294C22.6789 4.51294 23.6076 4.69714 24.4211 5.06553C25.2346 5.41858 25.9254 5.9021 26.4933 6.51609C27.0613 7.11473 27.4911 7.7978 27.7827 8.56529C28.0744 9.31742 28.2202 10.0849 28.2202 10.8678V11.2822C28.2202 12.065 28.0744 12.8325 27.7827 13.5847C27.5064 14.3368 27.0843 15.0199 26.5164 15.6339C25.9638 16.2325 25.2807 16.716 24.4672 17.0844C23.6536 17.4528 22.7096 17.637 21.6351 17.637ZM21.6351 15.6569C22.5561 15.6569 23.3389 15.4573 23.9836 15.0582C24.6437 14.6438 25.1425 14.0912 25.4802 13.4005C25.8333 12.7097 26.0098 11.9346 26.0098 11.075C26.0098 10.2 25.8333 9.4172 25.4802 8.72646C25.1272 8.03572 24.6207 7.4908 23.9606 7.0917C23.3159 6.69261 22.5408 6.49306 21.6351 6.49306C20.7448 6.49306 19.9697 6.69261 19.3096 7.0917C18.6496 7.4908 18.143 8.03572 17.79 8.72646C17.437 9.4172 17.2604 10.2 17.2604 11.075C17.2604 11.9346 17.4293 12.7097 17.767 13.4005C18.12 14.0912 18.6189 14.6438 19.2636 15.0582C19.9236 15.4573 20.7141 15.6569 21.6351 15.6569ZM32.1293 17.2226V4.92738H34.3397V17.2226H32.1293ZM30.2413 6.67726V4.92738H34.3397V6.67726H30.2413ZM32.751 2.94726C32.2598 2.94726 31.8914 2.81679 31.6458 2.55584C31.4156 2.29489 31.3005 1.96487 31.3005 1.56578C31.3005 1.16669 31.4156 0.836664 31.6458 0.575718C31.8914 0.314772 32.2598 0.184299 32.751 0.184299C33.2422 0.184299 33.6029 0.314772 33.8332 0.575718C34.0788 0.836664 34.2016 1.16669 34.2016 1.56578C34.2016 1.96487 34.0788 2.29489 33.8332 2.55584C33.6029 2.81679 33.2422 2.94726 32.751 2.94726ZM38.6135 17.2226V4.92738H40.3634V10.2H40.0871C40.0871 8.9874 40.2482 7.96664 40.5706 7.13775C40.9083 6.29352 41.4148 5.6565 42.0902 5.22671C42.7656 4.78156 43.6175 4.55899 44.646 4.55899H44.7381C46.2884 4.55899 47.4319 5.04251 48.1687 6.00954C48.9209 6.97658 49.2969 8.37341 49.2969 10.2V17.2226H47.0866V9.73954C47.0866 8.78786 46.818 8.02804 46.2807 7.4601C45.7435 6.87681 45.0067 6.58516 44.0703 6.58516C43.1033 6.58516 42.3205 6.88448 41.7218 7.48313C41.1232 8.08177 40.8239 8.87996 40.8239 9.87769V17.2226H38.6135ZM63.3693 17.3607C62.4484 17.3607 61.6502 17.2302 60.9748 16.9693C60.3147 16.7084 59.8005 16.2632 59.4321 15.6339C59.0791 14.9892 58.9026 14.1219 58.9026 13.0321V1.19738H61.0208V13.3084C61.0208 13.9684 61.1973 14.4826 61.5504 14.851C61.9188 15.2041 62.433 15.3806 63.093 15.3806H65.2574V17.3607H63.3693ZM56.7843 6.58516V4.92738H65.2574V6.58516H56.7843ZM68.3837 17.2226V0.414546H70.5941V10.4533H70.0415C70.0415 9.24068 70.195 8.19689 70.502 7.32195C70.8243 6.43166 71.3155 5.7486 71.9755 5.27275C72.6356 4.79691 73.4798 4.55899 74.5083 4.55899H74.6004C76.0739 4.55899 77.1868 5.05018 77.9389 6.03257C78.6911 6.99961 79.0671 8.38876 79.0671 10.2V17.2226H76.8568V9.73954C76.8568 8.74181 76.5728 7.96664 76.0049 7.41405C75.4523 6.86146 74.7308 6.58516 73.8405 6.58516C72.8582 6.58516 72.0676 6.91518 71.469 7.57522C70.8857 8.21991 70.5941 9.07183 70.5941 10.131V17.2226H68.3837ZM88.7755 17.637C87.701 17.637 86.757 17.4528 85.9434 17.0844C85.1299 16.716 84.4392 16.2325 83.8712 15.6339C83.3186 15.0199 82.8965 14.3368 82.6049 13.5847C82.3286 12.8325 82.1904 12.065 82.1904 11.2822V10.8678C82.1904 10.0849 82.3362 9.31742 82.6279 8.56529C82.9195 7.7978 83.3493 7.11473 83.9173 6.51609C84.4852 5.9021 85.1759 5.41858 85.9895 5.06553C86.803 4.69714 87.7317 4.51294 88.7755 4.51294C89.8193 4.51294 90.7479 4.69714 91.5615 5.06553C92.375 5.41858 93.0657 5.9021 93.6337 6.51609C94.2016 7.11473 94.6314 7.7978 94.9231 8.56529C95.2147 9.31742 95.3605 10.0849 95.3605 10.8678V11.2822C95.3605 12.065 95.2147 12.8325 94.9231 13.5847C94.6468 14.3368 94.2246 15.0199 93.6567 15.6339C93.1041 16.2325 92.421 16.716 91.6075 17.0844C90.794 17.4528 89.85 17.637 88.7755 17.637ZM88.7755 15.6569C89.6965 15.6569 90.4793 15.4573 91.124 15.0582C91.784 14.6438 92.2829 14.0912 92.6206 13.4005C92.9736 12.7097 93.1502 11.9346 93.1502 11.075C93.1502 10.2 92.9736 9.4172 92.6206 8.72646C92.2675 8.03572 91.761 7.4908 91.101 7.0917C90.4563 6.69261 89.6811 6.49306 88.7755 6.49306C87.8852 6.49306 87.11 6.69261 86.45 7.0917C85.7899 7.4908 85.2834 8.03572 84.9303 8.72646C84.5773 9.4172 84.4008 10.2 84.4008 11.075C84.4008 11.9346 84.5696 12.7097 84.9073 13.4005C85.2604 14.0912 85.7592 14.6438 86.4039 15.0582C87.064 15.4573 87.8545 15.6569 88.7755 15.6569ZM102.931 17.591C101.472 17.591 100.352 17.1151 99.569 16.1634C98.7862 15.2117 98.3948 13.8379 98.3948 12.042V4.90436H100.605V12.4795C100.605 13.4465 100.866 14.2063 101.388 14.7589C101.91 15.2962 102.616 15.5648 103.506 15.5648C104.427 15.5648 105.179 15.2731 105.763 14.6899C106.346 14.0912 106.638 13.2777 106.638 12.2492V4.90436H108.848V17.2226H107.098V11.9499H107.374C107.374 13.1625 107.213 14.191 106.891 15.0352C106.569 15.8641 106.085 16.5011 105.44 16.9463C104.811 17.3761 104.005 17.591 103.023 17.591H102.931ZM117.158 17.591C115.547 17.591 114.296 17.2456 113.405 16.5549C112.53 15.8641 112.077 14.9201 112.047 13.7228H114.119C114.15 14.1987 114.388 14.6515 114.833 15.0813C115.293 15.4957 116.068 15.7029 117.158 15.7029C118.141 15.7029 118.893 15.5111 119.415 15.1273C119.937 14.7282 120.198 14.2447 120.198 13.6768C120.198 13.1702 120.006 12.7788 119.622 12.5025C119.238 12.2109 118.616 12.019 117.757 11.9269L116.421 11.7887C115.255 11.6659 114.303 11.3206 113.566 10.7526C112.83 10.1693 112.461 9.3558 112.461 8.31201C112.461 7.52917 112.661 6.86146 113.06 6.30887C113.459 5.74092 114.012 5.31113 114.718 5.01948C115.424 4.71249 116.237 4.55899 117.158 4.55899C118.54 4.55899 119.66 4.86599 120.52 5.47998C121.379 6.09397 121.825 7.00728 121.855 8.21991H119.783C119.768 7.72872 119.537 7.31428 119.092 6.97658C118.663 6.62354 118.018 6.44701 117.158 6.44701C116.299 6.44701 115.646 6.62354 115.201 6.97658C114.756 7.32963 114.533 7.77477 114.533 8.31201C114.533 8.77251 114.687 9.1409 114.994 9.4172C115.316 9.69349 115.838 9.87002 116.56 9.94677L117.895 10.0849C119.215 10.2231 120.274 10.5915 121.072 11.1901C121.871 11.7734 122.27 12.6023 122.27 13.6768C122.27 14.4443 122.047 15.1273 121.602 15.726C121.172 16.3093 120.574 16.7697 119.806 17.1074C119.039 17.4298 118.156 17.591 117.158 17.591ZM132.91 17.2226V13.5386H132.542V9.27905C132.542 8.43481 132.319 7.7978 131.874 7.368C131.444 6.93821 130.807 6.72331 129.963 6.72331C129.487 6.72331 128.996 6.73098 128.489 6.74633C127.983 6.76168 127.499 6.77703 127.039 6.79238C126.578 6.80773 126.179 6.83076 125.842 6.86146V4.92738C126.179 4.89668 126.532 4.87366 126.901 4.85831C127.284 4.82761 127.676 4.81226 128.075 4.81226C128.474 4.79691 128.858 4.78924 129.226 4.78924C130.485 4.78924 131.513 4.94273 132.312 5.24973C133.11 5.54138 133.701 6.02489 134.084 6.70029C134.468 7.37568 134.66 8.28899 134.66 9.44022V17.2226H132.91ZM128.881 17.5449C127.96 17.5449 127.162 17.3914 126.486 17.0844C125.826 16.7621 125.312 16.3016 124.944 15.7029C124.591 15.1043 124.414 14.3829 124.414 13.5386C124.414 12.6637 124.606 11.9346 124.99 11.3513C125.389 10.768 125.964 10.3305 126.717 10.0389C127.469 9.73187 128.374 9.57837 129.433 9.57837H132.772V11.2361H129.341C128.451 11.2361 127.768 11.451 127.292 11.8808C126.816 12.3106 126.578 12.8632 126.578 13.5386C126.578 14.214 126.816 14.7589 127.292 15.1734C127.768 15.5878 128.451 15.795 129.341 15.795C129.863 15.795 130.362 15.7029 130.838 15.5187C131.314 15.3192 131.705 14.9968 132.012 14.5517C132.335 14.0912 132.511 13.4619 132.542 12.6637L133.14 13.5386C133.064 14.4136 132.849 15.1503 132.496 15.749C132.158 16.3323 131.682 16.7774 131.068 17.0844C130.47 17.3914 129.74 17.5449 128.881 17.5449ZM138.717 17.2226V4.92738H140.467V10.2H140.19C140.19 8.9874 140.352 7.96664 140.674 7.13775C141.012 6.29352 141.518 5.6565 142.194 5.22671C142.869 4.78156 143.721 4.55899 144.749 4.55899H144.841C146.392 4.55899 147.535 5.04251 148.272 6.00954C149.024 6.97658 149.4 8.37341 149.4 10.2V17.2226H147.19V9.73954C147.19 8.78786 146.921 8.02804 146.384 7.4601C145.847 6.87681 145.11 6.58516 144.174 6.58516C143.207 6.58516 142.424 6.88448 141.825 7.48313C141.227 8.08177 140.927 8.87996 140.927 9.87769V17.2226H138.717ZM158.579 17.637C157.704 17.637 156.898 17.4758 156.162 17.1535C155.425 16.8311 154.78 16.3783 154.227 15.795C153.69 15.2117 153.268 14.5364 152.961 13.7689C152.669 13.0014 152.524 12.1725 152.524 11.2822V10.8678C152.524 9.99282 152.669 9.1716 152.961 8.40411C153.253 7.63662 153.66 6.96123 154.181 6.37794C154.719 5.79465 155.348 5.34183 156.069 5.01948C156.806 4.68179 157.62 4.51294 158.51 4.51294C159.446 4.51294 160.298 4.71249 161.066 5.11158C161.833 5.49533 162.463 6.10164 162.954 6.93053C163.445 7.75942 163.721 8.83391 163.783 10.154L162.862 8.68041V0.414546H165.072V17.2226H163.322V11.7657H163.967C163.906 13.1625 163.614 14.2984 163.092 15.1734C162.57 16.033 161.91 16.6623 161.112 17.0614C160.329 17.4451 159.485 17.637 158.579 17.637ZM158.878 15.7029C159.631 15.7029 160.314 15.5341 160.928 15.1964C161.542 14.8587 162.033 14.3752 162.401 13.7458C162.77 13.1011 162.954 12.349 162.954 11.4894V10.4303C162.954 9.58605 162.762 8.87228 162.378 8.28899C162.01 7.69035 161.511 7.23753 160.882 6.93053C160.268 6.60819 159.592 6.44701 158.855 6.44701C158.042 6.44701 157.32 6.63889 156.691 7.02263C156.077 7.40638 155.594 7.94362 155.241 8.63436C154.903 9.3251 154.734 10.1386 154.734 11.075C154.734 12.0113 154.911 12.8325 155.264 13.5386C155.617 14.2294 156.108 14.7666 156.737 15.1503C157.366 15.5187 158.08 15.7029 158.878 15.7029ZM173.348 17.591C171.737 17.591 170.486 17.2456 169.595 16.5549C168.72 15.8641 168.268 14.9201 168.237 13.7228H170.309C170.34 14.1987 170.578 14.6515 171.023 15.0813C171.483 15.4957 172.259 15.7029 173.348 15.7029C174.331 15.7029 175.083 15.5111 175.605 15.1273C176.127 14.7282 176.388 14.2447 176.388 13.6768C176.388 13.1702 176.196 12.7788 175.812 12.5025C175.428 12.2109 174.807 12.019 173.947 11.9269L172.612 11.7887C171.445 11.6659 170.493 11.3206 169.757 10.7526C169.02 10.1693 168.651 9.3558 168.651 8.31201C168.651 7.52917 168.851 6.86146 169.25 6.30887C169.649 5.74092 170.202 5.31113 170.908 5.01948C171.614 4.71249 172.427 4.55899 173.348 4.55899C174.73 4.55899 175.85 4.86599 176.71 5.47998C177.57 6.09397 178.015 7.00728 178.045 8.21991H175.973C175.958 7.72872 175.728 7.31428 175.282 6.97658C174.853 6.62354 174.208 6.44701 173.348 6.44701C172.489 6.44701 171.836 6.62354 171.391 6.97658C170.946 7.32963 170.724 7.77477 170.724 8.31201C170.724 8.77251 170.877 9.1409 171.184 9.4172C171.506 9.69349 172.028 9.87002 172.75 9.94677L174.085 10.0849C175.405 10.2231 176.464 10.5915 177.263 11.1901C178.061 11.7734 178.46 12.6023 178.46 13.6768C178.46 14.4443 178.237 15.1273 177.792 15.726C177.362 16.3093 176.764 16.7697 175.996 17.1074C175.229 17.4298 174.346 17.591 173.348 17.591ZM192.566 17.637C191.492 17.637 190.548 17.4528 189.734 17.0844C188.921 16.716 188.23 16.2325 187.662 15.6339C187.11 15.0199 186.687 14.3368 186.396 13.5847C186.12 12.8325 185.981 12.065 185.981 11.2822V10.8678C185.981 10.0849 186.127 9.31742 186.419 8.56529C186.71 7.7978 187.14 7.11473 187.708 6.51609C188.276 5.9021 188.967 5.41858 189.78 5.06553C190.594 4.69714 191.523 4.51294 192.566 4.51294C193.61 4.51294 194.539 4.69714 195.352 5.06553C196.166 5.41858 196.857 5.9021 197.425 6.51609C197.993 7.11473 198.422 7.7978 198.714 8.56529C199.006 9.31742 199.152 10.0849 199.152 10.8678V11.2822C199.152 12.065 199.006 12.8325 198.714 13.5847C198.438 14.3368 198.016 15.0199 197.448 15.6339C196.895 16.2325 196.212 16.716 195.398 17.0844C194.585 17.4528 193.641 17.637 192.566 17.637ZM192.566 15.6569C193.487 15.6569 194.27 15.4573 194.915 15.0582C195.575 14.6438 196.074 14.0912 196.412 13.4005C196.765 12.7097 196.941 11.9346 196.941 11.075C196.941 10.2 196.765 9.4172 196.412 8.72646C196.059 8.03572 195.552 7.4908 194.892 7.0917C194.247 6.69261 193.472 6.49306 192.566 6.49306C191.676 6.49306 190.901 6.69261 190.241 7.0917C189.581 7.4908 189.074 8.03572 188.721 8.72646C188.368 9.4172 188.192 10.2 188.192 11.075C188.192 11.9346 188.361 12.7097 188.698 13.4005C189.051 14.0912 189.55 14.6438 190.195 15.0582C190.855 15.4573 191.645 15.6569 192.566 15.6569ZM202.784 17.2226V4.30572C202.784 2.93959 203.145 1.93417 203.867 1.28948C204.588 0.644792 205.647 0.322447 207.044 0.322447H208.564V2.16442H206.676C206.108 2.16442 205.67 2.32559 205.363 2.64794C205.056 2.95494 204.903 3.38473 204.903 3.93732V17.2226H202.784ZM201.081 6.72331V5.06553H208.794V6.72331H201.081ZM220.455 17.591C218.843 17.591 217.592 17.2456 216.702 16.5549C215.827 15.8641 215.374 14.9201 215.343 13.7228H217.415C217.446 14.1987 217.684 14.6515 218.129 15.0813C218.59 15.4957 219.365 15.7029 220.455 15.7029C221.437 15.7029 222.189 15.5111 222.711 15.1273C223.233 14.7282 223.494 14.2447 223.494 13.6768C223.494 13.1702 223.302 12.7788 222.918 12.5025C222.534 12.2109 221.913 12.019 221.053 11.9269L219.718 11.7887C218.551 11.6659 217.599 11.3206 216.863 10.7526C216.126 10.1693 215.758 9.3558 215.758 8.31201C215.758 7.52917 215.957 6.86146 216.356 6.30887C216.755 5.74092 217.308 5.31113 218.014 5.01948C218.72 4.71249 219.534 4.55899 220.455 4.55899C221.836 4.55899 222.957 4.86599 223.816 5.47998C224.676 6.09397 225.121 7.00728 225.152 8.21991H223.079C223.064 7.72872 222.834 7.31428 222.389 6.97658C221.959 6.62354 221.314 6.44701 220.455 6.44701C219.595 6.44701 218.943 6.62354 218.497 6.97658C218.052 7.32963 217.83 7.77477 217.83 8.31201C217.83 8.77251 217.983 9.1409 218.29 9.4172C218.613 9.69349 219.134 9.87002 219.856 9.94677L221.191 10.0849C222.511 10.2231 223.571 10.5915 224.369 11.1901C225.167 11.7734 225.566 12.6023 225.566 13.6768C225.566 14.4443 225.343 15.1273 224.898 15.726C224.469 16.3093 223.87 16.7697 223.102 17.1074C222.335 17.4298 221.452 17.591 220.455 17.591ZM233.559 17.3607C232.638 17.3607 231.839 17.2302 231.164 16.9693C230.504 16.7084 229.99 16.2632 229.621 15.6339C229.268 14.9892 229.092 14.1219 229.092 13.0321V1.19738H231.21V13.3084C231.21 13.9684 231.387 14.4826 231.74 14.851C232.108 15.2041 232.622 15.3806 233.282 15.3806H235.447V17.3607H233.559ZM226.974 6.58516V4.92738H235.447V6.58516H226.974ZM242.833 17.591C241.374 17.591 240.254 17.1151 239.471 16.1634C238.688 15.2117 238.297 13.8379 238.297 12.042V4.90436H240.507V12.4795C240.507 13.4465 240.768 14.2063 241.29 14.7589C241.812 15.2962 242.518 15.5648 243.408 15.5648C244.329 15.5648 245.081 15.2731 245.665 14.6899C246.248 14.0912 246.54 13.2777 246.54 12.2492V4.90436H248.75V17.2226H247V11.9499H247.276C247.276 13.1625 247.115 14.191 246.793 15.0352C246.47 15.8641 245.987 16.5011 245.342 16.9463C244.713 17.3761 243.907 17.591 242.925 17.591H242.833ZM258.165 17.637C257.29 17.637 256.485 17.4758 255.748 17.1535C255.011 16.8311 254.366 16.3783 253.814 15.795C253.276 15.2117 252.854 14.5364 252.547 13.7689C252.256 13.0014 252.11 12.1725 252.11 11.2822V10.8678C252.11 9.99282 252.256 9.1716 252.547 8.40411C252.839 7.63662 253.246 6.96123 253.768 6.37794C254.305 5.79465 254.934 5.34183 255.656 5.01948C256.392 4.68179 257.206 4.51294 258.096 4.51294C259.033 4.51294 259.885 4.71249 260.652 5.11158C261.42 5.49533 262.049 6.10164 262.54 6.93053C263.031 7.75942 263.308 8.83391 263.369 10.154L262.448 8.68041V0.414546H264.658V17.2226H262.908V11.7657H263.553C263.492 13.1625 263.2 14.2984 262.678 15.1734C262.156 16.033 261.496 16.6623 260.698 17.0614C259.915 17.4451 259.071 17.637 258.165 17.637ZM258.465 15.7029C259.217 15.7029 259.9 15.5341 260.514 15.1964C261.128 14.8587 261.619 14.3752 261.987 13.7458C262.356 13.1011 262.54 12.349 262.54 11.4894V10.4303C262.54 9.58605 262.348 8.87228 261.964 8.28899C261.596 7.69035 261.097 7.23753 260.468 6.93053C259.854 6.60819 259.178 6.44701 258.442 6.44701C257.628 6.44701 256.907 6.63889 256.277 7.02263C255.663 7.40638 255.18 7.94362 254.827 8.63436C254.489 9.3251 254.32 10.1386 254.32 11.075C254.32 12.0113 254.497 12.8325 254.85 13.5386C255.203 14.2294 255.694 14.7666 256.323 15.1503C256.953 15.5187 257.667 15.7029 258.465 15.7029ZM274.132 17.637C273.057 17.637 272.129 17.4528 271.346 17.0844C270.563 16.716 269.926 16.2325 269.435 15.6339C268.944 15.0199 268.575 14.3368 268.33 13.5847C268.099 12.8325 267.984 12.065 267.984 11.2822V10.8678C267.984 10.0696 268.099 9.2944 268.33 8.54226C268.575 7.79012 268.944 7.11473 269.435 6.51609C269.926 5.9021 270.548 5.41858 271.3 5.06553C272.067 4.69714 272.965 4.51294 273.994 4.51294C275.329 4.51294 276.427 4.80459 277.286 5.38788C278.161 5.95582 278.806 6.69261 279.22 7.59825C279.65 8.50389 279.865 9.47092 279.865 10.4994V11.4894H268.951V9.83164H278.253L277.747 10.7296C277.747 9.85467 277.609 9.10253 277.332 8.47319C277.056 7.8285 276.642 7.32963 276.089 6.97658C275.536 6.62354 274.838 6.44701 273.994 6.44701C273.119 6.44701 272.39 6.64656 271.806 7.04566C271.239 7.44475 270.809 7.98967 270.517 8.68041C270.241 9.37115 270.103 10.1693 270.103 11.075C270.103 11.9499 270.241 12.7404 270.517 13.4465C270.809 14.1373 271.254 14.6899 271.852 15.1043C272.451 15.5034 273.211 15.7029 274.132 15.7029C275.099 15.7029 275.882 15.488 276.48 15.0582C277.094 14.6285 277.463 14.1296 277.586 13.5616H279.658C279.489 14.4059 279.151 15.135 278.645 15.749C278.138 16.363 277.501 16.8311 276.734 17.1535C275.966 17.4758 275.099 17.637 274.132 17.637ZM283.003 17.2226V4.92738H284.753V10.2H284.477C284.477 8.9874 284.638 7.96664 284.961 7.13775C285.298 6.29352 285.805 5.6565 286.48 5.22671C287.156 4.78156 288.007 4.55899 289.036 4.55899H289.128C290.678 4.55899 291.822 5.04251 292.559 6.00954C293.311 6.97658 293.687 8.37341 293.687 10.2V17.2226H291.477V9.73954C291.477 8.78786 291.208 8.02804 290.671 7.4601C290.133 6.87681 289.397 6.58516 288.46 6.58516C287.493 6.58516 286.71 6.88448 286.112 7.48313C285.513 8.08177 285.214 8.87996 285.214 9.87769V17.2226H283.003ZM302.52 17.3607C301.599 17.3607 300.801 17.2302 300.126 16.9693C299.466 16.7084 298.951 16.2632 298.583 15.6339C298.23 14.9892 298.054 14.1219 298.054 13.0321V1.19738H300.172V13.3084C300.172 13.9684 300.348 14.4826 300.701 14.851C301.07 15.2041 301.584 15.3806 302.244 15.3806H304.408V17.3607H302.52ZM295.935 6.58516V4.92738H304.408V6.58516H295.935ZM311.474 17.591C309.862 17.591 308.611 17.2456 307.721 16.5549C306.846 15.8641 306.393 14.9201 306.363 13.7228H308.435C308.465 14.1987 308.703 14.6515 309.149 15.0813C309.609 15.4957 310.384 15.7029 311.474 15.7029C312.456 15.7029 313.209 15.5111 313.73 15.1273C314.252 14.7282 314.513 14.2447 314.513 13.6768C314.513 13.1702 314.321 12.7788 313.938 12.5025C313.554 12.2109 312.932 12.019 312.073 11.9269L310.737 11.7887C309.571 11.6659 308.619 11.3206 307.882 10.7526C307.145 10.1693 306.777 9.3558 306.777 8.31201C306.777 7.52917 306.977 6.86146 307.376 6.30887C307.775 5.74092 308.327 5.31113 309.033 5.01948C309.74 4.71249 310.553 4.55899 311.474 4.55899C312.856 4.55899 313.976 4.86599 314.836 5.47998C315.695 6.09397 316.14 7.00728 316.171 8.21991H314.099C314.083 7.72872 313.853 7.31428 313.408 6.97658C312.978 6.62354 312.334 6.44701 311.474 6.44701C310.614 6.44701 309.962 6.62354 309.517 6.97658C309.072 7.32963 308.849 7.77477 308.849 8.31201C308.849 8.77251 309.003 9.1409 309.31 9.4172C309.632 9.69349 310.154 9.87002 310.875 9.94677L312.211 10.0849C313.531 10.2231 314.59 10.5915 315.388 11.1901C316.186 11.7734 316.586 12.6023 316.586 13.6768C316.586 14.4443 316.363 15.1273 315.918 15.726C315.488 16.3093 314.889 16.7697 314.122 17.1074C313.354 17.4298 312.472 17.591 311.474 17.591ZM325.166 17.2226V0.414546H327.377V17.2226H325.166ZM323.462 2.16442V0.414546H327.377V2.16442H323.462ZM339.053 17.2226V13.5386H338.685V9.27905C338.685 8.43481 338.462 7.7978 338.017 7.368C337.587 6.93821 336.95 6.72331 336.106 6.72331C335.63 6.72331 335.139 6.73098 334.632 6.74633C334.126 6.76168 333.642 6.77703 333.182 6.79238C332.721 6.80773 332.322 6.83076 331.985 6.86146V4.92738C332.322 4.89668 332.675 4.87366 333.044 4.85831C333.427 4.82761 333.819 4.81226 334.218 4.81226C334.617 4.79691 335.001 4.78924 335.369 4.78924C336.628 4.78924 337.656 4.94273 338.454 5.24973C339.253 5.54138 339.844 6.02489 340.227 6.70029C340.611 7.37568 340.803 8.28899 340.803 9.44022V17.2226H339.053ZM335.024 17.5449C334.103 17.5449 333.305 17.3914 332.629 17.0844C331.969 16.7621 331.455 16.3016 331.087 15.7029C330.734 15.1043 330.557 14.3829 330.557 13.5386C330.557 12.6637 330.749 11.9346 331.133 11.3513C331.532 10.768 332.107 10.3305 332.859 10.0389C333.612 9.73187 334.517 9.57837 335.576 9.57837H338.915V11.2361H335.484C334.594 11.2361 333.911 11.451 333.435 11.8808C332.959 12.3106 332.721 12.8632 332.721 13.5386C332.721 14.214 332.959 14.7589 333.435 15.1734C333.911 15.5878 334.594 15.795 335.484 15.795C336.006 15.795 336.505 15.7029 336.981 15.5187C337.457 15.3192 337.848 14.9968 338.155 14.5517C338.477 14.0912 338.654 13.4619 338.685 12.6637L339.283 13.5386C339.207 14.4136 338.992 15.1503 338.639 15.749C338.301 16.3323 337.825 16.7774 337.211 17.0844C336.612 17.3914 335.883 17.5449 335.024 17.5449ZM344.86 17.2226V4.92738H346.61V10.2H346.333C346.333 8.9874 346.495 7.96664 346.817 7.13775C347.155 6.29352 347.661 5.6565 348.337 5.22671C349.012 4.78156 349.864 4.55899 350.892 4.55899H350.984C352.535 4.55899 353.678 5.04251 354.415 6.00954C355.167 6.97658 355.543 8.37341 355.543 10.2V17.2226H353.333V9.73954C353.333 8.78786 353.064 8.02804 352.527 7.4601C351.99 6.87681 351.253 6.58516 350.317 6.58516C349.35 6.58516 348.567 6.88448 347.968 7.48313C347.37 8.08177 347.07 8.87996 347.07 9.87769V17.2226H344.86ZM364.722 17.637C363.847 17.637 363.041 17.4758 362.304 17.1535C361.568 16.8311 360.923 16.3783 360.37 15.795C359.833 15.2117 359.411 14.5364 359.104 13.7689C358.812 13.0014 358.667 12.1725 358.667 11.2822V10.8678C358.667 9.99282 358.812 9.1716 359.104 8.40411C359.396 7.63662 359.802 6.96123 360.324 6.37794C360.862 5.79465 361.491 5.34183 362.212 5.01948C362.949 4.68179 363.763 4.51294 364.653 4.51294C365.589 4.51294 366.441 4.71249 367.209 5.11158C367.976 5.49533 368.606 6.10164 369.097 6.93053C369.588 7.75942 369.864 8.83391 369.926 10.154L369.005 8.68041V0.414546H371.215V17.2226H369.465V11.7657H370.11C370.048 13.1625 369.757 14.2984 369.235 15.1734C368.713 16.033 368.053 16.6623 367.255 17.0614C366.472 17.4451 365.628 17.637 364.722 17.637ZM365.021 15.7029C365.773 15.7029 366.457 15.5341 367.071 15.1964C367.685 14.8587 368.176 14.3752 368.544 13.7458C368.913 13.1011 369.097 12.349 369.097 11.4894V10.4303C369.097 9.58605 368.905 8.87228 368.521 8.28899C368.153 7.69035 367.654 7.23753 367.025 6.93053C366.411 6.60819 365.735 6.44701 364.998 6.44701C364.185 6.44701 363.463 6.63889 362.834 7.02263C362.22 7.40638 361.737 7.94362 361.383 8.63436C361.046 9.3251 360.877 10.1386 360.877 11.075C360.877 12.0113 361.053 12.8325 361.406 13.5386C361.76 14.2294 362.251 14.7666 362.88 15.1503C363.509 15.5187 364.223 15.7029 365.021 15.7029ZM376.061 17.2226V4.92738H378.271V17.2226H376.061ZM374.173 6.67726V4.92738H378.271V6.67726H374.173ZM376.682 2.94726C376.191 2.94726 375.823 2.81679 375.577 2.55584C375.347 2.29489 375.232 1.96487 375.232 1.56578C375.232 1.16669 375.347 0.836664 375.577 0.575718C375.823 0.314772 376.191 0.184299 376.682 0.184299C377.173 0.184299 377.534 0.314772 377.764 0.575718C378.01 0.836664 378.133 1.16669 378.133 1.56578C378.133 1.96487 378.01 2.29489 377.764 2.55584C377.534 2.81679 377.173 2.94726 376.682 2.94726ZM382.545 17.2226V4.92738H384.295V10.2H384.018C384.018 8.9874 384.18 7.96664 384.502 7.13775C384.84 6.29352 385.346 5.6565 386.021 5.22671C386.697 4.78156 387.549 4.55899 388.577 4.55899H388.669C390.22 4.55899 391.363 5.04251 392.1 6.00954C392.852 6.97658 393.228 8.37341 393.228 10.2V17.2226H391.018V9.73954C391.018 8.78786 390.749 8.02804 390.212 7.4601C389.675 6.87681 388.938 6.58516 388.002 6.58516C387.035 6.58516 386.252 6.88448 385.653 7.48313C385.054 8.08177 384.755 8.87996 384.755 9.87769V17.2226H382.545ZM401.923 22.0117C401.356 22.0117 400.78 21.9887 400.197 21.9426C399.629 21.8966 399.084 21.8352 398.562 21.7584V19.8934C399.114 19.9702 399.69 20.0316 400.289 20.0776C400.903 20.139 401.478 20.1697 402.016 20.1697C403.136 20.1697 404.026 20.0162 404.686 19.7092C405.362 19.4176 405.845 18.9494 406.137 18.3047C406.444 17.6754 406.597 16.8618 406.597 15.8641V13.5156L407.334 11.7657C407.288 13.0091 407.027 14.0452 406.551 14.874C406.076 15.6876 405.454 16.3016 404.686 16.716C403.934 17.1151 403.098 17.3147 402.177 17.3147C401.317 17.3147 400.527 17.1535 399.805 16.8311C399.099 16.4935 398.485 16.033 397.963 15.4497C397.457 14.8664 397.058 14.1987 396.766 13.4465C396.49 12.679 396.351 11.8732 396.351 11.0289V10.6145C396.351 9.75489 396.497 8.9567 396.789 8.21991C397.081 7.46777 397.487 6.81541 398.009 6.26282C398.531 5.71022 399.153 5.28043 399.874 4.97343C400.611 4.66644 401.417 4.51294 402.292 4.51294C403.32 4.51294 404.226 4.73551 405.009 5.18066C405.792 5.61045 406.406 6.24747 406.851 7.0917C407.311 7.92059 407.565 8.94136 407.611 10.154L406.966 10.177V4.92738H408.716V15.772C408.716 17.2456 408.485 18.4352 408.025 19.3408C407.58 20.2618 406.858 20.9372 405.861 21.367C404.878 21.7968 403.566 22.0117 401.923 22.0117ZM402.591 15.2885C403.328 15.2885 403.996 15.1273 404.594 14.805C405.208 14.4826 405.692 14.0221 406.045 13.4235C406.413 12.8095 406.597 12.0804 406.597 11.2361V10.177C406.597 9.34812 406.406 8.64971 406.022 8.08177C405.653 7.51382 405.17 7.08403 404.571 6.79238C403.973 6.50074 403.32 6.35491 402.614 6.35491C401.816 6.35491 401.11 6.53911 400.496 6.90751C399.882 7.2759 399.406 7.7978 399.068 8.47319C398.731 9.13323 398.562 9.91607 398.562 10.8217C398.562 11.7273 398.731 12.5179 399.068 13.1932C399.421 13.8686 399.897 14.3905 400.496 14.7589C401.11 15.112 401.808 15.2885 402.591 15.2885ZM415.884 21.9196V19.9395H417.174C417.757 19.9395 418.202 19.7783 418.509 19.456C418.831 19.1336 418.993 18.6885 418.993 18.1205V4.92738H421.111V17.7982C421.111 18.8266 420.965 19.6402 420.673 20.2388C420.397 20.8374 419.944 21.2672 419.315 21.5282C418.701 21.7891 417.88 21.9196 416.851 21.9196H415.884ZM417.059 6.67726V4.92738H421.111V6.67726H417.059ZM419.522 2.76306C419.031 2.76306 418.663 2.63259 418.417 2.37164C418.187 2.1107 418.072 1.78068 418.072 1.38158C418.072 0.982487 418.187 0.652467 418.417 0.391521C418.663 0.130574 419.031 0.000101079 419.522 0.000101079C420.013 0.000101079 420.374 0.130574 420.604 0.391521C420.85 0.652467 420.973 0.982487 420.973 1.38158C420.973 1.78068 420.85 2.1107 420.604 2.37164C420.374 2.63259 420.013 2.76306 419.522 2.76306ZM431.02 17.637C429.946 17.637 429.002 17.4528 428.188 17.0844C427.375 16.716 426.684 16.2325 426.116 15.6339C425.564 15.0199 425.141 14.3368 424.85 13.5847C424.573 12.8325 424.435 12.065 424.435 11.2822V10.8678C424.435 10.0849 424.581 9.31742 424.873 8.56529C425.164 7.7978 425.594 7.11473 426.162 6.51609C426.73 5.9021 427.421 5.41858 428.234 5.06553C429.048 4.69714 429.977 4.51294 431.02 4.51294C432.064 4.51294 432.993 4.69714 433.806 5.06553C434.62 5.41858 435.311 5.9021 435.879 6.51609C436.447 7.11473 436.876 7.7978 437.168 8.56529C437.46 9.31742 437.605 10.0849 437.605 10.8678V11.2822C437.605 12.065 437.46 12.8325 437.168 13.5847C436.892 14.3368 436.47 15.0199 435.902 15.6339C435.349 16.2325 434.666 16.716 433.852 17.0844C433.039 17.4528 432.095 17.637 431.02 17.637ZM431.02 15.6569C431.941 15.6569 432.724 15.4573 433.369 15.0582C434.029 14.6438 434.528 14.0912 434.865 13.4005C435.219 12.7097 435.395 11.9346 435.395 11.075C435.395 10.2 435.219 9.4172 434.865 8.72646C434.512 8.03572 434.006 7.4908 433.346 7.0917C432.701 6.69261 431.926 6.49306 431.02 6.49306C430.13 6.49306 429.355 6.69261 428.695 7.0917C428.035 7.4908 427.528 8.03572 427.175 8.72646C426.822 9.4172 426.646 10.2 426.646 11.075C426.646 11.9346 426.815 12.7097 427.152 13.4005C427.505 14.0912 428.004 14.6438 428.649 15.0582C429.309 15.4573 430.099 15.6569 431.02 15.6569ZM447.409 17.637C446.396 17.637 445.49 17.4144 444.692 16.9693C443.909 16.5242 443.287 15.8795 442.827 15.0352C442.366 14.1756 442.113 13.1472 442.067 11.9499H442.666V17.2226H440.916V0.414546H443.126V8.58831L442.343 10.2691C442.405 8.93368 442.673 7.84384 443.149 6.99961C443.625 6.15537 444.247 5.5337 445.014 5.13461C445.797 4.72016 446.657 4.51294 447.593 4.51294C448.468 4.51294 449.266 4.68179 449.988 5.01948C450.709 5.34183 451.331 5.79465 451.853 6.37794C452.375 6.94588 452.774 7.6136 453.05 8.38109C453.326 9.13323 453.464 9.94677 453.464 10.8217V11.2361C453.464 12.1111 453.319 12.9323 453.027 13.6998C452.751 14.4673 452.344 15.1503 451.807 15.749C451.269 16.3323 450.625 16.7928 449.873 17.1305C449.136 17.4682 448.315 17.637 447.409 17.637ZM447.156 15.7029C447.985 15.7029 448.706 15.5034 449.32 15.1043C449.934 14.7052 450.41 14.1603 450.747 13.4695C451.085 12.7635 451.254 11.9499 451.254 11.0289C451.254 10.1079 451.078 9.30208 450.724 8.61133C450.387 7.92059 449.911 7.39103 449.297 7.02263C448.683 6.63889 447.969 6.44701 447.156 6.44701C446.419 6.44701 445.736 6.61586 445.106 6.95356C444.477 7.2759 443.971 7.75175 443.587 8.38109C443.218 8.99508 443.034 9.73954 443.034 10.6145V11.6736C443.034 12.5179 443.226 13.2393 443.61 13.8379C443.994 14.4366 444.5 14.8971 445.129 15.2194C445.759 15.5418 446.434 15.7029 447.156 15.7029ZM462.628 17.2226V4.92738H464.838V17.2226H462.628ZM460.74 6.67726V4.92738H464.838V6.67726H460.74ZM463.25 2.94726C462.759 2.94726 462.39 2.81679 462.145 2.55584C461.914 2.29489 461.799 1.96487 461.799 1.56578C461.799 1.16669 461.914 0.836664 462.145 0.575718C462.39 0.314772 462.759 0.184299 463.25 0.184299C463.741 0.184299 464.102 0.314772 464.332 0.575718C464.577 0.836664 464.7 1.16669 464.7 1.56578C464.7 1.96487 464.577 2.29489 464.332 2.55584C464.102 2.81679 463.741 2.94726 463.25 2.94726ZM469.112 17.2226V4.92738H470.862V10.2H470.586C470.586 8.9874 470.747 7.96664 471.069 7.13775C471.407 6.29352 471.914 5.6565 472.589 5.22671C473.264 4.78156 474.116 4.55899 475.145 4.55899H475.237C476.787 4.55899 477.931 5.04251 478.667 6.00954C479.42 6.97658 479.796 8.37341 479.796 10.2V17.2226H477.585V9.73954C477.585 8.78786 477.317 8.02804 476.779 7.4601C476.242 6.87681 475.505 6.58516 474.569 6.58516C473.602 6.58516 472.819 6.88448 472.221 7.48313C471.622 8.08177 471.323 8.87996 471.323 9.87769V17.2226H469.112ZM495.572 17.637C494.559 17.637 493.653 17.4144 492.855 16.9693C492.072 16.5242 491.45 15.8795 490.99 15.0352C490.529 14.1756 490.276 13.1472 490.23 11.9499H490.829V17.2226H489.079V0.414546H491.289V8.58831L490.506 10.2691C490.568 8.93368 490.836 7.84384 491.312 6.99961C491.788 6.15537 492.41 5.5337 493.177 5.13461C493.96 4.72016 494.82 4.51294 495.756 4.51294C496.631 4.51294 497.429 4.68179 498.151 5.01948C498.872 5.34183 499.494 5.79465 500.016 6.37794C500.538 6.94588 500.937 7.6136 501.213 8.38109C501.489 9.13323 501.627 9.94677 501.627 10.8217V11.2361C501.627 12.1111 501.482 12.9323 501.19 13.6998C500.914 14.4673 500.507 15.1503 499.97 15.749C499.432 16.3323 498.788 16.7928 498.036 17.1305C497.299 17.4682 496.478 17.637 495.572 17.637ZM495.319 15.7029C496.147 15.7029 496.869 15.5034 497.483 15.1043C498.097 14.7052 498.573 14.1603 498.91 13.4695C499.248 12.7635 499.417 11.9499 499.417 11.0289C499.417 10.1079 499.24 9.30208 498.887 8.61133C498.55 7.92059 498.074 7.39103 497.46 7.02263C496.846 6.63889 496.132 6.44701 495.319 6.44701C494.582 6.44701 493.899 6.61586 493.269 6.95356C492.64 7.2759 492.134 7.75175 491.75 8.38109C491.381 8.99508 491.197 9.73954 491.197 10.6145V11.6736C491.197 12.5179 491.389 13.2393 491.773 13.8379C492.157 14.4366 492.663 14.8971 493.292 15.2194C493.922 15.5418 494.597 15.7029 495.319 15.7029ZM510.617 17.637C509.543 17.637 508.599 17.4528 507.785 17.0844C506.972 16.716 506.281 16.2325 505.713 15.6339C505.161 15.0199 504.738 14.3368 504.447 13.5847C504.171 12.8325 504.032 12.065 504.032 11.2822V10.8678C504.032 10.0849 504.178 9.31742 504.47 8.56529C504.761 7.7978 505.191 7.11473 505.759 6.51609C506.327 5.9021 507.018 5.41858 507.831 5.06553C508.645 4.69714 509.574 4.51294 510.617 4.51294C511.661 4.51294 512.59 4.69714 513.403 5.06553C514.217 5.41858 514.908 5.9021 515.476 6.51609C516.044 7.11473 516.473 7.7978 516.765 8.56529C517.057 9.31742 517.202 10.0849 517.202 10.8678V11.2822C517.202 12.065 517.057 12.8325 516.765 13.5847C516.489 14.3368 516.067 15.0199 515.499 15.6339C514.946 16.2325 514.263 16.716 513.449 17.0844C512.636 17.4528 511.692 17.637 510.617 17.637ZM510.617 15.6569C511.538 15.6569 512.321 15.4573 512.966 15.0582C513.626 14.6438 514.125 14.0912 514.463 13.4005C514.816 12.7097 514.992 11.9346 514.992 11.075C514.992 10.2 514.816 9.4172 514.463 8.72646C514.11 8.03572 513.603 7.4908 512.943 7.0917C512.298 6.69261 511.523 6.49306 510.617 6.49306C509.727 6.49306 508.952 6.69261 508.292 7.0917C507.632 7.4908 507.125 8.03572 506.772 8.72646C506.419 9.4172 506.243 10.2 506.243 11.075C506.243 11.9346 506.412 12.7097 506.749 13.4005C507.102 14.0912 507.601 14.6438 508.246 15.0582C508.906 15.4573 509.696 15.6569 510.617 15.6569ZM525.302 17.3607C524.381 17.3607 523.583 17.2302 522.908 16.9693C522.248 16.7084 521.733 16.2632 521.365 15.6339C521.012 14.9892 520.835 14.1219 520.835 13.0321V1.19738H522.954V13.3084C522.954 13.9684 523.13 14.4826 523.483 14.851C523.852 15.2041 524.366 15.3806 525.026 15.3806H527.19V17.3607H525.302ZM518.717 6.58516V4.92738H527.19V6.58516H518.717ZM530.316 17.2226V0.414546H532.527V10.4533H531.974C531.974 9.24068 532.128 8.19689 532.435 7.32195C532.757 6.43166 533.248 5.7486 533.908 5.27275C534.568 4.79691 535.413 4.55899 536.441 4.55899H536.533C538.007 4.55899 539.12 5.05018 539.872 6.03257C540.624 6.99961 541 8.38876 541 10.2V17.2226H538.79V9.73954C538.79 8.74181 538.506 7.96664 537.938 7.41405C537.385 6.86146 536.664 6.58516 535.773 6.58516C534.791 6.58516 534 6.91518 533.402 7.57522C532.819 8.21991 532.527 9.07183 532.527 10.131V17.2226H530.316ZM194.294 46.2537V42.5697H193.926V38.3102C193.926 37.4659 193.703 36.8289 193.258 36.3991C192.828 35.9693 192.191 35.7544 191.347 35.7544C190.871 35.7544 190.38 35.7621 189.874 35.7775C189.367 35.7928 188.884 35.8082 188.423 35.8235C187.963 35.8389 187.563 35.8619 187.226 35.8926V33.9585C187.563 33.9278 187.917 33.9048 188.285 33.8894C188.669 33.8587 189.06 33.8434 189.459 33.8434C189.858 33.828 190.242 33.8204 190.61 33.8204C191.869 33.8204 192.898 33.9739 193.696 34.2809C194.494 34.5725 195.085 35.056 195.469 35.7314C195.852 36.4068 196.044 37.3201 196.044 38.4714V46.2537H194.294ZM190.265 46.576C189.344 46.576 188.546 46.4225 187.87 46.1155C187.21 45.7932 186.696 45.3327 186.328 44.7341C185.975 44.1354 185.798 43.414 185.798 42.5697C185.798 41.6948 185.99 40.9657 186.374 40.3824C186.773 39.7991 187.349 39.3616 188.101 39.07C188.853 38.763 189.759 38.6095 190.818 38.6095H194.156V40.2673H190.726C189.835 40.2673 189.152 40.4822 188.676 40.912C188.201 41.3418 187.963 41.8944 187.963 42.5697C187.963 43.2451 188.201 43.7901 188.676 44.2045C189.152 44.6189 189.835 44.8262 190.726 44.8262C191.247 44.8262 191.746 44.7341 192.222 44.5499C192.698 44.3503 193.089 44.028 193.396 43.5828C193.719 43.1223 193.895 42.493 193.926 41.6948L194.525 42.5697C194.448 43.4447 194.233 44.1815 193.88 44.7801C193.542 45.3634 193.066 45.8086 192.452 46.1155C191.854 46.4225 191.125 46.576 190.265 46.576ZM200.101 46.2537V33.9585H201.851V39.2312H201.575C201.575 38.0185 201.736 36.9978 202.058 36.1689C202.396 35.3246 202.902 34.6876 203.578 34.2578C204.253 33.8127 205.105 33.5901 206.134 33.5901H206.226C207.776 33.5901 208.92 34.0736 209.656 35.0407C210.408 36.0077 210.785 37.4045 210.785 39.2312V46.2537H208.574V38.7707C208.574 37.819 208.306 37.0592 207.768 36.4912C207.231 35.9079 206.494 35.6163 205.558 35.6163C204.591 35.6163 203.808 35.9156 203.209 36.5143C202.611 37.1129 202.311 37.9111 202.311 38.9088V46.2537H200.101ZM219.963 46.6681C219.088 46.6681 218.283 46.507 217.546 46.1846C216.809 45.8623 216.164 45.4095 215.612 44.8262C215.074 44.2429 214.652 43.5675 214.345 42.8C214.054 42.0325 213.908 41.2036 213.908 40.3133V39.8989C213.908 39.0239 214.054 38.2027 214.345 37.4352C214.637 36.6678 215.044 35.9924 215.566 35.4091C216.103 34.8258 216.732 34.373 217.454 34.0506C218.19 33.7129 219.004 33.5441 219.894 33.5441C220.831 33.5441 221.682 33.7436 222.45 34.1427C223.217 34.5265 223.847 35.1328 224.338 35.9617C224.829 36.7905 225.105 37.865 225.167 39.1851L224.246 37.7115V29.4457H226.456V46.2537H224.706V40.7968H225.351C225.29 42.1937 224.998 43.3296 224.476 44.2045C223.954 45.0641 223.294 45.6934 222.496 46.0925C221.713 46.4763 220.869 46.6681 219.963 46.6681ZM220.263 44.7341C221.015 44.7341 221.698 44.5652 222.312 44.2275C222.926 43.8898 223.417 43.4063 223.785 42.777C224.154 42.1323 224.338 41.3801 224.338 40.5205V39.4614C224.338 38.6172 224.146 37.9034 223.762 37.3201C223.394 36.7215 222.895 36.2687 222.266 35.9617C221.652 35.6393 220.976 35.4781 220.24 35.4781C219.426 35.4781 218.705 35.67 218.075 36.0538C217.461 36.4375 216.978 36.9747 216.625 37.6655C216.287 38.3562 216.118 39.1698 216.118 40.1061C216.118 41.0424 216.295 41.8637 216.648 42.5697C217.001 43.2605 217.492 43.7977 218.121 44.1815C218.751 44.5499 219.464 44.7341 220.263 44.7341ZM294.71 46.2537V33.9585H296.92V46.2537H294.71ZM292.822 35.7084V33.9585H296.92V35.7084H292.822ZM295.331 31.9784C294.84 31.9784 294.472 31.8479 294.226 31.587C293.996 31.326 293.881 30.996 293.881 30.5969C293.881 30.1978 293.996 29.8678 294.226 29.6068C294.472 29.3459 294.84 29.2154 295.331 29.2154C295.823 29.2154 296.183 29.3459 296.414 29.6068C296.659 29.8678 296.782 30.1978 296.782 30.5969C296.782 30.996 296.659 31.326 296.414 31.587C296.183 31.8479 295.823 31.9784 295.331 31.9784ZM301.194 46.2537V33.9585H302.944V39.2312H302.667C302.667 38.0185 302.829 36.9978 303.151 36.1689C303.489 35.3246 303.995 34.6876 304.671 34.2578C305.346 33.8127 306.198 33.5901 307.226 33.5901H307.318C308.869 33.5901 310.012 34.0736 310.749 35.0407C311.501 36.0077 311.877 37.4045 311.877 39.2312V46.2537H309.667V38.7707C309.667 37.819 309.398 37.0592 308.861 36.4912C308.324 35.9079 307.587 35.6163 306.651 35.6163C305.684 35.6163 304.901 35.9156 304.302 36.5143C303.704 37.1129 303.404 37.9111 303.404 38.9088V46.2537H301.194ZM321.056 46.6681C320.181 46.6681 319.375 46.507 318.638 46.1846C317.902 45.8623 317.257 45.4095 316.704 44.8262C316.167 44.2429 315.745 43.5675 315.438 42.8C315.146 42.0325 315.001 41.2036 315.001 40.3133V39.8989C315.001 39.0239 315.146 38.2027 315.438 37.4352C315.73 36.6678 316.136 35.9924 316.658 35.4091C317.196 34.8258 317.825 34.373 318.546 34.0506C319.283 33.7129 320.097 33.5441 320.987 33.5441C321.923 33.5441 322.775 33.7436 323.543 34.1427C324.31 34.5265 324.94 35.1328 325.431 35.9617C325.922 36.7905 326.198 37.865 326.26 39.1851L325.339 37.7115V29.4457H327.549V46.2537H325.799V40.7968H326.444C326.382 42.1937 326.091 43.3296 325.569 44.2045C325.047 45.0641 324.387 45.6934 323.589 46.0925C322.806 46.4763 321.962 46.6681 321.056 46.6681ZM321.355 44.7341C322.108 44.7341 322.791 44.5652 323.405 44.2275C324.019 43.8898 324.51 43.4063 324.878 42.777C325.247 42.1323 325.431 41.3801 325.431 40.5205V39.4614C325.431 38.6172 325.239 37.9034 324.855 37.3201C324.487 36.7215 323.988 36.2687 323.359 35.9617C322.745 35.6393 322.069 35.4781 321.332 35.4781C320.519 35.4781 319.797 35.67 319.168 36.0538C318.554 36.4375 318.071 36.9747 317.717 37.6655C317.38 38.3562 317.211 39.1698 317.211 40.1061C317.211 41.0424 317.387 41.8637 317.741 42.5697C318.094 43.2605 318.585 43.7977 319.214 44.1815C319.843 44.5499 320.557 44.7341 321.355 44.7341ZM336.056 46.6221C334.597 46.6221 333.477 46.1462 332.694 45.1946C331.911 44.2429 331.52 42.8691 331.52 41.0731V33.9355H333.73V41.5106C333.73 42.4776 333.991 43.2375 334.513 43.7901C335.035 44.3273 335.741 44.5959 336.631 44.5959C337.552 44.5959 338.304 44.3043 338.888 43.721C339.471 43.1223 339.763 42.3088 339.763 41.2804V33.9355H341.973V46.2537H340.223V40.981H340.499C340.499 42.1937 340.338 43.2221 340.016 44.0664C339.693 44.8952 339.21 45.5323 338.565 45.9774C337.936 46.4072 337.13 46.6221 336.148 46.6221H336.056ZM350.283 46.6221C348.671 46.6221 347.42 46.2767 346.53 45.586C345.655 44.8952 345.202 43.9512 345.172 42.7539H347.244C347.275 43.2298 347.513 43.6826 347.958 44.1124C348.418 44.5268 349.193 44.7341 350.283 44.7341C351.266 44.7341 352.018 44.5422 352.54 44.1584C353.062 43.7594 353.322 43.2758 353.322 42.7079C353.322 42.2014 353.131 41.8099 352.747 41.5336C352.363 41.242 351.741 41.0501 350.882 40.958L349.546 40.8199C348.38 40.6971 347.428 40.3517 346.691 39.7838C345.955 39.2005 345.586 38.3869 345.586 37.3431C345.586 36.5603 345.786 35.8926 346.185 35.34C346.584 34.7721 347.137 34.3423 347.843 34.0506C348.549 33.7436 349.362 33.5901 350.283 33.5901C351.665 33.5901 352.785 33.8971 353.645 34.5111C354.504 35.1251 354.95 36.0384 354.98 37.251H352.908C352.893 36.7598 352.662 36.3454 352.217 36.0077C351.787 35.6547 351.143 35.4781 350.283 35.4781C349.424 35.4781 348.771 35.6547 348.326 36.0077C347.881 36.3608 347.658 36.8059 347.658 37.3431C347.658 37.8036 347.812 38.172 348.119 38.4483C348.441 38.7246 348.963 38.9011 349.685 38.9779L351.02 39.116C352.34 39.2542 353.399 39.6226 354.197 40.2212C354.996 40.8045 355.395 41.6334 355.395 42.7079C355.395 43.4754 355.172 44.1584 354.727 44.7571C354.297 45.3404 353.699 45.8009 352.931 46.1386C352.164 46.4609 351.281 46.6221 350.283 46.6221ZM363.387 46.3918C362.466 46.3918 361.668 46.2614 360.993 46.0004C360.333 45.7395 359.818 45.2943 359.45 44.665C359.097 44.0203 358.921 43.153 358.921 42.0632V30.2285H361.039V42.3395C361.039 42.9995 361.215 43.5138 361.568 43.8822C361.937 44.2352 362.451 44.4117 363.111 44.4117H365.275V46.3918H363.387ZM356.802 35.6163V33.9585H365.275V35.6163H356.802ZM368.402 46.2537V33.9585H370.152V39.0239H370.059C370.059 37.228 370.451 35.9156 371.234 35.0867C372.032 34.2425 373.222 33.8204 374.803 33.8204H375.217V35.8005H374.434C373.206 35.8005 372.262 36.1305 371.602 36.7905C370.942 37.4352 370.612 38.3716 370.612 39.5996V46.2537H368.402ZM378.444 46.2537V33.9585H380.654V46.2537H378.444ZM376.556 35.7084V33.9585H380.654V35.7084H376.556ZM379.066 31.9784C378.575 31.9784 378.206 31.8479 377.961 31.587C377.73 31.326 377.615 30.996 377.615 30.5969C377.615 30.1978 377.73 29.8678 377.961 29.6068C378.206 29.3459 378.575 29.2154 379.066 29.2154C379.557 29.2154 379.918 29.3459 380.148 29.6068C380.393 29.8678 380.516 30.1978 380.516 30.5969C380.516 30.996 380.393 31.326 380.148 31.587C379.918 31.8479 379.557 31.9784 379.066 31.9784ZM390.155 46.6681C389.08 46.6681 388.152 46.4839 387.369 46.1155C386.586 45.7472 385.949 45.2636 385.458 44.665C384.967 44.051 384.598 43.3679 384.353 42.6158C384.122 41.8637 384.007 41.0962 384.007 40.3133V39.8989C384.007 39.1007 384.122 38.3255 384.353 37.5734C384.598 36.8212 384.967 36.1459 385.458 35.5472C385.949 34.9332 386.571 34.4497 387.323 34.0967C388.09 33.7283 388.988 33.5441 390.017 33.5441C391.352 33.5441 392.45 33.8357 393.309 34.419C394.184 34.9869 394.829 35.7237 395.243 36.6294C395.673 37.535 395.888 38.5021 395.888 39.5305V40.5205H384.974V38.8628H394.276L393.77 39.7607C393.77 38.8858 393.632 38.1337 393.355 37.5043C393.079 36.8596 392.664 36.3608 392.112 36.0077C391.559 35.6547 390.861 35.4781 390.017 35.4781C389.142 35.4781 388.413 35.6777 387.829 36.0768C387.261 36.4759 386.832 37.0208 386.54 37.7115C386.264 38.4023 386.125 39.2005 386.125 40.1061C386.125 40.981 386.264 41.7716 386.54 42.4776C386.832 43.1684 387.277 43.721 387.875 44.1354C388.474 44.5345 389.234 44.7341 390.155 44.7341C391.122 44.7341 391.905 44.5192 392.503 44.0894C393.117 43.6596 393.486 43.1607 393.608 42.5928H395.681C395.512 43.437 395.174 44.1661 394.668 44.7801C394.161 45.3941 393.524 45.8623 392.757 46.1846C391.989 46.507 391.122 46.6681 390.155 46.6681ZM403.056 46.6221C401.444 46.6221 400.193 46.2767 399.303 45.586C398.428 44.8952 397.975 43.9512 397.944 42.7539H400.016C400.047 43.2298 400.285 43.6826 400.73 44.1124C401.191 44.5268 401.966 44.7341 403.056 44.7341C404.038 44.7341 404.79 44.5422 405.312 44.1584C405.834 43.7594 406.095 43.2758 406.095 42.7079C406.095 42.2014 405.903 41.8099 405.519 41.5336C405.136 41.242 404.514 41.0501 403.654 40.958L402.319 40.8199C401.152 40.6971 400.201 40.3517 399.464 39.7838C398.727 39.2005 398.359 38.3869 398.359 37.3431C398.359 36.5603 398.558 35.8926 398.957 35.34C399.356 34.7721 399.909 34.3423 400.615 34.0506C401.321 33.7436 402.135 33.5901 403.056 33.5901C404.437 33.5901 405.558 33.8971 406.417 34.5111C407.277 35.1251 407.722 36.0384 407.753 37.251H405.68C405.665 36.7598 405.435 36.3454 404.99 36.0077C404.56 35.6547 403.915 35.4781 403.056 35.4781C402.196 35.4781 401.544 35.6547 401.099 36.0077C400.653 36.3608 400.431 36.8059 400.431 37.3431C400.431 37.8036 400.584 38.172 400.891 38.4483C401.214 38.7246 401.736 38.9011 402.457 38.9779L403.792 39.116C405.112 39.2542 406.172 39.6226 406.97 40.2212C407.768 40.8045 408.167 41.6334 408.167 42.7079C408.167 43.4754 407.945 44.1584 407.499 44.7571C407.07 45.3404 406.471 45.8009 405.703 46.1386C404.936 46.4609 404.053 46.6221 403.056 46.6221ZM410.708 46.2537V43.4447H413.379V46.2537H410.708Z" fill="black"/>
<path d="M133.905 46.3918C132.984 46.3918 132.186 46.2614 131.51 46.0004C130.85 45.7395 130.336 45.2943 129.968 44.665C129.615 44.0203 129.438 43.153 129.438 42.0632V30.2285H131.556V42.3395C131.556 42.9995 131.733 43.5138 132.086 43.8822C132.454 44.2352 132.969 44.4117 133.629 44.4117H135.793V46.3918H133.905ZM127.32 35.6163V33.9585H135.793V35.6163H127.32ZM144.056 46.6681C142.981 46.6681 142.053 46.4839 141.27 46.1155C140.487 45.7472 139.85 45.2636 139.359 44.665C138.868 44.051 138.499 43.3679 138.254 42.6158C138.023 41.8637 137.908 41.0962 137.908 40.3133V39.8989C137.908 39.1007 138.023 38.3255 138.254 37.5734C138.499 36.8212 138.868 36.1459 139.359 35.5472C139.85 34.9332 140.472 34.4497 141.224 34.0967C141.991 33.7283 142.889 33.5441 143.918 33.5441C145.253 33.5441 146.351 33.8357 147.21 34.419C148.085 34.9869 148.73 35.7237 149.144 36.6294C149.574 37.535 149.789 38.5021 149.789 39.5305V40.5205H138.875V38.8628H148.177L147.671 39.7607C147.671 38.8858 147.533 38.1337 147.256 37.5043C146.98 36.8596 146.566 36.3608 146.013 36.0077C145.46 35.6547 144.762 35.4781 143.918 35.4781C143.043 35.4781 142.314 35.6777 141.73 36.0768C141.163 36.4759 140.733 37.0208 140.441 37.7115C140.165 38.4023 140.027 39.2005 140.027 40.1061C140.027 40.981 140.165 41.7716 140.441 42.4776C140.733 43.1684 141.178 43.721 141.777 44.1354C142.375 44.5345 143.135 44.7341 144.056 44.7341C145.023 44.7341 145.806 44.5192 146.404 44.0894C147.018 43.6596 147.387 43.1607 147.51 42.5928H149.582C149.413 43.437 149.075 44.1661 148.569 44.7801C148.062 45.3941 147.425 45.8623 146.658 46.1846C145.89 46.507 145.023 46.6681 144.056 46.6681ZM158.2 46.6681C157.141 46.6681 156.22 46.4839 155.437 46.1155C154.67 45.7472 154.033 45.256 153.526 44.642C153.02 44.0126 152.636 43.3219 152.375 42.5697C152.129 41.8176 152.006 41.0655 152.006 40.3133V39.8989C152.006 39.116 152.129 38.3486 152.375 37.5964C152.636 36.8443 153.02 36.1689 153.526 35.5702C154.048 34.9562 154.693 34.4651 155.46 34.0967C156.228 33.7283 157.126 33.5441 158.154 33.5441C159.183 33.5441 160.103 33.7359 160.917 34.1197C161.746 34.5034 162.406 35.0483 162.897 35.7544C163.404 36.4452 163.688 37.2664 163.749 38.2181H161.631C161.523 37.4506 161.17 36.8136 160.572 36.307C159.973 35.7851 159.167 35.5242 158.154 35.5242C157.279 35.5242 156.55 35.7237 155.967 36.1228C155.383 36.5219 154.946 37.0668 154.654 37.7576C154.363 38.4483 154.217 39.2312 154.217 40.1061C154.217 40.9503 154.363 41.7255 154.654 42.4316C154.946 43.1223 155.383 43.6749 155.967 44.0894C156.565 44.4885 157.31 44.688 158.2 44.688C158.891 44.688 159.49 44.5652 159.996 44.3196C160.503 44.074 160.909 43.744 161.216 43.3296C161.523 42.9151 161.708 42.4469 161.769 41.9251H163.887C163.841 42.8921 163.557 43.7287 163.035 44.4347C162.529 45.1408 161.853 45.6934 161.009 46.0925C160.18 46.4763 159.244 46.6681 158.2 46.6681ZM166.891 46.2537V29.4457H169.101V39.4844H168.548C168.548 38.2718 168.702 37.228 169.009 36.3531C169.331 35.4628 169.822 34.7797 170.483 34.3039C171.143 33.828 171.987 33.5901 173.015 33.5901H173.107C174.581 33.5901 175.694 34.0813 176.446 35.0637C177.198 36.0307 177.574 37.4199 177.574 39.2312V46.2537H175.364V38.7707C175.364 37.7729 175.08 36.9978 174.512 36.4452C173.959 35.8926 173.238 35.6163 172.348 35.6163C171.365 35.6163 170.575 35.9463 169.976 36.6064C169.393 37.251 169.101 38.103 169.101 39.1621V46.2537H166.891ZM241.215 46.6681C240.156 46.6681 239.235 46.4839 238.452 46.1155C237.684 45.7472 237.047 45.256 236.541 44.642C236.034 44.0126 235.651 43.3219 235.39 42.5697C235.144 41.8176 235.021 41.0655 235.021 40.3133V39.8989C235.021 39.116 235.144 38.3486 235.39 37.5964C235.651 36.8443 236.034 36.1689 236.541 35.5702C237.063 34.9562 237.707 34.4651 238.475 34.0967C239.242 33.7283 240.14 33.5441 241.169 33.5441C242.197 33.5441 243.118 33.7359 243.932 34.1197C244.761 34.5034 245.421 35.0483 245.912 35.7544C246.418 36.4452 246.702 37.2664 246.764 38.2181H244.646C244.538 37.4506 244.185 36.8136 243.586 36.307C242.988 35.7851 242.182 35.5242 241.169 35.5242C240.294 35.5242 239.565 35.7237 238.982 36.1228C238.398 36.5219 237.961 37.0668 237.669 37.7576C237.377 38.4483 237.232 39.2312 237.232 40.1061C237.232 40.9503 237.377 41.7255 237.669 42.4316C237.961 43.1223 238.398 43.6749 238.982 44.0894C239.58 44.4885 240.325 44.688 241.215 44.688C241.906 44.688 242.504 44.5652 243.011 44.3196C243.517 44.074 243.924 43.744 244.231 43.3296C244.538 42.9151 244.722 42.4469 244.784 41.9251H246.902C246.856 42.8921 246.572 43.7287 246.05 44.4347C245.544 45.1408 244.868 45.6934 244.024 46.0925C243.195 46.4763 242.259 46.6681 241.215 46.6681ZM255.57 46.6681C254.495 46.6681 253.551 46.4839 252.738 46.1155C251.924 45.7472 251.233 45.2636 250.665 44.665C250.113 44.051 249.691 43.3679 249.399 42.6158C249.123 41.8637 248.984 41.0962 248.984 40.3133V39.8989C248.984 39.116 249.13 38.3486 249.422 37.5964C249.714 36.8289 250.143 36.1459 250.711 35.5472C251.279 34.9332 251.97 34.4497 252.784 34.0967C253.597 33.7283 254.526 33.5441 255.57 33.5441C256.613 33.5441 257.542 33.7283 258.356 34.0967C259.169 34.4497 259.86 34.9332 260.428 35.5472C260.996 36.1459 261.425 36.8289 261.717 37.5964C262.009 38.3486 262.155 39.116 262.155 39.8989V40.3133C262.155 41.0962 262.009 41.8637 261.717 42.6158C261.441 43.3679 261.019 44.051 260.451 44.665C259.898 45.2636 259.215 45.7472 258.402 46.1155C257.588 46.4839 256.644 46.6681 255.57 46.6681ZM255.57 44.688C256.491 44.688 257.273 44.4885 257.918 44.0894C258.578 43.6749 259.077 43.1223 259.415 42.4316C259.768 41.7409 259.944 40.9657 259.944 40.1061C259.944 39.2312 259.768 38.4483 259.415 37.7576C259.062 37.0668 258.555 36.5219 257.895 36.1228C257.25 35.7237 256.475 35.5242 255.57 35.5242C254.679 35.5242 253.904 35.7237 253.244 36.1228C252.584 36.5219 252.077 37.0668 251.724 37.7576C251.371 38.4483 251.195 39.2312 251.195 40.1061C251.195 40.9657 251.364 41.7409 251.701 42.4316C252.054 43.1223 252.553 43.6749 253.198 44.0894C253.858 44.4885 254.649 44.688 255.57 44.688ZM265.465 46.2537V33.9585H267.215V39.0239H267.123C267.123 37.228 267.514 35.9156 268.297 35.0867C269.095 34.2425 270.285 33.8204 271.866 33.8204H272.28V35.8005H271.498C270.27 35.8005 269.326 36.1305 268.666 36.7905C268.006 37.4352 267.675 38.3716 267.675 39.5996V46.2537H265.465ZM280.001 46.6681C278.926 46.6681 277.997 46.4839 277.215 46.1155C276.432 45.7472 275.795 45.2636 275.304 44.665C274.812 44.051 274.444 43.3679 274.198 42.6158C273.968 41.8637 273.853 41.0962 273.853 40.3133V39.8989C273.853 39.1007 273.968 38.3255 274.198 37.5734C274.444 36.8212 274.812 36.1459 275.304 35.5472C275.795 34.9332 276.416 34.4497 277.169 34.0967C277.936 33.7283 278.834 33.5441 279.862 33.5441C281.198 33.5441 282.295 33.8357 283.155 34.419C284.03 34.9869 284.675 35.7237 285.089 36.6294C285.519 37.535 285.734 38.5021 285.734 39.5305V40.5205H274.82V38.8628H284.122L283.615 39.7607C283.615 38.8858 283.477 38.1337 283.201 37.5043C282.925 36.8596 282.51 36.3608 281.958 36.0077C281.405 35.6547 280.707 35.4781 279.862 35.4781C278.987 35.4781 278.258 35.6777 277.675 36.0768C277.107 36.4759 276.677 37.0208 276.386 37.7115C276.109 38.4023 275.971 39.2005 275.971 40.1061C275.971 40.981 276.109 41.7716 276.386 42.4776C276.677 43.1684 277.122 43.721 277.721 44.1354C278.32 44.5345 279.08 44.7341 280.001 44.7341C280.968 44.7341 281.75 44.5192 282.349 44.0894C282.963 43.6596 283.331 43.1607 283.454 42.5928H285.526C285.358 43.437 285.02 44.1661 284.513 44.7801C284.007 45.3941 283.37 45.8623 282.602 46.1846C281.835 46.507 280.968 46.6681 280.001 46.6681Z" fill="url(#paint0_linear_2_6335)"/>
<defs>
<linearGradient id="paint0_linear_2_6335" x1="491.762" y1="28.2944" x2="55.7547" y2="-262.236" gradientUnits="userSpaceOnUse">
<stop stop-color="#673AB7"/>
<stop offset="1" stop-color="#00BFA6"/>
</linearGradient>
</defs>
</svg>
