<svg width="65" height="170" viewBox="0 0 65 170" fill="none" xmlns="http://www.w3.org/2000/svg">
<g clip-path="url(#clip0_2_6315)">
<path d="M17.5604 3.41422C18.8203 2.15429 17.928 0 16.1462 0L4.82842 0C3.04661 0 2.15428 2.15428 3.41421 3.41421L9.07308 9.07308C9.85413 9.85413 11.1205 9.85413 11.9015 9.07308L17.5604 3.41422Z" fill="#FACD49"/>
<path d="M17.5604 38.9528C18.8203 37.6929 17.928 35.5386 16.1462 35.5386H4.82842C3.04661 35.5386 2.15428 37.6929 3.41421 38.9528L9.07308 44.6117C9.85413 45.3927 11.1205 45.3927 11.9015 44.6117L17.5604 38.9528Z" fill="#FACD49"/>
<path d="M17.5603 74.5065C18.8203 73.2466 17.9279 71.0923 16.1461 71.0923H4.82839C3.04658 71.0923 2.15425 73.2466 3.41418 74.5065L9.07305 80.1654C9.8541 80.9464 11.1204 80.9464 11.9015 80.1654L17.5603 74.5065Z" fill="#FACD49"/>
<path d="M17.5603 110.045C18.8203 108.785 17.9279 106.631 16.1461 106.631H4.82839C3.04658 106.631 2.15425 108.785 3.41418 110.045L9.07305 115.704C9.8541 116.485 11.1204 116.485 11.9015 115.704L17.5603 110.045Z" fill="#FACD49"/>
<path d="M17.5663 145.583C18.8248 144.322 17.9322 142.169 16.1511 142.169H4.82347C3.04235 142.169 2.14971 144.322 3.40824 145.583L9.07203 151.255C9.85331 152.037 11.1212 152.037 11.9025 151.255L17.5663 145.583Z" fill="#FACD49"/>
<path d="M61.5855 20.6911C62.8455 19.4311 61.9531 17.2769 60.1713 17.2769H48.8536C47.0718 17.2769 46.1794 19.4311 47.4394 20.6911L53.0982 26.3499C53.8793 27.131 55.1456 27.131 55.9267 26.3499L61.5855 20.6911Z" fill="#FACD49"/>
<path d="M61.5857 56.2448C62.8456 54.9849 61.9533 52.8306 60.1715 52.8306H48.8538C47.0719 52.8306 46.1796 54.9849 47.4395 56.2448L53.0984 61.9036C53.8795 62.6847 55.1458 62.6847 55.9268 61.9036L61.5857 56.2448Z" fill="#FACD49"/>
<path d="M61.5857 91.7834C62.8456 90.5234 61.9533 88.3691 60.1715 88.3691H48.8538C47.0719 88.3691 46.1796 90.5234 47.4395 91.7834L53.0984 97.4422C53.8795 98.2233 55.1458 98.2233 55.9268 97.4422L61.5857 91.7834Z" fill="#FACD49"/>
<path d="M61.5857 127.322C62.8456 126.062 61.9533 123.908 60.1715 123.908H48.8538C47.0719 123.908 46.1796 126.062 47.4395 127.322L53.0984 132.981C53.8795 133.762 55.1458 133.762 55.9268 132.981L61.5857 127.322Z" fill="#FACD49"/>
<path d="M61.5857 162.876C62.8456 161.616 61.9533 159.461 60.1715 159.461H48.8538C47.0719 159.461 46.1796 161.616 47.4395 162.876L53.0984 168.535C53.8795 169.316 55.1458 169.316 55.9268 168.535L61.5857 162.876Z" fill="#FACD49"/>
</g>
<defs>
<clipPath id="clip0_2_6315">
<rect width="65" height="169.949" fill="white"/>
</clipPath>
</defs>
</svg>
