<svg width="500" height="200" viewBox="0 0 500 200" fill="none" xmlns="http://www.w3.org/2000/svg">
<mask id="path-1-inside-1_0_10" fill="white">
<path d="M450 0C477.614 6.4426e-06 500 22.3858 500 50C500 63.3037 492.917 75.9225 488.805 88.5748C487.013 94.0889 486 100.355 486 107C486 119.423 489.541 130.523 495.095 137.859C497.79 141.419 500 145.534 500 150C500 177.614 477.614 200 450 200H50C22.3858 200 0 177.614 0 150V50C0 22.3858 22.3858 4.02663e-07 50 0H450Z"/>
</mask>
<path d="M450 0V-2V0ZM450 200V202V200ZM50 200V202V200ZM50 0V-2V0ZM495.095 137.859L493.5 139.066L495.095 137.859ZM488.805 88.5748L490.707 89.1929L488.805 88.5748ZM450 0V2C476.51 2.00001 498 23.4903 498 50H500H502C502 21.2812 478.719 -1.99999 450 -2V0ZM488.805 88.5748L486.903 87.9566C485.043 93.6798 484 100.155 484 107H486H488C488 100.555 488.983 94.4981 490.707 89.1929L488.805 88.5748ZM486 107H484C484 119.766 487.632 131.315 493.5 139.066L495.095 137.859L496.689 136.652C491.449 129.73 488 119.08 488 107H486ZM500 150H498C498 176.51 476.51 198 450 198V200V202C478.719 202 502 178.719 502 150H500ZM450 200V198H50V200V202H450V200ZM50 200V198C23.4903 198 2 176.51 2 150H0H-2C-2 178.719 21.2812 202 50 202V200ZM0 150H2V50H0H-2V150H0ZM0 50H2C2 23.4903 23.4903 2 50 2V0V-2C21.2812 -2 -2 21.2812 -2 50H0ZM50 0V2H450V0V-2H50V0ZM495.095 137.859L493.5 139.066C496.103 142.503 498 146.186 498 150H500H502C502 144.883 499.478 140.335 496.689 136.652L495.095 137.859ZM500 50H498C498 56.3091 496.319 62.5337 494.061 68.8592C492.932 72.0218 491.676 75.1622 490.427 78.3509C489.184 81.5234 487.951 84.7323 486.903 87.9566L488.805 88.5748L490.707 89.1929C491.715 86.0911 492.91 82.9781 494.151 79.8103C495.386 76.6588 496.672 73.4407 497.828 70.2042C500.139 63.7312 502 56.9946 502 50H500Z" fill="url(#paint0_linear_0_10)" mask="url(#path-1-inside-1_0_10)"/>
<defs>
<linearGradient id="paint0_linear_0_10" x1="437.5" y1="114" x2="-83.2401" y2="28.4324" gradientUnits="userSpaceOnUse">
<stop stop-color="#673AB7"/>
<stop offset="1" stop-color="#00BFA6"/>
</linearGradient>
</defs>
</svg>
