<svg width="500" height="200" viewBox="0 0 500 200" fill="none" xmlns="http://www.w3.org/2000/svg">
<mask id="path-1-inside-1_0_35" fill="white">
<path d="M50 200C22.3858 200 0 177.614 0 150C0 136.696 7.08307 124.077 11.195 111.425C12.9872 105.911 14 99.6449 14 93C14 80.5767 10.4593 69.4773 4.90506 62.1412C2.20953 58.5809 0 54.4656 0 50C0 22.3858 22.3858 0 50 0L450 0C477.614 0 500 22.3858 500 50V150C500 177.614 477.614 200 450 200L50 200Z"/>
</mask>
<path d="M50 200V202V200ZM50 0V-2V0ZM450 0V-2V0ZM450 200V202V200ZM4.90506 62.1412L6.4996 60.934L4.90506 62.1412ZM11.195 111.425L9.29297 110.807L11.195 111.425ZM50 200V198C23.4903 198 2 176.51 2 150H0H-2C-2 178.719 21.2812 202 50 202V200ZM11.195 111.425L13.0971 112.043C14.9572 106.32 16 99.8447 16 93H14H12C12 99.4451 11.0171 105.502 9.29297 110.807L11.195 111.425ZM14 93H16C16 80.2336 12.3679 68.6849 6.4996 60.934L4.90506 62.1412L3.31052 63.3484C8.55069 70.2697 12 80.9197 12 93H14ZM0 50H2C2 23.4903 23.4903 2 50 2V0V-2C21.2812 -2 -2 21.2812 -2 50H0ZM50 0V2L450 2V0V-2L50 -2V0ZM450 0V2C476.51 2 498 23.4903 498 50H500H502C502 21.2812 478.719 -2 450 -2V0ZM500 50H498V150H500H502V50H500ZM500 150H498C498 176.51 476.51 198 450 198V200V202C478.719 202 502 178.719 502 150H500ZM450 200V198L50 198V200V202L450 202V200ZM4.90506 62.1412L6.4996 60.934C3.89725 57.4967 2 53.8139 2 50H0H-2C-2 55.1173 0.52179 59.6651 3.31052 63.3484L4.90506 62.1412ZM0 150H2C2 143.691 3.68063 137.466 5.93909 131.141C7.06827 127.978 8.32364 124.838 9.57321 121.649C10.8164 118.477 12.0492 115.268 13.0971 112.043L11.195 111.425L9.29297 110.807C8.28488 113.909 7.0903 117.022 5.84894 120.19C4.61392 123.341 3.32755 126.559 2.172 129.796C-0.139099 136.269 -2 143.005 -2 150H0Z" fill="url(#paint0_linear_0_35)" mask="url(#path-1-inside-1_0_35)"/>
<defs>
<linearGradient id="paint0_linear_0_35" x1="62.5" y1="86" x2="583.24" y2="171.568" gradientUnits="userSpaceOnUse">
<stop stop-color="#673AB7"/>
<stop offset="1" stop-color="#00BFA6"/>
</linearGradient>
</defs>
</svg>
