<svg width="448" height="272" viewBox="0 0 448 272" fill="none" xmlns="http://www.w3.org/2000/svg">
<g clip-path="url(#clip0_2_6341)">
<mask id="mask0_2_6341" style="mask-type:luminance" maskUnits="userSpaceOnUse" x="93" y="10" width="253" height="253">
<path d="M308.174 225.174C357.36 175.989 357.36 96.2435 308.174 47.0581C258.989 -2.12738 179.243 -2.1274 130.058 47.0581C80.8726 96.2435 80.8726 175.989 130.058 225.174C179.243 274.36 258.989 274.36 308.174 225.174Z" fill="white"/>
</mask>
<g mask="url(#mask0_2_6341)">
<path d="M94.391 215.351L92.1129 217.632L100.849 226.356L103.128 224.075L94.391 215.351Z" fill="#FACD49"/>
<path d="M92.1073 224.095L94.3885 226.373L103.113 217.636L100.832 215.358L92.1073 224.095Z" fill="#FACD49"/>
<path d="M94.4213 238.432L92.1432 240.713L100.88 249.438L103.158 247.156L94.4213 238.432Z" fill="#FACD49"/>
<path d="M92.1255 247.164L94.4067 249.442L103.131 240.705L100.85 238.427L92.1255 247.164Z" fill="#FACD49"/>
<path d="M94.4328 259.891L92.1547 262.172L100.891 270.897L103.169 268.615L94.4328 259.891Z" fill="#FACD49"/>
<path d="M92.1507 268.658L94.432 270.936L103.156 262.199L100.875 259.921L92.1507 268.658Z" fill="#FACD49"/>
<path d="M94.359 146.998L92.0809 149.279L100.817 158.003L103.096 155.722L94.359 146.998Z" fill="#FACD49"/>
<path d="M92.0588 155.715L94.3401 157.993L103.064 149.256L100.783 146.978L92.0588 155.715Z" fill="#FACD49"/>
<path d="M94.3592 170.067L92.0811 172.348L100.818 181.073L103.096 178.791L94.3592 170.067Z" fill="#FACD49"/>
<path d="M92.0824 178.814L94.3636 181.092L103.088 172.355L100.807 170.077L92.0824 178.814Z" fill="#FACD49"/>
<path d="M94.3823 191.531L92.1042 193.812L100.841 202.536L103.119 200.255L94.3823 191.531Z" fill="#FACD49"/>
<path d="M92.0943 200.277L94.3756 202.555L103.1 193.819L100.819 191.541L92.0943 200.277Z" fill="#FACD49"/>
<path d="M94.3106 78.6015L92.0325 80.8828L100.769 89.6072L103.047 87.3259L94.3106 78.6015Z" fill="#FACD49"/>
<path d="M92.0217 87.3513L94.303 89.6294L103.027 80.8929L100.746 78.6148L92.0217 87.3513Z" fill="#FACD49"/>
<path d="M94.3104 101.713L92.0323 103.995L100.769 112.719L103.047 110.438L94.3104 101.713Z" fill="#FACD49"/>
<path d="M92.0519 110.433L94.3331 112.711L103.057 103.974L100.776 101.696L92.0519 110.433Z" fill="#FACD49"/>
<path d="M94.3338 123.178L92.0557 125.459L100.792 134.183L103.07 131.902L94.3338 123.178Z" fill="#FACD49"/>
<path d="M92.0648 131.897L94.3461 134.175L103.07 125.438L100.789 123.16L92.0648 131.897Z" fill="#FACD49"/>
<path d="M94.249 10.2529L91.9709 12.5342L100.707 21.2585L102.986 18.9773L94.249 10.2529Z" fill="#FACD49"/>
<path d="M91.9792 18.9826L94.2605 21.2607L102.985 12.5242L100.704 10.2461L91.9792 18.9826Z" fill="#FACD49"/>
<path d="M94.2802 33.3169L92.0021 35.5981L100.739 44.3225L103.017 42.0412L94.2802 33.3169Z" fill="#FACD49"/>
<path d="M91.9973 42.0515L94.2786 44.3296L103.003 35.593L100.722 33.3149L91.9973 42.0515Z" fill="#FACD49"/>
<path d="M94.2857 54.7812L92.0076 57.0625L100.744 65.7869L103.022 63.5056L94.2857 54.7812Z" fill="#FACD49"/>
<path d="M92.0106 63.5334L94.2919 65.8115L103.016 57.075L100.735 54.7969L92.0106 63.5334Z" fill="#FACD49"/>
<path d="M118.665 215.349L116.387 217.63L125.123 226.354L127.401 224.073L118.665 215.349Z" fill="#FACD49"/>
<path d="M116.373 224.072L118.655 226.35L127.379 217.613L125.098 215.335L116.373 224.072Z" fill="#FACD49"/>
<path d="M141.624 215.325L139.346 217.606L148.083 226.331L150.361 224.05L141.624 215.325Z" fill="#FACD49"/>
<path d="M139.343 224.052L141.624 226.331L150.349 217.594L148.067 215.316L139.343 224.052Z" fill="#FACD49"/>
<path d="M164.552 215.307L162.274 217.588L171.011 226.312L173.289 224.031L164.552 215.307Z" fill="#FACD49"/>
<path d="M162.3 224.047L164.581 226.325L173.305 217.588L171.024 215.31L162.3 224.047Z" fill="#FACD49"/>
<path d="M187.51 215.311L185.232 217.592L193.969 226.317L196.247 224.035L187.51 215.311Z" fill="#FACD49"/>
<path d="M185.208 224.028L187.489 226.306L196.213 217.569L193.932 215.291L185.208 224.028Z" fill="#FACD49"/>
<path d="M210.439 215.274L208.161 217.556L216.898 226.28L219.176 223.999L210.439 215.274Z" fill="#FACD49"/>
<path d="M208.165 224.021L210.446 226.299L219.171 217.562L216.889 215.284L208.165 224.021Z" fill="#FACD49"/>
<path d="M118.696 238.395L116.418 240.676L125.155 249.401L127.433 247.119L118.696 238.395Z" fill="#FACD49"/>
<path d="M116.392 247.158L118.673 249.436L127.398 240.699L125.116 238.421L116.392 247.158Z" fill="#FACD49"/>
<path d="M141.624 238.394L139.346 240.675L148.082 249.4L150.361 247.118L141.624 238.394Z" fill="#FACD49"/>
<path d="M139.33 247.152L141.611 249.43L150.336 240.693L148.054 238.415L139.33 247.152Z" fill="#FACD49"/>
<path d="M164.583 238.406L162.304 240.687L171.041 249.411L173.319 247.13L164.583 238.406Z" fill="#FACD49"/>
<path d="M162.3 247.133L164.581 249.411L173.305 240.674L171.024 238.396L162.3 247.133Z" fill="#FACD49"/>
<path d="M187.523 238.374L185.245 240.656L193.982 249.38L196.26 247.099L187.523 238.374Z" fill="#FACD49"/>
<path d="M185.226 247.096L187.507 249.375L196.232 240.638L193.95 238.36L185.226 247.096Z" fill="#FACD49"/>
<path d="M210.47 238.374L208.192 240.655L216.929 249.379L219.207 247.098L210.47 238.374Z" fill="#FACD49"/>
<path d="M208.165 247.09L210.446 249.368L219.171 240.631L216.889 238.353L208.165 247.09Z" fill="#FACD49"/>
<path d="M118.702 259.877L116.423 262.159L125.16 270.883L127.438 268.602L118.702 259.877Z" fill="#FACD49"/>
<path d="M116.422 268.622L118.703 270.9L127.428 262.164L125.147 259.886L116.422 268.622Z" fill="#FACD49"/>
<path d="M141.648 259.876L139.37 262.157L148.106 270.882L150.384 268.6L141.648 259.876Z" fill="#FACD49"/>
<path d="M139.343 268.615L141.624 270.894L150.349 262.157L148.067 259.879L139.343 268.615Z" fill="#FACD49"/>
<path d="M164.588 259.87L162.31 262.151L171.047 270.876L173.325 268.594L164.588 259.87Z" fill="#FACD49"/>
<path d="M162.312 268.597L164.594 270.875L173.318 262.138L171.037 259.86L162.312 268.597Z" fill="#FACD49"/>
<path d="M187.534 259.852L185.256 262.133L193.993 270.857L196.271 268.576L187.534 259.852Z" fill="#FACD49"/>
<path d="M185.251 268.591L187.532 270.869L196.256 262.132L193.975 259.854L185.251 268.591Z" fill="#FACD49"/>
<path d="M210.475 259.838L208.197 262.12L216.934 270.844L219.212 268.563L210.475 259.838Z" fill="#FACD49"/>
<path d="M208.177 268.554L210.458 270.832L219.183 262.095L216.901 259.817L208.177 268.554Z" fill="#FACD49"/>
<path d="M118.616 146.978L116.338 149.259L125.075 157.983L127.353 155.702L118.616 146.978Z" fill="#FACD49"/>
<path d="M116.344 155.708L118.625 157.986L127.35 149.249L125.068 146.971L116.344 155.708Z" fill="#FACD49"/>
<path d="M141.575 146.946L139.297 149.228L148.034 157.952L150.312 155.671L141.575 146.946Z" fill="#FACD49"/>
<path d="M139.287 155.689L141.569 157.967L150.293 149.23L148.012 146.952L139.287 155.689Z" fill="#FACD49"/>
<path d="M164.521 146.945L162.243 149.227L170.979 157.951L173.257 155.67L164.521 146.945Z" fill="#FACD49"/>
<path d="M162.226 155.683L164.507 157.961L173.231 149.224L170.95 146.946L162.226 155.683Z" fill="#FACD49"/>
<path d="M187.449 146.909L185.171 149.19L193.908 157.915L196.186 155.634L187.449 146.909Z" fill="#FACD49"/>
<path d="M185.183 155.659L187.464 157.937L196.189 149.2L193.907 146.922L185.183 155.659Z" fill="#FACD49"/>
<path d="M210.396 146.908L208.118 149.189L216.854 157.914L219.133 155.633L210.396 146.908Z" fill="#FACD49"/>
<path d="M208.123 155.653L210.404 157.931L219.128 149.194L216.847 146.916L208.123 155.653Z" fill="#FACD49"/>
<path d="M118.647 170.059L116.369 172.34L125.105 181.064L127.383 178.783L118.647 170.059Z" fill="#FACD49"/>
<path d="M116.361 178.777L118.642 181.055L127.367 172.318L125.086 170.04L116.361 178.777Z" fill="#FACD49"/>
<path d="M141.588 170.027L139.31 172.309L148.046 181.033L150.324 178.752L141.588 170.027Z" fill="#FACD49"/>
<path d="M139.305 178.758L141.586 181.036L150.311 172.299L148.029 170.021L139.305 178.758Z" fill="#FACD49"/>
<path d="M164.534 170.009L162.256 172.291L170.992 181.015L173.27 178.734L164.534 170.009Z" fill="#FACD49"/>
<path d="M162.244 178.751L164.525 181.029L173.25 172.293L170.968 170.015L162.244 178.751Z" fill="#FACD49"/>
<path d="M187.48 170.008L185.202 172.29L193.939 181.014L196.217 178.733L187.48 170.008Z" fill="#FACD49"/>
<path d="M185.184 178.745L187.465 181.023L196.189 172.287L193.908 170.009L185.184 178.745Z" fill="#FACD49"/>
<path d="M210.408 169.99L208.13 172.271L216.866 180.995L219.145 178.714L210.408 169.99Z" fill="#FACD49"/>
<path d="M208.14 178.739L210.421 181.017L219.145 172.281L216.864 170.002L208.14 178.739Z" fill="#FACD49"/>
<path d="M118.652 191.54L116.374 193.822L125.11 202.546L127.388 200.265L118.652 191.54Z" fill="#FACD49"/>
<path d="M116.373 200.24L118.655 202.519L127.379 193.782L125.098 191.504L116.373 200.24Z" fill="#FACD49"/>
<path d="M141.598 191.505L139.32 193.786L148.057 202.51L150.335 200.229L141.598 191.505Z" fill="#FACD49"/>
<path d="M139.33 200.235L141.611 202.513L150.336 193.776L148.054 191.498L139.33 200.235Z" fill="#FACD49"/>
<path d="M164.556 191.491L162.278 193.772L171.015 202.497L173.293 200.216L164.556 191.491Z" fill="#FACD49"/>
<path d="M162.256 200.216L164.537 202.494L173.262 193.757L170.98 191.479L162.256 200.216Z" fill="#FACD49"/>
<path d="M187.485 191.473L185.207 193.754L193.944 202.478L196.222 200.197L187.485 191.473Z" fill="#FACD49"/>
<path d="M185.196 200.209L187.477 202.487L196.201 193.751L193.92 191.473L185.196 200.209Z" fill="#FACD49"/>
<path d="M210.432 191.454L208.153 193.735L216.89 202.46L219.168 200.178L210.432 191.454Z" fill="#FACD49"/>
<path d="M208.152 200.203L210.433 202.481L219.158 193.744L216.876 191.466L208.152 200.203Z" fill="#FACD49"/>
<path d="M118.586 78.5991L116.308 80.8804L125.044 89.6047L127.322 87.3235L118.586 78.5991Z" fill="#FACD49"/>
<path d="M116.306 87.3269L118.588 89.605L127.312 80.8684L125.031 78.5903L116.306 87.3269Z" fill="#FACD49"/>
<path d="M141.514 78.5976L139.236 80.8789L147.973 89.6033L150.251 87.322L141.514 78.5976Z" fill="#FACD49"/>
<path d="M139.227 87.3205L141.508 89.5986L150.233 80.8621L147.951 78.584L139.227 87.3205Z" fill="#FACD49"/>
<path d="M164.461 78.5796L162.183 80.8608L170.919 89.5852L173.197 87.3039L164.461 78.5796Z" fill="#FACD49"/>
<path d="M162.185 87.3142L164.466 89.5923L173.19 80.8557L170.909 78.5776L162.185 87.3142Z" fill="#FACD49"/>
<path d="M187.401 78.5483L185.123 80.8296L193.859 89.5539L196.137 87.2727L187.401 78.5483Z" fill="#FACD49"/>
<path d="M185.11 87.2956L187.391 89.5737L196.116 80.8372L193.834 78.5591L185.11 87.2956Z" fill="#FACD49"/>
<path d="M210.36 78.542L208.082 80.8232L216.818 89.5476L219.096 87.2663L210.36 78.542Z" fill="#FACD49"/>
<path d="M208.061 87.2766L210.343 89.5547L219.067 80.8181L216.786 78.54L208.061 87.2766Z" fill="#FACD49"/>
<path d="M118.599 101.68L116.321 103.961L125.057 112.686L127.335 110.405L118.599 101.68Z" fill="#FACD49"/>
<path d="M116.306 110.413L118.588 112.691L127.312 103.955L125.031 101.677L116.306 110.413Z" fill="#FACD49"/>
<path d="M141.544 101.662L139.266 103.943L148.003 112.667L150.281 110.386L141.544 101.662Z" fill="#FACD49"/>
<path d="M139.263 110.407L141.544 112.685L150.269 103.949L147.987 101.67L139.263 110.407Z" fill="#FACD49"/>
<path d="M164.473 101.661L162.194 103.942L170.931 112.666L173.209 110.385L164.473 101.661Z" fill="#FACD49"/>
<path d="M162.184 110.401L164.465 112.679L173.189 103.942L170.908 101.664L162.184 110.401Z" fill="#FACD49"/>
<path d="M187.432 101.612L185.154 103.893L193.89 112.617L196.168 110.336L187.432 101.612Z" fill="#FACD49"/>
<path d="M185.128 110.364L187.41 112.642L196.134 103.906L193.853 101.627L185.128 110.364Z" fill="#FACD49"/>
<path d="M210.36 101.593L208.082 103.875L216.818 112.599L219.096 110.318L210.36 101.593Z" fill="#FACD49"/>
<path d="M208.086 110.358L210.367 112.636L219.091 103.899L216.81 101.621L208.086 110.358Z" fill="#FACD49"/>
<path d="M118.609 123.157L116.331 125.438L125.067 134.162L127.345 131.881L118.609 123.157Z" fill="#FACD49"/>
<path d="M116.331 131.889L118.613 134.167L127.337 125.431L125.056 123.153L116.331 131.889Z" fill="#FACD49"/>
<path d="M141.55 123.126L139.272 125.407L148.008 134.132L150.286 131.85L141.55 123.126Z" fill="#FACD49"/>
<path d="M139.257 131.871L141.539 134.149L150.263 125.412L147.982 123.134L139.257 131.871Z" fill="#FACD49"/>
<path d="M164.496 123.107L162.218 125.389L170.955 134.113L173.233 131.832L164.496 123.107Z" fill="#FACD49"/>
<path d="M162.197 131.864L164.478 134.143L173.203 125.406L170.921 123.128L162.197 131.864Z" fill="#FACD49"/>
<path d="M187.425 123.089L185.147 125.37L193.884 134.094L196.162 131.813L187.425 123.089Z" fill="#FACD49"/>
<path d="M185.172 131.841L187.453 134.119L196.177 125.382L193.896 123.104L185.172 131.841Z" fill="#FACD49"/>
<path d="M210.383 123.076L208.105 125.357L216.841 134.081L219.12 131.8L210.383 123.076Z" fill="#FACD49"/>
<path d="M208.098 131.822L210.379 134.1L219.103 125.363L216.822 123.085L208.098 131.822Z" fill="#FACD49"/>
<path d="M118.524 10.2334L116.246 12.5146L124.983 21.239L127.261 18.9577L118.524 10.2334Z" fill="#FACD49"/>
<path d="M116.246 18.9768L118.527 21.2549L127.252 12.5183L124.97 10.2402L116.246 18.9768Z" fill="#FACD49"/>
<path d="M141.465 10.2021L139.187 12.4834L147.923 21.2078L150.201 18.9265L141.465 10.2021Z" fill="#FACD49"/>
<path d="M139.19 18.9577L141.471 21.2358L150.195 12.4993L147.914 10.2212L139.19 18.9577Z" fill="#FACD49"/>
<path d="M164.424 10.1958L162.146 12.4771L170.883 21.2014L173.161 18.9201L164.424 10.1958Z" fill="#FACD49"/>
<path d="M162.141 18.9382L164.423 21.2163L173.147 12.4798L170.866 10.2017L162.141 18.9382Z" fill="#FACD49"/>
<path d="M187.369 10.1953L185.091 12.4766L193.828 21.2009L196.106 18.9196L187.369 10.1953Z" fill="#FACD49"/>
<path d="M185.098 18.9148L187.379 21.1929L196.104 12.4563L193.822 10.1782L185.098 18.9148Z" fill="#FACD49"/>
<path d="M210.299 10.1767L208.021 12.458L216.757 21.1824L219.035 18.9011L210.299 10.1767Z" fill="#FACD49"/>
<path d="M208.037 18.9084L210.319 21.1865L219.043 12.45L216.762 10.1719L208.037 18.9084Z" fill="#FACD49"/>
<path d="M118.537 33.2968L116.259 35.5781L124.996 44.3025L127.274 42.0212L118.537 33.2968Z" fill="#FACD49"/>
<path d="M116.264 42.0451L118.545 44.3232L127.269 35.5867L124.988 33.3086L116.264 42.0451Z" fill="#FACD49"/>
<path d="M141.483 33.2964L139.205 35.5776L147.942 44.302L150.22 42.0207L141.483 33.2964Z" fill="#FACD49"/>
<path d="M139.221 42.0393L141.502 44.3174L150.227 35.5808L147.945 33.3027L139.221 42.0393Z" fill="#FACD49"/>
<path d="M164.441 33.2651L162.163 35.5464L170.9 44.2707L173.178 41.9895L164.441 33.2651Z" fill="#FACD49"/>
<path d="M162.146 42.0202L164.428 44.2983L173.152 35.5618L170.871 33.2837L162.146 42.0202Z" fill="#FACD49"/>
<path d="M187.383 33.2588L185.104 35.54L193.841 44.2644L196.119 41.9831L187.383 33.2588Z" fill="#FACD49"/>
<path d="M185.098 42.0012L187.379 44.2793L196.104 35.5427L193.822 33.2647L185.098 42.0012Z" fill="#FACD49"/>
<path d="M210.329 33.2583L208.051 35.5396L216.787 44.2639L219.065 41.9826L210.329 33.2583Z" fill="#FACD49"/>
<path d="M208.055 41.9953L210.337 44.2734L219.061 35.5369L216.78 33.2588L208.055 41.9953Z" fill="#FACD49"/>
<path d="M118.561 54.7798L116.283 57.061L125.019 65.7854L127.297 63.5041L118.561 54.7798Z" fill="#FACD49"/>
<path d="M116.276 63.5095L118.557 65.7876L127.282 57.0511L125.001 54.773L116.276 63.5095Z" fill="#FACD49"/>
<path d="M141.506 54.7602L139.228 57.0415L147.965 65.7659L150.243 63.4846L141.506 54.7602Z" fill="#FACD49"/>
<path d="M139.233 63.5027L141.514 65.7808L150.239 57.0442L147.957 54.7661L139.233 63.5027Z" fill="#FACD49"/>
<path d="M164.435 54.7417L162.156 57.0229L170.893 65.7473L173.171 63.466L164.435 54.7417Z" fill="#FACD49"/>
<path d="M162.172 63.4963L164.453 65.7744L173.177 57.0379L170.896 54.7598L162.172 63.4963Z" fill="#FACD49"/>
<path d="M187.393 54.728L185.115 57.0093L193.851 65.7336L196.129 63.4523L187.393 54.728Z" fill="#FACD49"/>
<path d="M185.098 63.4773L187.379 65.7554L196.104 57.0188L193.822 54.7407L185.098 63.4773Z" fill="#FACD49"/>
<path d="M210.334 54.7226L208.056 57.0039L216.792 65.7283L219.07 63.447L210.334 54.7226Z" fill="#FACD49"/>
<path d="M208.067 63.4411L210.349 65.7192L219.073 56.9827L216.792 54.7046L208.067 63.4411Z" fill="#FACD49"/>
<path d="M231.11 215.266L228.831 217.547L237.568 226.271L239.846 223.99L231.11 215.266Z" fill="#FACD49"/>
<path d="M228.827 224.005L231.109 226.283L239.833 217.546L237.552 215.268L228.827 224.005Z" fill="#FACD49"/>
<path d="M254.056 215.247L251.777 217.528L260.514 226.253L262.792 223.971L254.056 215.247Z" fill="#FACD49"/>
<path d="M251.785 223.998L254.066 226.276L262.791 217.54L260.509 215.262L251.785 223.998Z" fill="#FACD49"/>
<path d="M277.027 215.247L274.749 217.528L283.486 226.252L285.764 223.971L277.027 215.247Z" fill="#FACD49"/>
<path d="M274.724 223.968L277.005 226.246L285.729 217.509L283.448 215.231L274.724 223.968Z" fill="#FACD49"/>
<path d="M299.955 215.228L297.677 217.509L306.413 226.233L308.692 223.952L299.955 215.228Z" fill="#FACD49"/>
<path d="M297.662 223.961L299.943 226.239L308.667 217.502L306.386 215.224L297.662 223.961Z" fill="#FACD49"/>
<path d="M322.901 215.191L320.623 217.473L329.36 226.197L331.638 223.916L322.901 215.191Z" fill="#FACD49"/>
<path d="M320.637 223.954L322.919 226.232L331.643 217.496L329.362 215.218L320.637 223.954Z" fill="#FACD49"/>
<path d="M231.14 238.347L228.862 240.628L237.598 249.353L239.877 247.071L231.14 238.347Z" fill="#FACD49"/>
<path d="M228.846 247.091L231.127 249.369L239.852 240.633L237.57 238.354L228.846 247.091Z" fill="#FACD49"/>
<path d="M254.068 238.329L251.79 240.61L260.526 249.334L262.804 247.053L254.068 238.329Z" fill="#FACD49"/>
<path d="M251.784 247.085L254.065 249.363L262.79 240.627L260.508 238.349L251.784 247.085Z" fill="#FACD49"/>
<path d="M277.027 238.297L274.749 240.579L283.485 249.303L285.764 247.022L277.027 238.297Z" fill="#FACD49"/>
<path d="M274.729 247.048L277.01 249.326L285.734 240.59L283.453 238.312L274.729 247.048Z" fill="#FACD49"/>
<path d="M299.984 238.291L297.706 240.573L306.443 249.297L308.721 247.016L299.984 238.291Z" fill="#FACD49"/>
<path d="M297.697 247.03L299.979 249.308L308.703 240.571L306.422 238.293L297.697 247.03Z" fill="#FACD49"/>
<path d="M322.913 238.29L320.635 240.572L329.372 249.296L331.65 247.015L322.913 238.29Z" fill="#FACD49"/>
<path d="M320.636 247.023L322.918 249.301L331.642 240.565L329.361 238.287L320.636 247.023Z" fill="#FACD49"/>
<path d="M231.145 259.83L228.867 262.111L237.603 270.835L239.881 268.554L231.145 259.83Z" fill="#FACD49"/>
<path d="M228.858 268.555L231.139 270.833L239.863 262.097L237.582 259.819L228.858 268.555Z" fill="#FACD49"/>
<path d="M254.091 259.793L251.813 262.075L260.55 270.799L262.828 268.518L254.091 259.793Z" fill="#FACD49"/>
<path d="M251.797 268.549L254.078 270.827L262.803 262.091L260.522 259.813L251.797 268.549Z" fill="#FACD49"/>
<path d="M277.037 259.757L274.759 262.038L283.496 270.762L285.774 268.481L277.037 259.757Z" fill="#FACD49"/>
<path d="M274.772 268.525L277.053 270.803L285.777 262.067L283.496 259.789L274.772 268.525Z" fill="#FACD49"/>
<path d="M299.978 259.744L297.699 262.025L306.436 270.749L308.714 268.468L299.978 259.744Z" fill="#FACD49"/>
<path d="M297.697 268.506L299.979 270.784L308.703 262.048L306.422 259.77L297.697 268.506Z" fill="#FACD49"/>
<path d="M322.937 259.755L320.658 262.037L329.395 270.761L331.673 268.48L322.937 259.755Z" fill="#FACD49"/>
<path d="M320.631 268.488L322.912 270.766L331.637 262.029L329.356 259.751L320.631 268.488Z" fill="#FACD49"/>
<path d="M231.078 146.87L228.8 149.151L237.537 157.875L239.815 155.594L231.078 146.87Z" fill="#FACD49"/>
<path d="M228.79 155.642L231.072 157.92L239.796 149.183L237.515 146.905L228.79 155.642Z" fill="#FACD49"/>
<path d="M254.019 146.881L251.741 149.163L260.478 157.887L262.756 155.606L254.019 146.881Z" fill="#FACD49"/>
<path d="M251.743 155.605L254.024 157.883L262.748 149.146L260.467 146.868L251.743 155.605Z" fill="#FACD49"/>
<path d="M276.966 146.863L274.688 149.144L283.424 157.868L285.702 155.587L276.966 146.863Z" fill="#FACD49"/>
<path d="M274.663 155.616L276.944 157.895L285.669 149.158L283.387 146.88L274.663 155.616Z" fill="#FACD49"/>
<path d="M299.893 146.844L297.615 149.125L306.352 157.85L308.63 155.569L299.893 146.844Z" fill="#FACD49"/>
<path d="M297.619 155.593L299.9 157.871L308.625 149.134L306.343 146.856L297.619 155.593Z" fill="#FACD49"/>
<path d="M322.853 146.831L320.575 149.112L329.311 157.836L331.589 155.555L322.853 146.831Z" fill="#FACD49"/>
<path d="M320.564 155.573L322.845 157.852L331.57 149.115L329.288 146.837L320.564 155.573Z" fill="#FACD49"/>
<path d="M231.078 169.964L228.8 172.245L237.537 180.969L239.815 178.688L231.078 169.964Z" fill="#FACD49"/>
<path d="M228.803 178.723L231.085 181.001L239.809 172.264L237.528 169.986L228.803 178.723Z" fill="#FACD49"/>
<path d="M254.037 169.95L251.758 172.231L260.495 180.956L262.773 178.675L254.037 169.95Z" fill="#FACD49"/>
<path d="M251.747 178.704L254.028 180.982L262.752 172.245L260.471 169.967L251.747 178.704Z" fill="#FACD49"/>
<path d="M276.977 169.944L274.699 172.226L283.436 180.95L285.714 178.669L276.977 169.944Z" fill="#FACD49"/>
<path d="M274.698 178.685L276.979 180.963L285.704 172.227L283.422 169.949L274.698 178.685Z" fill="#FACD49"/>
<path d="M299.923 169.926L297.645 172.207L306.382 180.931L308.66 178.65L299.923 169.926Z" fill="#FACD49"/>
<path d="M297.637 178.679L299.918 180.958L308.643 172.221L306.362 169.943L297.637 178.679Z" fill="#FACD49"/>
<path d="M322.866 169.895L320.588 172.176L329.324 180.9L331.602 178.619L322.866 169.895Z" fill="#FACD49"/>
<path d="M320.582 178.642L322.863 180.92L331.588 172.184L329.306 169.906L320.582 178.642Z" fill="#FACD49"/>
<path d="M231.102 191.446L228.823 193.727L237.56 202.451L239.838 200.17L231.102 191.446Z" fill="#FACD49"/>
<path d="M228.798 200.187L231.079 202.465L239.804 193.728L237.522 191.45L228.798 200.187Z" fill="#FACD49"/>
<path d="M254.042 191.415L251.764 193.696L260.501 202.42L262.779 200.139L254.042 191.415Z" fill="#FACD49"/>
<path d="M251.741 200.168L254.023 202.446L262.747 193.71L260.466 191.432L251.741 200.168Z" fill="#FACD49"/>
<path d="M277.002 191.409L274.724 193.69L283.46 202.414L285.738 200.133L277.002 191.409Z" fill="#FACD49"/>
<path d="M274.711 200.149L276.992 202.427L285.717 193.691L283.435 191.413L274.711 200.149Z" fill="#FACD49"/>
<path d="M299.929 191.39L297.651 193.671L306.388 202.396L308.666 200.114L299.929 191.39Z" fill="#FACD49"/>
<path d="M297.65 200.143L299.931 202.421L308.655 193.685L306.374 191.407L297.65 200.143Z" fill="#FACD49"/>
<path d="M322.876 191.372L320.598 193.653L329.334 202.377L331.612 200.096L322.876 191.372Z" fill="#FACD49"/>
<path d="M320.607 200.119L322.888 202.397L331.612 193.66L329.331 191.382L320.607 200.119Z" fill="#FACD49"/>
<path d="M231.03 78.5342L228.752 80.8154L237.489 89.5398L239.767 87.2585L231.03 78.5342Z" fill="#FACD49"/>
<path d="M228.743 87.261L231.024 89.5391L239.749 80.8025L237.468 78.5244L228.743 87.261Z" fill="#FACD49"/>
<path d="M253.958 78.4975L251.68 80.7788L260.416 89.5032L262.694 87.2219L253.958 78.4975Z" fill="#FACD49"/>
<path d="M251.682 87.2546L253.963 89.5327L262.688 80.7962L260.406 78.5181L251.682 87.2546Z" fill="#FACD49"/>
<path d="M276.917 78.4844L274.639 80.7656L283.376 89.49L285.654 87.2087L276.917 78.4844Z" fill="#FACD49"/>
<path d="M274.644 87.2356L276.925 89.5137L285.65 80.7771L283.368 78.499L274.644 87.2356Z" fill="#FACD49"/>
<path d="M299.863 78.4658L297.585 80.7471L306.321 89.4714L308.599 87.1902L299.863 78.4658Z" fill="#FACD49"/>
<path d="M297.583 87.2292L299.864 89.5073L308.588 80.7708L306.307 78.4927L297.583 87.2292Z" fill="#FACD49"/>
<path d="M322.809 78.4648L320.531 80.7461L329.267 89.4704L331.545 87.1892L322.809 78.4648Z" fill="#FACD49"/>
<path d="M320.503 87.2229L322.785 89.501L331.509 80.7644L329.228 78.4863L320.503 87.2229Z" fill="#FACD49"/>
<path d="M231.043 101.598L228.765 103.879L237.501 112.604L239.78 110.322L231.043 101.598Z" fill="#FACD49"/>
<path d="M228.761 110.348L231.042 112.626L239.767 103.889L237.485 101.611L228.761 110.348Z" fill="#FACD49"/>
<path d="M253.988 101.579L251.71 103.86L260.447 112.585L262.725 110.303L253.988 101.579Z" fill="#FACD49"/>
<path d="M251.717 110.323L253.999 112.601L262.723 103.865L260.442 101.586L251.717 110.323Z" fill="#FACD49"/>
<path d="M276.935 101.579L274.656 103.86L283.393 112.584L285.671 110.303L276.935 101.579Z" fill="#FACD49"/>
<path d="M274.639 110.317L276.92 112.595L285.644 103.859L283.363 101.581L274.639 110.317Z" fill="#FACD49"/>
<path d="M299.876 101.547L297.598 103.829L306.334 112.553L308.612 110.272L299.876 101.547Z" fill="#FACD49"/>
<path d="M297.582 110.298L299.864 112.576L308.588 103.84L306.307 101.562L297.582 110.298Z" fill="#FACD49"/>
<path d="M322.822 101.529L320.544 103.81L329.28 112.534L331.558 110.253L322.822 101.529Z" fill="#FACD49"/>
<path d="M320.539 110.292L322.82 112.57L331.545 103.833L329.263 101.555L320.539 110.292Z" fill="#FACD49"/>
<path d="M231.066 123.062L228.787 125.344L237.524 134.068L239.802 131.787L231.066 123.062Z" fill="#FACD49"/>
<path d="M228.791 131.794L231.073 134.072L239.797 125.335L237.516 123.057L228.791 131.794Z" fill="#FACD49"/>
<path d="M254.012 123.062L251.734 125.343L260.47 134.067L262.749 131.786L254.012 123.062Z" fill="#FACD49"/>
<path d="M251.73 131.787L254.011 134.065L262.736 125.329L260.454 123.051L251.73 131.787Z" fill="#FACD49"/>
<path d="M276.94 123.061L274.662 125.342L283.398 134.066L285.676 131.785L276.94 123.061Z" fill="#FACD49"/>
<path d="M274.651 131.799L276.932 134.077L285.656 125.341L283.375 123.063L274.651 131.799Z" fill="#FACD49"/>
<path d="M299.899 123.012L297.621 125.293L306.357 134.018L308.635 131.737L299.899 123.012Z" fill="#FACD49"/>
<path d="M297.595 131.762L299.877 134.041L308.601 125.304L306.32 123.026L297.595 131.762Z" fill="#FACD49"/>
<path d="M322.828 123.011L320.549 125.292L329.286 134.016L331.564 131.735L322.828 123.011Z" fill="#FACD49"/>
<path d="M320.552 131.756L322.834 134.034L331.558 125.297L329.277 123.019L320.552 131.756Z" fill="#FACD49"/>
<path d="M230.987 10.1679L228.708 12.4492L237.445 21.1736L239.723 18.8923L230.987 10.1679Z" fill="#FACD49"/>
<path d="M228.7 18.9099L230.982 21.188L239.706 12.4514L237.425 10.1734L228.7 18.9099Z" fill="#FACD49"/>
<path d="M253.928 10.1372L251.649 12.4185L260.386 21.1428L262.664 18.8615L253.928 10.1372Z" fill="#FACD49"/>
<path d="M251.645 18.8738L253.926 21.1519L262.65 12.4153L260.369 10.1372L251.645 18.8738Z" fill="#FACD49"/>
<path d="M276.856 10.1186L274.578 12.3999L283.314 21.1243L285.592 18.843L276.856 10.1186Z" fill="#FACD49"/>
<path d="M274.583 18.8674L276.865 21.1455L285.589 12.409L283.308 10.1309L274.583 18.8674Z" fill="#FACD49"/>
<path d="M299.802 10.0996L297.524 12.3809L306.26 21.1052L308.538 18.8239L299.802 10.0996Z" fill="#FACD49"/>
<path d="M297.541 18.8606L299.822 21.1387L308.546 12.4021L306.265 10.124L297.541 18.8606Z" fill="#FACD49"/>
<path d="M322.773 10.0991L320.495 12.3804L329.231 21.1047L331.51 18.8234L322.773 10.0991Z" fill="#FACD49"/>
<path d="M320.497 18.8117L322.778 21.0898L331.503 12.3533L329.221 10.0752L320.497 18.8117Z" fill="#FACD49"/>
<path d="M231 33.2319L228.721 35.5132L237.458 44.2375L239.736 41.9563L231 33.2319Z" fill="#FACD49"/>
<path d="M228.718 41.9787L231 44.2568L239.724 35.5203L237.443 33.2422L228.718 41.9787Z" fill="#FACD49"/>
<path d="M253.958 33.2187L251.68 35.5L260.416 44.2244L262.694 41.9431L253.958 33.2187Z" fill="#FACD49"/>
<path d="M251.645 41.9602L253.926 44.2383L262.65 35.5017L260.369 33.2236L251.645 41.9602Z" fill="#FACD49"/>
<path d="M276.869 33.1821L274.59 35.4634L283.327 44.1877L285.605 41.9065L276.869 33.1821Z" fill="#FACD49"/>
<path d="M274.602 41.9538L276.883 44.2319L285.608 35.4954L283.327 33.2173L274.602 41.9538Z" fill="#FACD49"/>
<path d="M299.815 33.1811L297.537 35.4624L306.273 44.1868L308.551 41.9055L299.815 33.1811Z" fill="#FACD49"/>
<path d="M297.559 41.9294L299.84 44.2075L308.564 35.471L306.283 33.1929L297.559 41.9294Z" fill="#FACD49"/>
<path d="M322.76 33.1806L320.482 35.4619L329.218 44.1863L331.497 41.905L322.76 33.1806Z" fill="#FACD49"/>
<path d="M320.479 41.9416L322.76 44.2197L331.484 35.4832L329.203 33.2051L320.479 41.9416Z" fill="#FACD49"/>
<path d="M231.005 54.6963L228.727 56.9775L237.463 65.7019L239.741 63.4206L231.005 54.6963Z" fill="#FACD49"/>
<path d="M228.731 63.4426L231.013 65.7207L239.737 56.9842L237.456 54.7061L228.731 63.4426Z" fill="#FACD49"/>
<path d="M253.951 54.6953L251.673 56.9766L260.41 65.7009L262.688 63.4197L253.951 54.6953Z" fill="#FACD49"/>
<path d="M251.67 63.4363L253.951 65.7144L262.676 56.9778L260.394 54.6997L251.67 63.4363Z" fill="#FACD49"/>
<path d="M276.892 54.6464L274.614 56.9277L283.35 65.6521L285.628 63.3708L276.892 54.6464Z" fill="#FACD49"/>
<path d="M274.632 63.4001L276.914 65.6782L285.638 56.9417L283.357 54.6636L274.632 63.4001Z" fill="#FACD49"/>
<path d="M299.838 54.646L297.56 56.9272L306.297 65.6516L308.575 63.3703L299.838 54.646Z" fill="#FACD49"/>
<path d="M297.553 63.3938L299.834 65.6719L308.558 56.9353L306.277 54.6572L297.553 63.3938Z" fill="#FACD49"/>
<path d="M322.784 54.645L320.506 56.9263L329.243 65.6506L331.521 63.3694L322.784 54.645Z" fill="#FACD49"/>
<path d="M320.492 63.4055L322.773 65.6836L331.497 56.947L329.216 54.669L320.492 63.4055Z" fill="#FACD49"/>
<path d="M347.188 215.195L344.91 217.477L353.646 226.201L355.924 223.92L347.188 215.195Z" fill="#FACD49"/>
<path d="M344.89 223.919L347.172 226.197L355.896 217.46L353.615 215.182L344.89 223.919Z" fill="#FACD49"/>
<path d="M347.189 238.271L344.911 240.553L353.647 249.277L355.925 246.996L347.189 238.271Z" fill="#FACD49"/>
<path d="M344.903 247.017L347.185 249.295L355.909 240.559L353.628 238.281L344.903 247.017Z" fill="#FACD49"/>
<path d="M347.194 259.736L344.916 262.017L353.652 270.741L355.93 268.46L347.194 259.736Z" fill="#FACD49"/>
<path d="M344.916 268.482L347.198 270.76L355.922 262.023L353.641 259.745L344.916 268.482Z" fill="#FACD49"/>
<path d="M347.126 146.811L344.848 149.092L353.585 157.817L355.863 155.535L347.126 146.811Z" fill="#FACD49"/>
<path d="M344.83 155.568L347.111 157.846L355.835 149.109L353.554 146.831L344.83 155.568Z" fill="#FACD49"/>
<path d="M347.14 169.893L344.861 172.174L353.598 180.898L355.876 178.617L347.14 169.893Z" fill="#FACD49"/>
<path d="M344.866 178.636L347.148 180.915L355.872 172.178L353.591 169.9L344.866 178.636Z" fill="#FACD49"/>
<path d="M347.163 191.357L344.885 193.638L353.621 202.363L355.899 200.081L347.163 191.357Z" fill="#FACD49"/>
<path d="M344.878 200.1L347.159 202.378L355.884 193.642L353.602 191.364L344.878 200.1Z" fill="#FACD49"/>
<path d="M347.066 78.4448L344.788 80.7261L353.524 89.4504L355.802 87.1691L347.066 78.4448Z" fill="#FACD49"/>
<path d="M344.788 87.1985L347.069 89.4766L355.794 80.74L353.513 78.4619L344.788 87.1985Z" fill="#FACD49"/>
<path d="M347.078 101.527L344.8 103.808L353.537 112.532L355.815 110.251L347.078 101.527Z" fill="#FACD49"/>
<path d="M344.787 110.286L347.069 112.564L355.793 103.827L353.512 101.549L344.787 110.286Z" fill="#FACD49"/>
<path d="M347.103 122.991L344.824 125.272L353.561 133.997L355.839 131.716L347.103 122.991Z" fill="#FACD49"/>
<path d="M344.801 131.75L347.082 134.028L355.806 125.291L353.525 123.013L344.801 131.75Z" fill="#FACD49"/>
<path d="M347.03 10.0796L344.752 12.3608L353.488 21.0852L355.766 18.8039L347.03 10.0796Z" fill="#FACD49"/>
<path d="M344.745 18.824L347.026 21.1021L355.751 12.3655L353.469 10.0874L344.745 18.824Z" fill="#FACD49"/>
<path d="M347.061 33.1611L344.783 35.4424L353.519 44.1667L355.797 41.8855L347.061 33.1611Z" fill="#FACD49"/>
<path d="M344.763 41.8923L347.044 44.1704L355.769 35.4339L353.488 33.1558L344.763 41.8923Z" fill="#FACD49"/>
<path d="M347.066 54.6254L344.788 56.9067L353.524 65.6311L355.802 63.3498L347.066 54.6254Z" fill="#FACD49"/>
<path d="M344.775 63.3562L347.057 65.6343L355.781 56.8977L353.5 54.6196L344.775 63.3562Z" fill="#FACD49"/>
</g>
<path d="M125.061 0H120.456V11.5142H125.061V0Z" fill="#FF5722"/>
<path d="M125.061 0H120.456V11.5142H125.061V0Z" fill="#FF5722"/>
<path d="M125.061 190.001H120.456V201.516H125.061V190.001Z" fill="#FF5722"/>
<path d="M33.5149 98.4551H22.0007V103.061H33.5149V98.4551Z" fill="#FF5722"/>
<path d="M33.5149 98.4551H22.0007V103.061H33.5149V98.4551Z" fill="#FF5722"/>
<path d="M223.516 98.4551H212.002V103.061H223.516V98.4551Z" fill="#FF5722"/>
<path d="M53.1545 27.8825L49.8978 31.1392L58.0396 39.2809L61.2963 36.0242L53.1545 27.8825Z" fill="#FF5722"/>
<path d="M53.1545 27.8825L49.8978 31.1392L58.0396 39.2809L61.2963 36.0242L53.1545 27.8825Z" fill="#FF5722"/>
<path d="M187.488 162.244L184.231 165.501L192.373 173.643L195.629 170.386L187.488 162.244Z" fill="#FF5722"/>
<path d="M58.0295 162.228L49.8892 170.372L53.1464 173.628L61.2867 165.485L58.0295 162.228Z" fill="#FF5722"/>
<path d="M58.0295 162.228L49.8892 170.372L53.1464 173.628L61.2867 165.485L58.0295 162.228Z" fill="#FF5722"/>
<path d="M192.376 27.8778L184.235 36.021L187.492 39.2771L195.633 31.134L192.376 27.8778Z" fill="#FF5722"/>
<path d="M102.043 2.12837L97.559 3.17773L100.182 14.3891L104.667 13.3397L102.043 2.12837Z" fill="#FF5722"/>
<path d="M102.043 2.12837L97.559 3.17773L100.182 14.3891L104.667 13.3397L102.043 2.12837Z" fill="#FF5722"/>
<path d="M145.341 187.139L140.856 188.188L143.48 199.399L147.964 198.35L145.341 187.139Z" fill="#FF5722"/>
<path d="M35.3475 118.848L24.1371 121.476L25.188 125.96L36.3984 123.332L35.3475 118.848Z" fill="#FF5722"/>
<path d="M35.3475 118.848L24.1371 121.476L25.188 125.96L36.3984 123.332L35.3475 118.848Z" fill="#FF5722"/>
<path d="M220.345 75.566L209.134 78.1914L210.185 82.6757L221.395 80.0504L220.345 75.566Z" fill="#FF5722"/>
<path d="M38.3728 45.6651L35.9445 49.5786L45.7281 55.6495L48.1565 51.736L38.3728 45.6651Z" fill="#FF5722"/>
<path d="M38.3728 45.6651L35.9445 49.5786L45.7281 55.6495L48.1565 51.736L38.3728 45.6651Z" fill="#FF5722"/>
<path d="M199.798 145.852L197.369 149.766L207.153 155.836L209.581 151.923L199.798 145.852Z" fill="#FF5722"/>
<path d="M73.7554 175.359L67.6829 185.142L71.5959 187.571L77.6685 177.788L73.7554 175.359Z" fill="#FF5722"/>
<path d="M73.7554 175.359L67.6829 185.142L71.5959 187.571L77.6685 177.788L73.7554 175.359Z" fill="#FF5722"/>
<path d="M173.921 13.9278L167.849 23.7104L171.762 26.1395L177.834 16.3569L173.921 13.9278Z" fill="#FF5722"/>
<path d="M87.7367 6.24221L83.4559 7.94141L87.7039 18.6433L91.9847 16.9441L87.7367 6.24221Z" fill="#FF5722"/>
<path d="M87.7367 6.24221L83.4559 7.94141L87.7039 18.6433L91.9847 16.9441L87.7367 6.24221Z" fill="#FF5722"/>
<path d="M157.817 182.855L153.536 184.554L157.784 195.256L162.065 193.557L157.817 182.855Z" fill="#FF5722"/>
<path d="M38.9562 131.525L28.2543 135.773L29.9535 140.054L40.6554 135.806L38.9562 131.525Z" fill="#FF5722"/>
<path d="M38.9562 131.525L28.2543 135.773L29.9535 140.054L40.6554 135.806L38.9562 131.525Z" fill="#FF5722"/>
<path d="M215.569 61.4444L204.867 65.6924L206.566 69.9731L217.268 65.7252L215.569 61.4444Z" fill="#FF5722"/>
<path d="M31.1763 58.6986L29.3501 62.9268L39.9205 67.4922L41.7466 63.2641L31.1763 58.6986Z" fill="#FF5722"/>
<path d="M31.1763 58.6986L29.3501 62.9268L39.9205 67.4922L41.7466 63.2641L31.1763 58.6986Z" fill="#FF5722"/>
<path d="M205.623 134.038L203.797 138.267L214.367 142.832L216.193 138.604L205.623 134.038Z" fill="#FF5722"/>
<path d="M85.282 181.792L80.7184 192.363L84.9468 194.189L89.5104 183.618L85.282 181.792Z" fill="#FF5722"/>
<path d="M85.282 181.792L80.7184 192.363L84.9468 194.189L89.5104 183.618L85.282 181.792Z" fill="#FF5722"/>
<path d="M160.582 7.34387L156.018 17.915L160.247 19.7405L164.81 9.16932L160.582 7.34387Z" fill="#FF5722"/>
<path d="M67.1244 16.7266L63.3434 19.3564L69.918 28.809L73.699 26.1792L67.1244 16.7266Z" fill="#FF5722"/>
<path d="M67.1244 16.7266L63.3434 19.3564L69.918 28.809L73.699 26.1792L67.1244 16.7266Z" fill="#FF5722"/>
<path d="M175.615 172.698L171.834 175.328L178.408 184.78L182.189 182.15L175.615 172.698Z" fill="#FF5722"/>
<path d="M48.1856 149.817L38.733 156.392L41.3629 160.173L50.8154 153.599L48.1856 149.817Z" fill="#FF5722"/>
<path d="M48.1856 149.817L38.733 156.392L41.3629 160.173L50.8154 153.599L48.1856 149.817Z" fill="#FF5722"/>
<path d="M204.17 41.3512L194.718 47.9258L197.347 51.7068L206.8 45.1322L204.17 41.3512Z" fill="#FF5722"/>
<path d="M23.9927 80.6768L23.1787 85.21L34.5116 87.245L35.3256 82.7118L23.9927 80.6768Z" fill="#FF5722"/>
<path d="M23.9927 80.6768L23.1787 85.21L34.5116 87.245L35.3256 82.7118L23.9927 80.6768Z" fill="#FF5722"/>
<path d="M211.018 114.268L210.204 118.801L221.537 120.836L222.351 116.303L211.018 114.268Z" fill="#FF5722"/>
<path d="M104.732 188.187L102.698 199.52L107.232 200.333L109.265 189L104.732 188.187Z" fill="#FF5722"/>
<path d="M104.732 188.187L102.698 199.52L107.232 200.333L109.265 189L104.732 188.187Z" fill="#FF5722"/>
<path d="M138.294 1.17163L136.261 12.5049L140.794 13.3181L142.827 1.98485L138.294 1.17163Z" fill="#FF5722"/>
</g>
<defs>
<clipPath id="clip0_2_6341">
<rect width="447.511" height="272" fill="white"/>
</clipPath>
</defs>
</svg>
