<svg width="2231" height="825" viewBox="0 0 2231 825" fill="none" xmlns="http://www.w3.org/2000/svg">
<path opacity="0.6" d="M0.33481 726.778C1.10735 705.976 74.072 413.295 232.249 191.294C374.171 -7.67451 624.235 -85.8867 853.782 126.079C1099.72 353.238 1338.27 435.499 1543.96 426.941C1747.02 418.272 1906.21 283.06 1983.32 201.298C2150.5 24.7196 2309.14 188.446 2188.82 441.496C2132.42 559.119 2044.51 576.999 1901.99 560.777C1753.01 543.821 1533.99 464.87 1222.34 460.739C921.729 456.974 577.485 530.108 358.866 664.262C126.17 807.189 -7.60786 908.026 0.33481 726.778Z" fill="url(#paint0_linear_0_3)"/>
<defs>
<linearGradient id="paint0_linear_0_3" x1="1943.74" y1="539.346" x2="-334.106" y2="49.6344" gradientUnits="userSpaceOnUse">
<stop stop-color="#00BFA6"/>
<stop offset="0.490385" stop-color="#673AB7"/>
</linearGradient>
</defs>
</svg>
