<svg width="532" height="532" viewBox="0 0 532 532" fill="none" xmlns="http://www.w3.org/2000/svg">
<path fill-rule="evenodd" clip-rule="evenodd" d="M274 531.96C215.454 530.36 184.47 463.272 137.372 428.457C90.8415 394.062 -1.0069 387.281 0.00836182 329.425C1.16864 263.307 120.884 260.174 141.428 197.318C161.901 134.679 51.9576 46.8824 105.095 7.90717C158.111 -30.9792 209.903 85.4376 274 100.08C315.167 109.484 353.574 65.0403 394.82 74.0922C448.182 85.8029 526.32 102.28 531.746 156.645C537.651 215.796 438.747 231.613 416.026 286.545C396.497 333.76 441.757 391.856 416.165 436.079C386.816 486.792 332.569 533.561 274 531.96Z" fill="url(#paint0_linear_2_6259)" fill-opacity="0.5"/>
<defs>
<linearGradient id="paint0_linear_2_6259" x1="266" y1="0" x2="266" y2="532" gradientUnits="userSpaceOnUse">
<stop stop-color="#FF5722"/>
<stop offset="1" stop-color="#FACD49"/>
</linearGradient>
</defs>
</svg>
