<svg width="528" height="19" viewBox="0 0 528 19" fill="none" xmlns="http://www.w3.org/2000/svg">
<path d="M4.32256 18.0585L2.2365e-06 0.528163H4.0584L7.4444 15.417L6.60391 14.8646H8.7892L7.85264 15.417L10.4702 1.17655H13.7361L10.3021 18.0585H4.32256ZM14.7687 18.0585L11.0705 1.17655H14.5046L17.5304 15.417L16.6178 14.8646H18.7071L17.9146 15.417L20.8683 0.528163H24.7106L20.8683 18.0585H14.7687ZM26.9749 18.0585V0.528163H30.8172V10.6381H30.2408C30.2408 9.30935 30.4089 8.18869 30.7451 7.27615C31.0813 6.36361 31.5776 5.67521 32.234 5.21093C32.8904 4.73065 33.7149 4.49051 34.7075 4.49051H34.8756C36.3324 4.49051 37.4451 5.01081 38.2135 6.05143C38.982 7.07603 39.3662 8.58092 39.3662 10.5661V18.0585H35.5239V10.326C35.5239 9.60553 35.3078 9.02919 34.8756 8.59693C34.4593 8.14867 33.907 7.92454 33.2186 7.92454C32.4982 7.92454 31.9138 8.15667 31.4655 8.62095C31.0333 9.08522 30.8172 9.70159 30.8172 10.47V18.0585H26.9749ZM48.668 18.5148C47.5473 18.5148 46.5547 18.3227 45.6902 17.9385C44.8417 17.5542 44.1293 17.0419 43.5529 16.4015C42.9926 15.7452 42.5603 15.0167 42.2562 14.2163C41.968 13.3998 41.8239 12.5673 41.8239 11.7188V11.2385C41.8239 10.358 41.968 9.51748 42.2562 8.717C42.5603 7.90052 42.9926 7.17209 43.5529 6.53171C44.1133 5.89133 44.8097 5.38704 45.6422 5.01882C46.4907 4.63459 47.4512 4.44248 48.5239 4.44248C49.9327 4.44248 51.1174 4.76267 52.078 5.40305C53.0546 6.02741 53.799 6.8519 54.3113 7.87651C54.8236 8.8851 55.0798 9.98976 55.0798 11.1905V12.4872H43.4329V10.3019H52.7504L51.5016 11.3105C51.5016 10.5261 51.3896 9.85368 51.1654 9.29335C50.9413 8.73301 50.6051 8.30876 50.1568 8.02059C49.7246 7.71641 49.1803 7.56432 48.5239 7.56432C47.8515 7.56432 47.2831 7.71641 46.8189 8.02059C46.3546 8.32477 46.0024 8.77304 45.7622 9.36539C45.5221 9.94173 45.402 10.6541 45.402 11.5027C45.402 12.2871 45.5141 12.9755 45.7382 13.5679C45.9624 14.1442 46.3146 14.5925 46.7949 14.9127C47.2751 15.2329 47.8995 15.393 48.668 15.393C49.3724 15.393 49.9487 15.2569 50.397 14.9847C50.8452 14.7125 51.1494 14.3764 51.3095 13.9761H54.8396C54.6475 14.8566 54.2713 15.6411 53.7109 16.3295C53.1506 17.0179 52.4462 17.5542 51.5977 17.9385C50.7492 18.3227 49.7726 18.5148 48.668 18.5148ZM57.6258 18.0585V4.89875H60.6756V10.5421H60.6036C60.6036 8.68499 60.9958 7.25214 61.7803 6.24354C62.5807 5.23495 63.7334 4.73065 65.2383 4.73065H65.7426V8.04461H64.782C63.7254 8.04461 62.9089 8.33278 62.3326 8.90912C61.7563 9.46945 61.4681 10.2859 61.4681 11.3586V18.0585H57.6258ZM73.6906 18.5148C72.5699 18.5148 71.5773 18.3227 70.7128 17.9385C69.8643 17.5542 69.1519 17.0419 68.5755 16.4015C68.0152 15.7452 67.583 15.0167 67.2788 14.2163C66.9906 13.3998 66.8465 12.5673 66.8465 11.7188V11.2385C66.8465 10.358 66.9906 9.51748 67.2788 8.717C67.583 7.90052 68.0152 7.17209 68.5755 6.53171C69.1359 5.89133 69.8323 5.38704 70.6648 5.01882C71.5133 4.63459 72.4738 4.44248 73.5465 4.44248C74.9553 4.44248 76.14 4.76267 77.1006 5.40305C78.0772 6.02741 78.8216 6.8519 79.3339 7.87651C79.8462 8.8851 80.1024 9.98976 80.1024 11.1905V12.4872H68.4555V10.3019H77.773L76.5242 11.3105C76.5242 10.5261 76.4122 9.85368 76.188 9.29335C75.9639 8.73301 75.6277 8.30876 75.1794 8.02059C74.7472 7.71641 74.2029 7.56432 73.5465 7.56432C72.8741 7.56432 72.3057 7.71641 71.8415 8.02059C71.3772 8.32477 71.025 8.77304 70.7848 9.36539C70.5447 9.94173 70.4246 10.6541 70.4246 11.5027C70.4246 12.2871 70.5367 12.9755 70.7608 13.5679C70.985 14.1442 71.3372 14.5925 71.8175 14.9127C72.2977 15.2329 72.9221 15.393 73.6906 15.393C74.395 15.393 74.9713 15.2569 75.4196 14.9847C75.8679 14.7125 76.172 14.3764 76.3321 13.9761H79.8622C79.6701 14.8566 79.2939 15.6411 78.7335 16.3295C78.1732 17.0179 77.4688 17.5542 76.6203 17.9385C75.7718 18.3227 74.7952 18.5148 73.6906 18.5148ZM91.2206 11.4066L86.1055 0.528163H90.1399L93.8141 8.66898L93.1177 8.45285H95.1349L94.3904 8.66898L97.7044 0.528163H101.523L96.8159 11.4066H91.2206ZM92.0851 18.0585V10.8543H95.9514V18.0585H92.0851ZM108.548 18.5148C107.396 18.5148 106.371 18.3387 105.474 17.9865C104.578 17.6183 103.818 17.122 103.193 16.4976C102.585 15.8732 102.12 15.1608 101.8 14.3603C101.48 13.5439 101.32 12.6874 101.32 11.7908V11.2385C101.32 10.326 101.48 9.46144 101.8 8.64496C102.137 7.81247 102.617 7.08404 103.241 6.45967C103.882 5.8353 104.65 5.34701 105.547 4.9948C106.443 4.62659 107.444 4.44248 108.548 4.44248C109.685 4.44248 110.694 4.62659 111.574 4.9948C112.471 5.34701 113.231 5.8353 113.855 6.45967C114.48 7.08404 114.96 7.81247 115.296 8.64496C115.632 9.46144 115.801 10.326 115.801 11.2385V11.7908C115.801 12.6874 115.64 13.5439 115.32 14.3603C115 15.1608 114.528 15.8732 113.903 16.4976C113.295 17.122 112.543 17.6183 111.646 17.9865C110.75 18.3387 109.717 18.5148 108.548 18.5148ZM108.548 15.2729C109.301 15.2729 109.925 15.1128 110.421 14.7926C110.918 14.4724 111.294 14.0241 111.55 13.4478C111.822 12.8715 111.958 12.2311 111.958 11.5267C111.958 10.7742 111.822 10.1178 111.55 9.5575C111.278 8.98116 110.886 8.52489 110.373 8.18869C109.877 7.85249 109.269 7.68439 108.548 7.68439C107.844 7.68439 107.236 7.85249 106.723 8.18869C106.211 8.52489 105.819 8.98116 105.547 9.5575C105.29 10.1178 105.162 10.7742 105.162 11.5267C105.162 12.2311 105.29 12.8715 105.547 13.4478C105.803 14.0241 106.187 14.4724 106.699 14.7926C107.212 15.1128 107.828 15.2729 108.548 15.2729ZM122.925 18.4668C121.404 18.4668 120.235 17.9785 119.419 17.0019C118.602 16.0093 118.194 14.5204 118.194 12.5353V4.89875H122.036V12.7274C122.036 13.4318 122.236 13.9921 122.637 14.4084C123.037 14.8246 123.573 15.0327 124.246 15.0327C124.934 15.0327 125.494 14.8166 125.927 14.3844C126.359 13.9521 126.575 13.3678 126.575 12.6313V4.89875H130.417V18.0585H127.367V12.5112H127.632C127.632 13.84 127.455 14.9527 127.103 15.8492C126.767 16.7297 126.263 17.3861 125.59 17.8184C124.918 18.2506 124.085 18.4668 123.093 18.4668H122.925ZM133.96 18.0585V4.89875H137.01V10.5421H136.938C136.938 8.68499 137.33 7.25214 138.114 6.24354C138.915 5.23495 140.068 4.73065 141.573 4.73065H142.077V8.04461H141.116C140.06 8.04461 139.243 8.33278 138.667 8.90912C138.09 9.46945 137.802 10.2859 137.802 11.3586V18.0585H133.96ZM157.37 18.5148C155.786 18.5148 154.425 18.2426 153.288 17.6983C152.151 17.138 151.223 16.4096 150.502 15.513C149.782 14.6005 149.246 13.6239 148.893 12.5833C148.557 11.5267 148.389 10.5021 148.389 9.50947V8.98116C148.389 7.89252 148.565 6.81988 148.917 5.76326C149.27 4.69062 149.806 3.72205 150.526 2.85754C151.263 1.99303 152.183 1.30462 153.288 0.792319C154.409 0.264007 155.73 -0.000149338 157.25 -0.000149338C158.835 -0.000149338 160.236 0.296026 161.453 0.888376C162.67 1.48073 163.638 2.30521 164.359 3.36184C165.095 4.40245 165.527 5.62718 165.655 7.03601H161.693C161.581 6.33159 161.325 5.73124 160.925 5.23495C160.524 4.73865 160.004 4.35443 159.364 4.08226C158.739 3.8101 158.035 3.67402 157.25 3.67402C156.466 3.67402 155.77 3.8101 155.161 4.08226C154.553 4.35443 154.041 4.73865 153.624 5.23495C153.224 5.73124 152.912 6.32359 152.688 7.012C152.48 7.68439 152.376 8.43684 152.376 9.26933C152.376 10.0858 152.48 10.8383 152.688 11.5267C152.912 12.1991 153.232 12.7914 153.648 13.3037C154.081 13.8 154.609 14.1842 155.233 14.4564C155.858 14.7125 156.57 14.8406 157.37 14.8406C158.587 14.8406 159.612 14.5444 160.444 13.9521C161.293 13.3597 161.805 12.5433 161.981 11.5027H165.92C165.775 12.7834 165.343 13.9601 164.623 15.0327C163.918 16.0894 162.95 16.9379 161.717 17.5782C160.5 18.2026 159.051 18.5148 157.37 18.5148ZM176.265 18.0585V14.1682H175.617V9.94173C175.617 9.26933 175.456 8.76503 175.136 8.42883C174.816 8.09264 174.304 7.92454 173.599 7.92454C173.247 7.92454 172.783 7.93254 172.207 7.94855C171.63 7.96456 171.038 7.98857 170.43 8.02059C169.821 8.05261 169.269 8.08463 168.773 8.11665V4.87473C169.141 4.84271 169.573 4.8107 170.069 4.77868C170.566 4.74666 171.078 4.72264 171.606 4.70663C172.135 4.69062 172.631 4.68262 173.095 4.68262C174.44 4.68262 175.569 4.87473 176.481 5.25896C177.41 5.64319 178.114 6.22753 178.594 7.012C179.075 7.78045 179.315 8.77304 179.315 9.98976V18.0585H176.265ZM172.062 18.3947C171.118 18.3947 170.285 18.2266 169.565 17.8904C168.861 17.5542 168.308 17.0739 167.908 16.4496C167.508 15.8092 167.308 15.0487 167.308 14.1682C167.308 13.2077 167.556 12.4232 168.052 11.8148C168.548 11.1905 169.245 10.7342 170.141 10.446C171.038 10.1418 172.07 9.98976 173.239 9.98976H176.049V12.127H173.215C172.543 12.127 172.022 12.2951 171.654 12.6313C171.302 12.9515 171.126 13.3918 171.126 13.9521C171.126 14.4804 171.302 14.9127 171.654 15.2489C172.022 15.5691 172.543 15.7291 173.215 15.7291C173.647 15.7291 174.032 15.6571 174.368 15.513C174.72 15.3529 175.008 15.0888 175.232 14.7206C175.456 14.3523 175.585 13.84 175.617 13.1836L176.529 14.1442C176.449 15.0568 176.225 15.8252 175.857 16.4496C175.505 17.0739 175.008 17.5542 174.368 17.8904C173.743 18.2266 172.975 18.3947 172.062 18.3947ZM182.575 18.0585V4.89875H185.624V10.5421H185.552C185.552 8.68499 185.945 7.25214 186.729 6.24354C187.53 5.23495 188.682 4.73065 190.187 4.73065H190.691V8.04461H189.731C188.674 8.04461 187.858 8.33278 187.281 8.90912C186.705 9.46945 186.417 10.2859 186.417 11.3586V18.0585H182.575ZM198.639 18.5148C197.519 18.5148 196.526 18.3227 195.662 17.9385C194.813 17.5542 194.101 17.0419 193.524 16.4015C192.964 15.7452 192.532 15.0167 192.228 14.2163C191.939 13.3998 191.795 12.5673 191.795 11.7188V11.2385C191.795 10.358 191.939 9.51748 192.228 8.717C192.532 7.90052 192.964 7.17209 193.524 6.53171C194.085 5.89133 194.781 5.38704 195.614 5.01882C196.462 4.63459 197.423 4.44248 198.495 4.44248C199.904 4.44248 201.089 4.76267 202.049 5.40305C203.026 6.02741 203.77 6.8519 204.283 7.87651C204.795 8.8851 205.051 9.98976 205.051 11.1905V12.4872H193.404V10.3019H202.722L201.473 11.3105C201.473 10.5261 201.361 9.85368 201.137 9.29335C200.913 8.73301 200.577 8.30876 200.128 8.02059C199.696 7.71641 199.152 7.56432 198.495 7.56432C197.823 7.56432 197.255 7.71641 196.79 8.02059C196.326 8.32477 195.974 8.77304 195.734 9.36539C195.494 9.94173 195.373 10.6541 195.373 11.5027C195.373 12.2871 195.486 12.9755 195.71 13.5679C195.934 14.1442 196.286 14.5925 196.766 14.9127C197.247 15.2329 197.871 15.393 198.639 15.393C199.344 15.393 199.92 15.2569 200.368 14.9847C200.817 14.7125 201.121 14.3764 201.281 13.9761H204.811C204.619 14.8566 204.243 15.6411 203.682 16.3295C203.122 17.0179 202.418 17.5542 201.569 17.9385C200.721 18.3227 199.744 18.5148 198.639 18.5148ZM213.625 18.5148C212.504 18.5148 211.512 18.3227 210.647 17.9385C209.799 17.5542 209.086 17.0419 208.51 16.4015C207.949 15.7452 207.517 15.0167 207.213 14.2163C206.925 13.3998 206.781 12.5673 206.781 11.7188V11.2385C206.781 10.358 206.925 9.51748 207.213 8.717C207.517 7.90052 207.949 7.17209 208.51 6.53171C209.07 5.89133 209.767 5.38704 210.599 5.01882C211.448 4.63459 212.408 4.44248 213.481 4.44248C214.89 4.44248 216.074 4.76267 217.035 5.40305C218.011 6.02741 218.756 6.8519 219.268 7.87651C219.78 8.8851 220.037 9.98976 220.037 11.1905V12.4872H208.39V10.3019H217.707L216.459 11.3105C216.459 10.5261 216.346 9.85368 216.122 9.29335C215.898 8.73301 215.562 8.30876 215.114 8.02059C214.681 7.71641 214.137 7.56432 213.481 7.56432C212.808 7.56432 212.24 7.71641 211.776 8.02059C211.311 8.32477 210.959 8.77304 210.719 9.36539C210.479 9.94173 210.359 10.6541 210.359 11.5027C210.359 12.2871 210.471 12.9755 210.695 13.5679C210.919 14.1442 211.271 14.5925 211.752 14.9127C212.232 15.2329 212.856 15.393 213.625 15.393C214.329 15.393 214.906 15.2569 215.354 14.9847C215.802 14.7125 216.106 14.3764 216.266 13.9761H219.797C219.604 14.8566 219.228 15.6411 218.668 16.3295C218.108 17.0179 217.403 17.5542 216.555 17.9385C215.706 18.3227 214.73 18.5148 213.625 18.5148ZM222.583 18.0585V4.89875H225.633V10.5421H225.56C225.56 8.68499 225.953 7.25214 226.737 6.24354C227.538 5.23495 228.69 4.73065 230.195 4.73065H230.7V8.04461H229.739C228.682 8.04461 227.866 8.33278 227.289 8.90912C226.713 9.46945 226.425 10.2859 226.425 11.3586V18.0585H222.583ZM241.43 18.0585V3.48191H245.369V18.0585H241.43ZM236.508 3.96219V0.528163H250.316V3.96219H236.508ZM259.635 18.0585V14.1682H258.986V9.94173C258.986 9.26933 258.826 8.76503 258.506 8.42883C258.186 8.09264 257.673 7.92454 256.969 7.92454C256.617 7.92454 256.152 7.93254 255.576 7.94855C255 7.96456 254.407 7.98857 253.799 8.02059C253.191 8.05261 252.638 8.08463 252.142 8.11665V4.87473C252.51 4.84271 252.943 4.8107 253.439 4.77868C253.935 4.74666 254.447 4.72264 254.976 4.70663C255.504 4.69062 256 4.68262 256.465 4.68262C257.809 4.68262 258.938 4.87473 259.851 5.25896C260.779 5.64319 261.484 6.22753 261.964 7.012C262.444 7.78045 262.684 8.77304 262.684 9.98976V18.0585H259.635ZM255.432 18.3947C254.488 18.3947 253.655 18.2266 252.935 17.8904C252.23 17.5542 251.678 17.0739 251.278 16.4496C250.877 15.8092 250.677 15.0487 250.677 14.1682C250.677 13.2077 250.925 12.4232 251.422 11.8148C251.918 11.1905 252.614 10.7342 253.511 10.446C254.407 10.1418 255.44 9.98976 256.609 9.98976H259.418V12.127H256.585C255.912 12.127 255.392 12.2951 255.024 12.6313C254.672 12.9515 254.496 13.3918 254.496 13.9521C254.496 14.4804 254.672 14.9127 255.024 15.2489C255.392 15.5691 255.912 15.7291 256.585 15.7291C257.017 15.7291 257.401 15.6571 257.737 15.513C258.09 15.3529 258.378 15.0888 258.602 14.7206C258.826 14.3523 258.954 13.84 258.986 13.1836L259.899 14.1442C259.819 15.0568 259.595 15.8252 259.226 16.4496C258.874 17.0739 258.378 17.5542 257.737 17.8904C257.113 18.2266 256.345 18.3947 255.432 18.3947ZM275.214 18.0585L271.059 11.9109H269.21L274.565 4.89875H278.6L273.557 11.4306L273.605 9.5575L279.536 18.0585H275.214ZM265.944 18.0585V0.528163H269.787V18.0585H265.944ZM286.817 18.5148C285.696 18.5148 284.703 18.3227 283.839 17.9385C282.99 17.5542 282.278 17.0419 281.702 16.4015C281.141 15.7452 280.709 15.0167 280.405 14.2163C280.117 13.3998 279.973 12.5673 279.973 11.7188V11.2385C279.973 10.358 280.117 9.51748 280.405 8.717C280.709 7.90052 281.141 7.17209 281.702 6.53171C282.262 5.89133 282.958 5.38704 283.791 5.01882C284.639 4.63459 285.6 4.44248 286.672 4.44248C288.081 4.44248 289.266 4.76267 290.227 5.40305C291.203 6.02741 291.948 6.8519 292.46 7.87651C292.972 8.8851 293.228 9.98976 293.228 11.1905V12.4872H281.581V10.3019H290.899L289.65 11.3105C289.65 10.5261 289.538 9.85368 289.314 9.29335C289.09 8.73301 288.754 8.30876 288.305 8.02059C287.873 7.71641 287.329 7.56432 286.672 7.56432C286 7.56432 285.432 7.71641 284.967 8.02059C284.503 8.32477 284.151 8.77304 283.911 9.36539C283.671 9.94173 283.551 10.6541 283.551 11.5027C283.551 12.2871 283.663 12.9755 283.887 13.5679C284.111 14.1442 284.463 14.5925 284.943 14.9127C285.424 15.2329 286.048 15.393 286.817 15.393C287.521 15.393 288.097 15.2569 288.546 14.9847C288.994 14.7125 289.298 14.3764 289.458 13.9761H292.988C292.796 14.8566 292.42 15.6411 291.86 16.3295C291.299 17.0179 290.595 17.5542 289.746 17.9385C288.898 18.3227 287.921 18.5148 286.817 18.5148ZM300.769 18.4668C298.896 18.4668 297.431 18.0825 296.375 17.3141C295.318 16.5456 294.758 15.465 294.694 14.0722H298.104C298.168 14.4884 298.416 14.8646 298.848 15.2008C299.296 15.521 299.961 15.6811 300.841 15.6811C301.514 15.6811 302.066 15.5691 302.498 15.3449C302.947 15.1048 303.171 14.7686 303.171 14.3363C303.171 13.9521 303.003 13.6479 302.666 13.4238C302.33 13.1836 301.73 13.0155 300.865 12.9195L299.833 12.8234C298.248 12.6633 297.055 12.2231 296.255 11.5027C295.47 10.7822 295.078 9.86168 295.078 8.74102C295.078 7.81247 295.31 7.03601 295.774 6.41164C296.239 5.78727 296.879 5.31499 297.696 4.9948C298.528 4.67461 299.473 4.51452 300.529 4.51452C302.226 4.51452 303.595 4.89074 304.636 5.64319C305.676 6.37962 306.221 7.45226 306.269 8.86109H302.859C302.795 8.42883 302.57 8.06862 302.186 7.78045C301.802 7.47627 301.234 7.32418 300.481 7.32418C299.889 7.32418 299.417 7.43625 299.064 7.66038C298.712 7.88451 298.536 8.18869 298.536 8.57292C298.536 8.94114 298.688 9.2213 298.992 9.41342C299.296 9.60553 299.793 9.74161 300.481 9.82166L301.514 9.91771C303.131 10.0938 304.388 10.5421 305.284 11.2625C306.181 11.9829 306.629 12.9515 306.629 14.1682C306.629 15.0487 306.389 15.8172 305.908 16.4736C305.428 17.114 304.748 17.6103 303.867 17.9625C302.987 18.2987 301.954 18.4668 300.769 18.4668ZM322.781 18.5148C321.196 18.5148 319.812 18.2426 318.627 17.6983C317.458 17.138 316.49 16.4096 315.721 15.513C314.953 14.6005 314.376 13.6159 313.992 12.5593C313.624 11.5027 313.44 10.4861 313.44 9.50947V8.98116C313.44 7.89252 313.632 6.81988 314.016 5.76326C314.416 4.69062 315.009 3.72205 315.793 2.85754C316.578 1.99303 317.554 1.30462 318.723 0.792319C319.892 0.264007 321.244 -0.000149338 322.781 -0.000149338C324.318 -0.000149338 325.671 0.264007 326.84 0.792319C328.008 1.30462 328.985 1.99303 329.77 2.85754C330.554 3.72205 331.146 4.69062 331.547 5.76326C331.947 6.81988 332.147 7.89252 332.147 8.98116V9.50947C332.147 10.4861 331.955 11.5027 331.571 12.5593C331.186 13.6159 330.61 14.6005 329.842 15.513C329.073 16.4096 328.097 17.138 326.912 17.6983C325.743 18.2426 324.366 18.5148 322.781 18.5148ZM322.781 14.8406C323.614 14.8406 324.358 14.6965 325.015 14.4084C325.687 14.1202 326.255 13.72 326.72 13.2077C327.2 12.6954 327.56 12.103 327.8 11.4306C328.04 10.7582 328.161 10.0378 328.161 9.26933C328.161 8.45285 328.032 7.70841 327.776 7.03601C327.536 6.3476 327.176 5.75525 326.696 5.25896C326.231 4.74666 325.671 4.35443 325.015 4.08226C324.358 3.8101 323.614 3.67402 322.781 3.67402C321.949 3.67402 321.204 3.8101 320.548 4.08226C319.892 4.35443 319.323 4.74666 318.843 5.25896C318.379 5.75525 318.027 6.3476 317.786 7.03601C317.546 7.70841 317.426 8.45285 317.426 9.26933C317.426 10.0378 317.546 10.7582 317.786 11.4306C318.027 12.103 318.379 12.6954 318.843 13.2077C319.323 13.72 319.892 14.1202 320.548 14.4084C321.204 14.6965 321.949 14.8406 322.781 14.8406ZM335.179 18.0585V4.63459C335.179 3.11369 335.603 1.98502 336.452 1.24859C337.316 0.512153 338.589 0.143935 340.27 0.143935H341.495V3.02564H340.102C339.67 3.02564 339.333 3.14571 339.093 3.38585C338.869 3.62599 338.757 3.96219 338.757 4.39445V18.0585H335.179ZM343.8 18.0585V4.77868C343.8 3.25778 344.232 2.12911 345.097 1.39267C345.961 0.656239 347.234 0.288022 348.915 0.288022H350.524V3.16973H348.747C348.315 3.16973 347.978 3.2898 347.738 3.52994C347.498 3.77008 347.378 4.10628 347.378 4.53853V18.0585H343.8ZM333.642 7.97256V5.1629H350.716V7.97256H333.642Z" fill="url(#paint0_linear_2_6333)"/>
<path d="M356.966 12.9675V9.5575H367.076V12.9675H356.966ZM444.888 18.5148C443.735 18.5148 442.71 18.3387 441.814 17.9865C440.917 17.6183 440.157 17.122 439.533 16.4976C438.924 15.8732 438.46 15.1608 438.14 14.3603C437.82 13.5439 437.659 12.6874 437.659 11.7908V11.2385C437.659 10.326 437.82 9.46144 438.14 8.64496C438.476 7.81247 438.956 7.08404 439.581 6.45967C440.221 5.8353 440.989 5.34701 441.886 4.9948C442.783 4.62659 443.783 4.44248 444.888 4.44248C446.024 4.44248 447.033 4.62659 447.914 4.9948C448.81 5.34701 449.571 5.8353 450.195 6.45967C450.819 7.08404 451.3 7.81247 451.636 8.64496C451.972 9.46144 452.14 10.326 452.14 11.2385V11.7908C452.14 12.6874 451.98 13.5439 451.66 14.3603C451.34 15.1608 450.867 15.8732 450.243 16.4976C449.635 17.122 448.882 17.6183 447.986 17.9865C447.089 18.3387 446.056 18.5148 444.888 18.5148ZM444.888 15.2729C445.64 15.2729 446.265 15.1128 446.761 14.7926C447.257 14.4724 447.633 14.0241 447.89 13.4478C448.162 12.8715 448.298 12.2311 448.298 11.5267C448.298 10.7742 448.162 10.1178 447.89 9.5575C447.617 8.98116 447.225 8.52489 446.713 8.18869C446.217 7.85249 445.608 7.68439 444.888 7.68439C444.183 7.68439 443.575 7.85249 443.063 8.18869C442.55 8.52489 442.158 8.98116 441.886 9.5575C441.63 10.1178 441.502 10.7742 441.502 11.5267C441.502 12.2311 441.63 12.8715 441.886 13.4478C442.142 14.0241 442.526 14.4724 443.039 14.7926C443.551 15.1128 444.167 15.2729 444.888 15.2729ZM454.822 18.0585V4.89875H457.871V10.5421H457.799C457.799 8.68499 458.192 7.25214 458.976 6.24354C459.776 5.23495 460.929 4.73065 462.434 4.73065H462.938V8.04461H461.978C460.921 8.04461 460.105 8.33278 459.528 8.90912C458.952 9.46945 458.664 10.2859 458.664 11.3586V18.0585H454.822Z" fill="black"/>
<path d="M378.621 18.0585V3.48191H382.559V18.0585H378.621ZM373.698 3.96219V0.528163H387.506V3.96219H373.698ZM394.13 18.5148C393.009 18.5148 392.017 18.3227 391.152 17.9385C390.304 17.5542 389.591 17.0419 389.015 16.4015C388.455 15.7452 388.022 15.0167 387.718 14.2163C387.43 13.3998 387.286 12.5673 387.286 11.7188V11.2385C387.286 10.358 387.43 9.51748 387.718 8.717C388.022 7.90052 388.455 7.17209 389.015 6.53171C389.575 5.89133 390.272 5.38704 391.104 5.01882C391.953 4.63459 392.913 4.44248 393.986 4.44248C395.395 4.44248 396.579 4.76267 397.54 5.40305C398.517 6.02741 399.261 6.8519 399.773 7.87651C400.286 8.8851 400.542 9.98976 400.542 11.1905V12.4872H388.895V10.3019H398.212L396.964 11.3105C396.964 10.5261 396.852 9.85368 396.627 9.29335C396.403 8.73301 396.067 8.30876 395.619 8.02059C395.187 7.71641 394.642 7.56432 393.986 7.56432C393.314 7.56432 392.745 7.71641 392.281 8.02059C391.817 8.32477 391.464 8.77304 391.224 9.36539C390.984 9.94173 390.864 10.6541 390.864 11.5027C390.864 12.2871 390.976 12.9755 391.2 13.5679C391.424 14.1442 391.777 14.5925 392.257 14.9127C392.737 15.2329 393.362 15.393 394.13 15.393C394.834 15.393 395.411 15.2569 395.859 14.9847C396.307 14.7125 396.611 14.3764 396.772 13.9761H400.302C400.11 14.8566 399.733 15.6411 399.173 16.3295C398.613 17.0179 397.908 17.5542 397.06 17.9385C396.211 18.3227 395.235 18.5148 394.13 18.5148ZM408.995 18.5148C407.859 18.5148 406.866 18.3307 406.018 17.9625C405.185 17.5782 404.489 17.0659 403.928 16.4256C403.368 15.7852 402.952 15.0648 402.68 14.2643C402.407 13.4478 402.271 12.6073 402.271 11.7428V11.2865C402.271 10.39 402.415 9.53349 402.704 8.717C402.992 7.88451 403.416 7.14808 403.976 6.5077C404.537 5.86732 405.233 5.36302 406.066 4.9948C406.914 4.62659 407.883 4.44248 408.971 4.44248C410.156 4.44248 411.205 4.67461 412.117 5.13889C413.03 5.58715 413.758 6.21953 414.302 7.03601C414.847 7.85249 415.151 8.78905 415.215 9.84567H411.445C411.381 9.25332 411.141 8.75703 410.724 8.35679C410.324 7.94055 409.74 7.73242 408.971 7.73242C408.331 7.73242 407.795 7.89252 407.362 8.21271C406.946 8.5329 406.634 8.97316 406.426 9.53349C406.218 10.0938 406.114 10.7582 406.114 11.5267C406.114 12.2311 406.21 12.8715 406.402 13.4478C406.594 14.0081 406.898 14.4484 407.314 14.7686C407.747 15.0728 408.307 15.2249 408.995 15.2249C409.508 15.2249 409.94 15.1368 410.292 14.9607C410.66 14.7686 410.949 14.5124 411.157 14.1922C411.381 13.856 411.517 13.4718 411.565 13.0396H415.311C415.263 14.1282 414.959 15.0888 414.399 15.9213C413.838 16.7377 413.094 17.3781 412.165 17.8424C411.237 18.2907 410.18 18.5148 408.995 18.5148ZM417.768 18.0585V0.528163H421.611V10.6381H421.034C421.034 9.30935 421.202 8.18869 421.539 7.27615C421.875 6.36361 422.371 5.67521 423.028 5.21093C423.684 4.73065 424.508 4.49051 425.501 4.49051H425.669C427.126 4.49051 428.239 5.01081 429.007 6.05143C429.776 7.07603 430.16 8.58092 430.16 10.5661V18.0585H426.317V10.326C426.317 9.60553 426.101 9.02919 425.669 8.59693C425.253 8.14867 424.701 7.92454 424.012 7.92454C423.292 7.92454 422.707 8.15667 422.259 8.62095C421.827 9.08522 421.611 9.70159 421.611 10.47V18.0585H417.768Z" fill="#673AB7"/>
<path d="M478.232 18.5148C476.647 18.5148 475.286 18.2426 474.15 17.6983C473.013 17.138 472.084 16.4096 471.364 15.513C470.644 14.6005 470.107 13.6239 469.755 12.5833C469.419 11.5267 469.251 10.5021 469.251 9.50947V8.98116C469.251 7.89252 469.427 6.81988 469.779 5.76326C470.131 4.69062 470.668 3.72205 471.388 2.85754C472.124 1.99303 473.045 1.30462 474.15 0.792319C475.27 0.264007 476.591 -0.000149338 478.112 -0.000149338C479.697 -0.000149338 481.098 0.296026 482.314 0.888376C483.531 1.48073 484.5 2.30521 485.22 3.36184C485.957 4.40245 486.389 5.62718 486.517 7.03601H482.555C482.443 6.33159 482.186 5.73124 481.786 5.23495C481.386 4.73865 480.866 4.35443 480.225 4.08226C479.601 3.8101 478.896 3.67402 478.112 3.67402C477.327 3.67402 476.631 3.8101 476.023 4.08226C475.414 4.35443 474.902 4.73865 474.486 5.23495C474.086 5.73124 473.773 6.32359 473.549 7.012C473.341 7.68439 473.237 8.43684 473.237 9.26933C473.237 10.0858 473.341 10.8383 473.549 11.5267C473.773 12.1991 474.094 12.7914 474.51 13.3037C474.942 13.8 475.47 14.1842 476.095 14.4564C476.719 14.7125 477.432 14.8406 478.232 14.8406C479.449 14.8406 480.473 14.5444 481.306 13.9521C482.154 13.3597 482.667 12.5433 482.843 11.5027H486.781C486.637 12.7834 486.205 13.9601 485.484 15.0327C484.78 16.0894 483.811 16.9379 482.579 17.5782C481.362 18.2026 479.913 18.5148 478.232 18.5148ZM495.59 18.5148C494.437 18.5148 493.412 18.3387 492.516 17.9865C491.619 17.6183 490.859 17.122 490.234 16.4976C489.626 15.8732 489.162 15.1608 488.842 14.3603C488.521 13.5439 488.361 12.6874 488.361 11.7908V11.2385C488.361 10.326 488.521 9.46144 488.842 8.64496C489.178 7.81247 489.658 7.08404 490.282 6.45967C490.923 5.8353 491.691 5.34701 492.588 4.9948C493.484 4.62659 494.485 4.44248 495.59 4.44248C496.726 4.44248 497.735 4.62659 498.615 4.9948C499.512 5.34701 500.272 5.8353 500.897 6.45967C501.521 7.08404 502.001 7.81247 502.338 8.64496C502.674 9.46144 502.842 10.326 502.842 11.2385V11.7908C502.842 12.6874 502.682 13.5439 502.362 14.3603C502.041 15.1608 501.569 15.8732 500.945 16.4976C500.336 17.122 499.584 17.6183 498.687 17.9865C497.791 18.3387 496.758 18.5148 495.59 18.5148ZM495.59 15.2729C496.342 15.2729 496.966 15.1128 497.463 14.7926C497.959 14.4724 498.335 14.0241 498.591 13.4478C498.864 12.8715 499 12.2311 499 11.5267C499 10.7742 498.864 10.1178 498.591 9.5575C498.319 8.98116 497.927 8.52489 497.415 8.18869C496.918 7.85249 496.31 7.68439 495.59 7.68439C494.885 7.68439 494.277 7.85249 493.765 8.18869C493.252 8.52489 492.86 8.98116 492.588 9.5575C492.332 10.1178 492.204 10.7742 492.204 11.5267C492.204 12.2311 492.332 12.8715 492.588 13.4478C492.844 14.0241 493.228 14.4724 493.741 14.7926C494.253 15.1128 494.869 15.2729 495.59 15.2729ZM505.523 18.0585V4.89875H508.573V10.5421H508.501C508.501 8.68499 508.893 7.25214 509.678 6.24354C510.478 5.23495 511.631 4.73065 513.136 4.73065H513.64V8.04461H512.68C511.623 8.04461 510.807 8.33278 510.23 8.90912C509.654 9.46945 509.366 10.2859 509.366 11.3586V18.0585H505.523ZM521.588 18.5148C520.467 18.5148 519.475 18.3227 518.61 17.9385C517.762 17.5542 517.049 17.0419 516.473 16.4015C515.913 15.7452 515.481 15.0167 515.176 14.2163C514.888 13.3998 514.744 12.5673 514.744 11.7188V11.2385C514.744 10.358 514.888 9.51748 515.176 8.717C515.481 7.90052 515.913 7.17209 516.473 6.53171C517.033 5.89133 517.73 5.38704 518.562 5.01882C519.411 4.63459 520.371 4.44248 521.444 4.44248C522.853 4.44248 524.038 4.76267 524.998 5.40305C525.975 6.02741 526.719 6.8519 527.231 7.87651C527.744 8.8851 528 9.98976 528 11.1905V12.4872H516.353V10.3019H525.671L524.422 11.3105C524.422 10.5261 524.31 9.85368 524.086 9.29335C523.862 8.73301 523.525 8.30876 523.077 8.02059C522.645 7.71641 522.1 7.56432 521.444 7.56432C520.772 7.56432 520.203 7.71641 519.739 8.02059C519.275 8.32477 518.923 8.77304 518.682 9.36539C518.442 9.94173 518.322 10.6541 518.322 11.5027C518.322 12.2871 518.434 12.9755 518.658 13.5679C518.883 14.1442 519.235 14.5925 519.715 14.9127C520.195 15.2329 520.82 15.393 521.588 15.393C522.293 15.393 522.869 15.2569 523.317 14.9847C523.765 14.7125 524.07 14.3764 524.23 13.9761H527.76C527.568 14.8566 527.191 15.6411 526.631 16.3295C526.071 17.0179 525.366 17.5542 524.518 17.9385C523.669 18.3227 522.693 18.5148 521.588 18.5148Z" fill="#00BFA6"/>
<defs>
<linearGradient id="paint0_linear_2_6333" x1="472.017" y1="12.155" x2="232.288" y2="-278.822" gradientUnits="userSpaceOnUse">
<stop stop-color="#673AB7"/>
<stop offset="1" stop-color="#00BFA6"/>
</linearGradient>
</defs>
</svg>
