<svg width="1446" height="78" viewBox="0 0 1446 78" fill="none" xmlns="http://www.w3.org/2000/svg">
<g filter="url(#filter0_dd_2_1773)">
<mask id="path-1-inside-1_2_1773" fill="white">
<path d="M2 2H1442V74H2V2Z"/>
</mask>
<path d="M1442 74V73.5H2V74V74.5H1442V74Z" fill="#673AB7" fill-opacity="0.2" mask="url(#path-1-inside-1_2_1773)"/>
<path d="M1321.33 47.3332V44.6665H1324V35.3332C1324 33.4887 1324.56 31.8498 1325.67 30.4165C1326.78 28.9832 1328.22 28.0443 1330 27.5998V26.6665C1330 26.1109 1330.19 25.6387 1330.58 25.2498C1330.97 24.8609 1331.44 24.6665 1332 24.6665C1332.56 24.6665 1333.03 24.8609 1333.42 25.2498C1333.81 25.6387 1334 26.1109 1334 26.6665V27.5998C1335.78 28.0443 1337.22 28.9832 1338.33 30.4165C1339.44 31.8498 1340 33.4887 1340 35.3332V44.6665H1342.67V47.3332H1321.33ZM1332 51.3332C1331.27 51.3332 1330.64 51.0721 1330.12 50.5498C1329.59 50.0276 1329.33 49.3998 1329.33 48.6665H1334.67C1334.67 49.3998 1334.41 50.0276 1333.88 50.5498C1333.36 51.0721 1332.73 51.3332 1332 51.3332ZM1326.67 44.6665H1337.33V35.3332C1337.33 33.8665 1336.81 32.6109 1335.77 31.5665C1334.72 30.5221 1333.47 29.9998 1332 29.9998C1330.53 29.9998 1329.28 30.5221 1328.23 31.5665C1327.19 32.6109 1326.67 33.8665 1326.67 35.3332V44.6665Z" fill="#673AB7"/>
</g>
<defs>
<filter id="filter0_dd_2_1773" x="0" y="0" width="1446" height="78" filterUnits="userSpaceOnUse" color-interpolation-filters="sRGB">
<feFlood flood-opacity="0" result="BackgroundImageFix"/>
<feColorMatrix in="SourceAlpha" type="matrix" values="0 0 0 0 0 0 0 0 0 0 0 0 0 0 0 0 0 0 127 0" result="hardAlpha"/>
<feOffset dx="2"/>
<feGaussianBlur stdDeviation="1"/>
<feComposite in2="hardAlpha" operator="out"/>
<feColorMatrix type="matrix" values="0 0 0 0 0.403922 0 0 0 0 0.227451 0 0 0 0 0.717647 0 0 0 0.25 0"/>
<feBlend mode="normal" in2="BackgroundImageFix" result="effect1_dropShadow_2_1773"/>
<feColorMatrix in="SourceAlpha" type="matrix" values="0 0 0 0 0 0 0 0 0 0 0 0 0 0 0 0 0 0 127 0" result="hardAlpha"/>
<feOffset dy="2"/>
<feGaussianBlur stdDeviation="1"/>
<feComposite in2="hardAlpha" operator="out"/>
<feColorMatrix type="matrix" values="0 0 0 0 0.403922 0 0 0 0 0.227451 0 0 0 0 0.717647 0 0 0 0.25 0"/>
<feBlend mode="normal" in2="effect1_dropShadow_2_1773" result="effect2_dropShadow_2_1773"/>
<feBlend mode="normal" in="SourceGraphic" in2="effect2_dropShadow_2_1773" result="shape"/>
</filter>
</defs>
</svg>
